<svg width="21" height="21" viewBox="0 0 21 21" fill="none" xmlns="http://www.w3.org/2000/svg">
<path d="M20.4602 15.4889L17.8495 12.8783C17.1297 12.1586 15.9585 12.1586 15.2387 12.8783L14.0521 14.0649C13.5068 14.6101 12.6195 14.61 12.0744 14.0651L6.93081 8.91734C6.38426 8.3708 6.38417 7.48622 6.93081 6.9396C7.12195 6.74847 7.67081 6.19964 8.11749 5.75298C8.8341 5.03644 8.84411 3.86892 8.11679 3.14172L5.50677 0.540012C4.787 -0.179689 3.61583 -0.179689 2.89798 0.538126C2.36081 1.07059 2.18756 1.24236 1.9467 1.48112C-0.64888 4.07655 -0.64888 8.29964 1.94658 10.895L10.0964 19.0487C12.6981 21.6503 16.9089 21.6505 19.5108 19.0487L20.4602 18.0994C21.1799 17.3797 21.1799 16.2086 20.4602 15.4889ZM3.76632 1.4102C4.00623 1.1703 4.39655 1.17026 4.63724 1.41086L7.24726 4.01256C7.48775 4.25304 7.48775 4.64223 7.24726 4.88275L6.81211 5.31784L3.33342 1.83931L3.76632 1.4102ZM10.9668 18.1787L2.81693 10.0248C0.808797 8.0168 0.698419 4.86372 2.47747 2.72381L5.94607 6.19226C5.03466 7.2254 5.07264 8.7997 6.06038 9.7874L11.2038 14.9349C11.2038 14.9349 11.2039 14.935 11.204 14.9351C12.1906 15.9217 13.7649 15.9622 14.7994 15.0496L18.2681 18.5181C16.1349 20.294 12.9888 20.2005 10.9668 18.1787ZM19.59 17.2292L19.1548 17.6644L15.6739 14.1835L16.109 13.7484C16.3489 13.5085 16.7393 13.5085 16.9792 13.7484L19.5899 16.3591C19.8299 16.599 19.8299 16.9894 19.59 17.2292Z" fill="white"/>
</svg>
