<svg width="24" height="24" viewBox="0 0 24 24" fill="none" xmlns="http://www.w3.org/2000/svg">
<circle cx="12" cy="12" r="11.5" stroke="#26B99A"/>
<path d="M11.9766 4C9.06879 4 6.70312 6.36566 6.70312 9.27344C6.70312 10.2559 6.97526 11.2146 7.4903 12.0464L11.6764 18.7923C11.7566 18.9215 11.8978 19 12.0498 19C12.0509 19 12.0521 19 12.0533 19C12.2065 18.9988 12.3481 18.9179 12.4268 18.7864L16.5062 11.9752C16.9928 11.161 17.25 10.2267 17.25 9.27344C17.25 6.36566 14.8843 4 11.9766 4ZM15.7519 11.524L12.0431 17.7164L8.23731 11.5834C7.80861 10.891 7.57617 10.0923 7.57617 9.27344C7.57617 6.85029 9.55342 4.87305 11.9766 4.87305C14.3997 4.87305 16.374 6.85029 16.374 9.27344C16.374 10.068 16.1569 10.8463 15.7519 11.524Z" fill="#26B99A"/>
<path d="M11.9766 6.63672C10.5227 6.63672 9.33984 7.81955 9.33984 9.27344C9.33984 10.718 10.5034 11.9102 11.9766 11.9102C13.4679 11.9102 14.6133 10.7022 14.6133 9.27344C14.6133 7.81955 13.4304 6.63672 11.9766 6.63672ZM11.9766 11.0371C11.0022 11.0371 10.2129 10.2451 10.2129 9.27344C10.2129 8.30418 11.0073 7.50977 11.9766 7.50977C12.9458 7.50977 13.7373 8.30418 13.7373 9.27344C13.7373 10.2309 12.9663 11.0371 11.9766 11.0371Z" fill="#26B99A"/>
</svg>
