<svg width="62" height="64" viewBox="0 0 62 64" fill="none" xmlns="http://www.w3.org/2000/svg">
<path d="M58.4828 28.6902C58.0415 28.6902 57.6243 28.4232 57.4545 27.9862L50.7587 10.768L44.063 27.9862C43.8412 28.5545 43.2001 28.837 42.6351 28.6152C42.0668 28.3935 41.7855 27.7545 42.0061 27.1862L49.7302 7.32409C49.8957 6.90034 50.304 6.62122 50.7586 6.62122C51.2132 6.62122 51.6215 6.90034 51.787 7.32409L59.5111 27.1862C59.7318 27.7545 59.4503 28.3933 58.8821 28.6152C58.751 28.6658 58.6163 28.6902 58.4828 28.6902Z" fill="#BA9317"/>
<path d="M18.7587 28.6902C18.3173 28.6902 17.9002 28.4232 17.7303 27.9862L11.0345 10.768L4.33885 27.9862C4.1181 28.5545 3.4771 28.837 2.91097 28.6152C2.34272 28.3935 2.06135 27.7545 2.28197 27.1862L10.0061 7.32409C10.1716 6.90034 10.5798 6.62122 11.0345 6.62122C11.4891 6.62122 11.8973 6.90034 12.0628 7.32409L19.787 27.1862C20.0077 27.7545 19.7262 28.3933 19.158 28.6152C19.0268 28.6658 18.8922 28.6902 18.7587 28.6902Z" fill="#BA9317"/>
<path d="M60.6898 8.82761H34.207C33.5968 8.82761 33.1035 8.33323 33.1035 7.72411C33.1035 7.11498 33.5968 6.62061 34.207 6.62061H60.6898C61.3 6.62061 61.7933 7.11498 61.7933 7.72411C61.7933 8.33323 61.2999 8.82761 60.6898 8.82761Z" fill="#F0C419"/>
<path d="M27.5863 8.82761H1.1035C0.49325 8.82761 0 8.33323 0 7.72411C0 7.11498 0.49325 6.62061 1.1035 6.62061H27.5863C28.1965 6.62061 28.6898 7.11498 28.6898 7.72411C28.6898 8.33323 28.1965 8.82761 27.5863 8.82761Z" fill="#F0C419"/>
<path d="M34.207 7.72407C34.207 9.55245 32.7251 11.0344 30.8966 11.0344C29.0681 11.0344 27.5863 9.55257 27.5863 7.72407C27.5863 5.89557 29.0683 4.4137 30.8966 4.4137C32.725 4.4137 34.207 5.8957 34.207 7.72407Z" fill="#BA9317"/>
<path d="M30.8967 4.41375C31.7474 4.41375 32.5177 4.74475 33.1036 5.27225V0H28.6898V5.27225C29.2757 4.74487 30.0459 4.41375 30.8967 4.41375Z" fill="#F0C419"/>
<path d="M30.8967 11.0344C30.0459 11.0344 29.2757 10.7034 28.6898 10.1759V59.5862H33.1036V10.1759C32.5177 10.7034 31.7474 11.0344 30.8967 11.0344Z" fill="#F0C419"/>
<path d="M50.7588 33.1035C45.8087 33.1035 41.9312 30.6804 41.9312 27.5863C41.9312 26.9772 42.4244 26.4828 43.0347 26.4828H58.4829C59.0932 26.4828 59.5864 26.9772 59.5864 27.5863C59.5863 30.6803 55.7088 33.1035 50.7588 33.1035Z" fill="#F0C419"/>
<path d="M11.0345 33.1035C6.08441 33.1035 2.20691 30.6804 2.20691 27.5863C2.20691 26.9772 2.70016 26.4828 3.31041 26.4828H18.7587C19.3689 26.4828 19.8622 26.9772 19.8622 27.5863C19.8622 30.6803 15.9847 33.1035 11.0345 33.1035Z" fill="#F0C419"/>
<path d="M43.0345 64.0001H18.7588C18.7588 61.5626 20.735 59.5863 23.1725 59.5863H38.6208C41.0583 59.5863 43.0345 61.5626 43.0345 64.0001Z" fill="#BA9317"/>
</svg>
