<svg width="44" height="45" viewBox="0 0 44 45" fill="none" xmlns="http://www.w3.org/2000/svg">
<circle cx="22" cy="22" r="22" fill="#26B99A"/>
<path d="M19.66 27.296C19.66 26.072 19.804 25.064 20.092 24.272C20.38 23.456 20.728 22.772 21.136 22.22C21.568 21.644 22.024 21.164 22.504 20.78C23.008 20.396 23.464 20.024 23.872 19.664C24.304 19.28 24.664 18.86 24.952 18.404C25.24 17.924 25.384 17.336 25.384 16.64C25.384 15.68 25.084 14.924 24.484 14.372C23.908 13.796 23.08 13.508 22 13.508C20.872 13.508 19.984 13.82 19.336 14.444C18.712 15.068 18.352 15.92 18.256 17H13.72C13.768 15.896 13.984 14.888 14.368 13.976C14.776 13.064 15.328 12.272 16.024 11.6C16.744 10.928 17.584 10.412 18.544 10.052C19.528 9.668 20.62 9.476 21.82 9.476C23.14 9.476 24.304 9.644 25.312 9.98C26.32 10.316 27.16 10.784 27.832 11.384C28.528 11.984 29.044 12.704 29.38 13.544C29.74 14.36 29.92 15.272 29.92 16.28C29.92 17.312 29.776 18.176 29.488 18.872C29.2 19.568 28.828 20.18 28.372 20.708C27.94 21.212 27.46 21.668 26.932 22.076C26.428 22.484 25.948 22.928 25.492 23.408C25.06 23.888 24.7 24.428 24.412 25.028C24.124 25.628 23.98 26.384 23.98 27.296H19.66ZM21.82 35.324C20.98 35.324 20.284 35.048 19.732 34.496C19.204 33.92 18.94 33.236 18.94 32.444C18.94 31.652 19.204 30.98 19.732 30.428C20.284 29.852 20.98 29.564 21.82 29.564C22.66 29.564 23.344 29.852 23.872 30.428C24.424 30.98 24.7 31.652 24.7 32.444C24.7 33.236 24.424 33.92 23.872 34.496C23.344 35.048 22.66 35.324 21.82 35.324Z" fill="white"/>
</svg>
