<svg width="24" height="24" viewBox="0 0 24 24" fill="none" xmlns="http://www.w3.org/2000/svg">
<circle cx="12" cy="12" r="11.5" stroke="white"/>
<path d="M19.6138 15.0635L17.7491 13.1988C17.235 12.6847 16.3984 12.6847 15.8843 13.1988L15.0367 14.0463C14.6473 14.4358 14.0135 14.4357 13.6242 14.0465L9.95037 10.3695C9.55999 9.97914 9.55993 9.3473 9.95037 8.95686C10.0869 8.82034 10.4789 8.42831 10.798 8.10927C11.3098 7.59745 11.3169 6.76352 10.7975 6.24408L8.93324 4.38572C8.41913 3.87165 7.58262 3.87165 7.0699 4.38438C6.68622 4.76471 6.56247 4.8874 6.39044 5.05794C4.53653 6.91182 4.53653 9.92831 6.39035 11.7821L12.2114 17.6062C14.0697 19.4645 17.0773 19.4647 18.9357 17.6062L19.6138 16.9282C20.1279 16.4141 20.1279 15.5776 19.6138 15.0635ZM7.69011 5.00729C7.86147 4.83593 8.14026 4.8359 8.31217 5.00775L10.1764 6.86612C10.3482 7.03788 10.3482 7.31588 10.1764 7.48768L9.86558 7.79846L7.38091 5.31379L7.69011 5.00729ZM12.8331 16.9848L7.012 11.1606C5.57769 9.72628 5.49885 7.47408 6.76954 5.94558L9.24701 8.42304C8.59603 9.161 8.62316 10.2855 9.32866 10.991L13.0024 14.6678C13.0024 14.6678 13.0025 14.6679 13.0025 14.6679C13.7072 15.3727 14.8317 15.4016 15.5705 14.7497L18.0481 17.2272C16.5244 18.4957 14.2773 18.429 12.8331 16.9848ZM18.9922 16.3066L18.6814 16.6174L16.1951 14.1311L16.5059 13.8203C16.6773 13.649 16.9561 13.6489 17.1275 13.8203L18.9922 15.685C19.1636 15.8564 19.1636 16.1353 18.9922 16.3066Z" fill="#ffffff"/>
</svg>
