<svg width="64" height="58" viewBox="0 0 64 58" fill="none" xmlns="http://www.w3.org/2000/svg">
<path d="M63.2273 36.5967C64.0815 35.8883 64.2557 34.6326 63.6081 33.73C62.2266 31.8056 61.0801 31.3487 56.2758 33.8735L46.7034 39.7239C43.7793 41.2787 36.1049 40.8274 32.7924 40.8274C32.7924 40.8274 40.607 41.3559 37.4898 36.7017C35.9383 34.3867 33.2635 33.0725 30.4752 33.0725H26.1717C23.6636 33.0725 21.1875 32.3266 19.1847 30.816C14.5105 27.2916 5.51746 27.5862 5.51746 27.5862V54.0688H20.9656C23.1692 54.0688 25.3695 53.9022 27.5487 53.5712L41.931 51.3842C42.422 51.3842 42.8987 51.3268 43.36 51.2242L43.3831 51.2208C44.5461 51.0565 45.6098 50.4684 46.4595 49.6551L63.2273 36.5967Z" fill="#FAC176"/>
<path d="M34.207 41.9307H23.4839C22.8736 41.9307 22.3804 41.4364 22.3804 40.8272C22.3804 40.2181 22.8736 39.7238 23.4839 39.7238H34.207C34.8173 39.7238 35.3105 40.2181 35.3105 40.8272C35.3104 41.4365 34.8172 41.9307 34.207 41.9307Z" fill="#F18D46"/>
<path d="M0 57.3791H5.51722V24.2758H0V57.3791Z" fill="#4482C3"/>
<path d="M19.0703 45.241C18.46 45.241 17.9668 44.7466 17.9668 44.1375C17.9668 41.3734 20.0291 39.7238 23.484 39.7238C24.0942 39.7238 24.5875 40.2181 24.5875 40.8272C24.5875 41.4364 24.0942 41.9307 23.484 41.9307C20.1736 41.9307 20.1736 43.5915 20.1736 44.1376C20.1736 44.7466 19.6804 45.241 19.0703 45.241Z" fill="#F18D46"/>
<path d="M57.3793 24.2757H19.8623C18.644 24.2757 17.6554 23.287 17.6554 22.0689V2.20686C17.6554 0.988619 18.6441 0 19.8623 0H57.3793C58.5975 0 59.5861 0.988744 59.5861 2.20686V22.0689C59.5861 23.287 58.5975 24.2757 57.3793 24.2757Z" fill="#13A085"/>
<path d="M17.655 9.93093H59.5859V5.51721H17.655V9.93093Z" fill="#11705E"/>
<path d="M30.8967 16.5517H24.2761C23.6659 16.5517 23.1726 16.0573 23.1726 15.4482C23.1726 14.8391 23.6659 14.3447 24.2761 14.3447H30.8968C31.5071 14.3447 32.0003 14.8391 32.0003 15.4482C32.0002 16.0573 31.5069 16.5517 30.8967 16.5517Z" fill="#11705E"/>
<path d="M37.5174 16.5517H35.3105C34.7003 16.5517 34.207 16.0573 34.207 15.4482C34.207 14.8391 34.7003 14.3447 35.3105 14.3447H37.5174C38.1276 14.3447 38.6209 14.8391 38.6209 15.4482C38.6208 16.0573 38.1275 16.5517 37.5174 16.5517Z" fill="#11705E"/>
<path d="M54.0689 19.8621H47.4482C46.838 19.8621 46.3447 19.3677 46.3447 18.7586V16.5517C46.3447 15.9426 46.838 15.4482 47.4482 15.4482H54.0689C54.6792 15.4482 55.1724 15.9426 55.1724 16.5517V18.7586C55.1724 19.3677 54.6792 19.8621 54.0689 19.8621Z" fill="#11705E"/>
</svg>
