<svg width="58" height="64" viewBox="0 0 58 64" fill="none" xmlns="http://www.w3.org/2000/svg">
<path d="M41.8675 64H57.3157V0H41.8675V64Z" fill="#8697CB"/>
<path d="M49.5919 50.7586C48.3748 50.7586 47.385 51.7484 47.385 52.9655C47.385 54.1826 48.3748 55.1724 49.5919 55.1724C50.809 55.1724 51.7988 54.1826 51.7988 52.9655C51.7988 51.7484 50.809 50.7586 49.5919 50.7586ZM49.5919 57.3793C47.1577 57.3793 45.1782 55.3996 45.1782 52.9655C45.1782 50.5313 47.1578 48.5518 49.5919 48.5518C52.0262 48.5518 54.0057 50.5314 54.0057 52.9655C54.0057 55.3998 52.0262 57.3793 49.5919 57.3793Z" fill="#556080"/>
<path d="M52.9022 22.0689H46.2815C45.6724 22.0689 45.178 21.5757 45.178 20.9654C45.178 20.3552 45.6724 19.8619 46.2815 19.8619H52.9022C53.5114 19.8619 54.0057 20.3552 54.0057 20.9654C54.0057 21.5757 53.5114 22.0689 52.9022 22.0689Z" fill="#556080"/>
<path d="M52.9022 17.6551H46.2815C45.6724 17.6551 45.178 17.1619 45.178 16.5516C45.178 15.9414 45.6724 15.4481 46.2815 15.4481H52.9022C53.5114 15.4481 54.0057 15.9414 54.0057 16.5516C54.0056 17.1619 53.5114 17.6551 52.9022 17.6551Z" fill="#556080"/>
<path d="M52.9022 13.2413H46.2815C45.6724 13.2413 45.178 12.7481 45.178 12.1378C45.178 11.5276 45.6724 11.0343 46.2815 11.0343H52.9022C53.5114 11.0343 54.0057 11.5276 54.0057 12.1378C54.0057 12.7481 53.5114 13.2413 52.9022 13.2413Z" fill="#556080"/>
<path d="M52.9022 8.82761H46.2815C45.6724 8.82761 45.178 8.33436 45.178 7.72411C45.178 7.11386 45.6724 6.62061 46.2815 6.62061H52.9022C53.5114 6.62061 54.0057 7.11386 54.0057 7.72411C54.0057 8.33436 53.5114 8.82761 52.9022 8.82761Z" fill="#556080"/>
<path d="M26.4193 64H41.8675V0H26.4193V64Z" fill="#556080"/>
<path d="M34.1437 50.7586C32.9266 50.7586 31.9369 51.7484 31.9369 52.9655C31.9369 54.1826 32.9266 55.1724 34.1437 55.1724C35.3609 55.1724 36.3506 54.1826 36.3506 52.9655C36.3506 51.7484 35.3609 50.7586 34.1437 50.7586ZM34.1437 57.3793C31.7095 57.3793 29.73 55.3996 29.73 52.9655C29.73 50.5313 31.7096 48.5518 34.1437 48.5518C36.5779 48.5518 38.5575 50.5314 38.5575 52.9655C38.5575 55.3998 36.5779 57.3793 34.1437 57.3793Z" fill="#8697CB"/>
<path d="M37.454 22.0689H30.8333C30.2242 22.0689 29.7298 21.5757 29.7298 20.9654C29.7298 20.3552 30.2242 19.8619 30.8333 19.8619H37.454C38.0632 19.8619 38.5575 20.3552 38.5575 20.9654C38.5575 21.5757 38.063 22.0689 37.454 22.0689Z" fill="#8697CB"/>
<path d="M37.454 17.6551H30.8333C30.2242 17.6551 29.7298 17.1619 29.7298 16.5516C29.7298 15.9414 30.2242 15.4481 30.8333 15.4481H37.454C38.0632 15.4481 38.5575 15.9414 38.5575 16.5516C38.5574 17.1619 38.063 17.6551 37.454 17.6551Z" fill="#8697CB"/>
<path d="M37.454 13.2413H30.8333C30.2242 13.2413 29.7298 12.7481 29.7298 12.1378C29.7298 11.5276 30.2242 11.0343 30.8333 11.0343H37.454C38.0632 11.0343 38.5575 11.5276 38.5575 12.1378C38.5575 12.7481 38.063 13.2413 37.454 13.2413Z" fill="#8697CB"/>
<path d="M37.454 8.82761H30.8333C30.2242 8.82761 29.7298 8.33436 29.7298 7.72411C29.7298 7.11386 30.2242 6.62061 30.8333 6.62061H37.454C38.0632 6.62061 38.5575 7.11386 38.5575 7.72411C38.5575 8.33436 38.063 8.82761 37.454 8.82761Z" fill="#8697CB"/>
<path d="M15.1944 64L0 61.2138L11.2242 0.00439453L26.4197 2.79064L15.1944 64Z" fill="#8697CB"/>
<path d="M9.58293 49.5452C9.1393 49.5452 8.7068 49.6787 8.3338 49.9358C7.8483 50.2713 7.5228 50.7745 7.4168 51.356C7.19718 52.5532 7.9928 53.7052 9.18893 53.9248C9.7693 54.0318 10.3564 53.905 10.8408 53.5696C11.3263 53.2352 11.6518 52.7321 11.7589 52.1506C11.9774 50.9533 11.1829 49.8013 9.98568 49.5817C9.85105 49.5573 9.71643 49.5452 9.58293 49.5452ZM9.59618 56.1681C9.32918 56.1681 9.05993 56.1438 8.7918 56.0952C6.3973 55.6561 4.8073 53.351 5.24643 50.9565C5.4583 49.7978 6.11043 48.7893 7.0803 48.1206C8.05018 47.4508 9.22543 47.1992 10.3841 47.4111C12.7774 47.8502 14.3676 50.1553 13.9283 52.5498C13.7164 53.7085 13.0654 54.717 12.0944 55.3857C11.3496 55.9011 10.4833 56.1681 9.59618 56.1681Z" fill="#556080"/>
<path d="M18.2186 24.1496C18.1524 24.1496 18.0851 24.1441 18.0177 24.1309L11.5062 22.9359C10.9071 22.8266 10.5099 22.2506 10.6201 21.6515C10.7305 21.0524 11.3054 20.6506 11.9045 20.7665L18.417 21.9615C19.0161 22.0708 19.4134 22.6468 19.302 23.2459C19.2051 23.7778 18.7416 24.1496 18.2186 24.1496Z" fill="#556080"/>
<path d="M19.015 19.8082C18.9487 19.8082 18.8826 19.8027 18.8152 19.7894L12.3027 18.5956C11.7036 18.4863 11.3075 17.9114 11.4166 17.3112C11.527 16.7121 12.1007 16.3103 12.701 16.4262L19.2125 17.6201C19.8127 17.7293 20.2088 18.3042 20.0986 18.9044C20.0015 19.4363 19.538 19.8082 19.015 19.8082Z" fill="#556080"/>
<path d="M19.8114 15.4665C19.7451 15.4665 19.679 15.461 19.6116 15.4478L13.0991 14.2539C12.5 14.1447 12.1028 13.5698 12.213 12.9695C12.3223 12.3714 12.8971 11.9698 13.4963 12.0845L20.0088 13.2784C20.609 13.3877 21.0051 13.9625 20.8949 14.5628C20.7979 15.0935 20.3344 15.4665 19.8114 15.4665Z" fill="#556080"/>
<path d="M20.6072 11.125C20.5409 11.125 20.4748 11.1195 20.4074 11.1062L13.8949 9.91233C13.2958 9.80308 12.8997 9.2282 13.0088 8.62795C13.1192 8.02883 13.6929 7.62933 14.2932 7.74295L20.8047 8.93683C21.4049 9.04608 21.801 9.62095 21.6908 10.2212C21.5937 10.7531 21.1303 11.125 20.6072 11.125Z" fill="#556080"/>
<path d="M49.592 44.1377C48.9828 44.1377 48.4885 43.6444 48.4885 43.0342V27.586C48.4885 26.9758 48.9828 26.4825 49.592 26.4825C50.2011 26.4825 50.6955 26.9758 50.6955 27.586V43.0343C50.6955 43.6445 50.2011 44.1377 49.592 44.1377Z" fill="#556080"/>
<path d="M34.1437 44.1379C33.5346 44.1379 33.0402 43.6447 33.0402 43.0344V27.5863C33.0402 26.976 33.5346 26.4828 34.1437 26.4828C34.7528 26.4828 35.2472 26.976 35.2472 27.5863V43.0345C35.2471 43.6448 34.7528 44.1379 34.1437 44.1379Z" fill="#8697CB"/>
<path d="M10.8376 44.8372C10.7714 44.8372 10.7053 44.8317 10.6379 44.8185C10.0376 44.7092 9.6415 44.1344 9.75175 43.5341L12.538 28.3396C12.6484 27.7405 13.2199 27.3399 13.8224 27.4535C14.4215 27.5639 14.8176 28.1376 14.7085 28.7379L11.9213 43.9335C11.8241 44.4654 11.3608 44.8372 10.8376 44.8372Z" fill="#556080"/>
</svg>
