<svg width="64" height="64" viewBox="0 0 64 64" fill="none" xmlns="http://www.w3.org/2000/svg">
<path d="M46.5819 53.452L37.9995 55.7923L40.3398 47.2099L50.7573 36.7915V13.2424H37.5162V0.00134277H0V63.9996H50.7573V49.2766L46.5819 53.452Z" fill="#ECF0F1"/>
<path d="M14.3443 49.6538C14.3443 50.264 13.8511 50.7572 13.2408 50.7572C12.6306 50.7572 12.1374 50.264 12.1374 49.6538C12.1374 49.0435 12.6306 48.5503 13.2408 48.5503C13.8511 48.5503 14.3443 49.0437 14.3443 49.6538Z" fill="#BDC3C7"/>
<path d="M50.7571 13.241H37.5161V0L50.7571 13.241Z" fill="#BDC3C7"/>
<path d="M30.8956 11.0342H6.62038C6.01014 11.0342 5.51691 10.541 5.51691 9.93074C5.51691 9.32051 6.01014 8.82727 6.62038 8.82727H30.8956C31.5058 8.82727 31.9991 9.32051 31.9991 9.93074C31.999 10.541 31.5058 11.0342 30.8956 11.0342Z" fill="#BDC3C7"/>
<path d="M35.3092 19.8616H6.62038C6.01014 19.8616 5.51691 19.3684 5.51691 18.7581C5.51691 18.1479 6.01014 17.6547 6.62038 17.6547H35.3092C35.9195 17.6547 36.4127 18.1479 36.4127 18.7581C36.4127 19.3684 35.9195 19.8616 35.3092 19.8616Z" fill="#BDC3C7"/>
<path d="M44.1366 28.6889H6.62038C6.01014 28.6889 5.51691 28.1956 5.51691 27.5854C5.51691 26.9752 6.01014 26.4819 6.62038 26.4819H44.1366C44.7469 26.4819 45.2401 26.9752 45.2401 27.5854C45.2401 28.1956 44.7469 28.6889 44.1366 28.6889Z" fill="#BDC3C7"/>
<path d="M44.1366 37.5163H6.62038C6.01014 37.5163 5.51691 37.023 5.51691 36.4128C5.51691 35.8026 6.01014 35.3093 6.62038 35.3093H44.1366C44.7469 35.3093 45.2401 35.8026 45.2401 36.4128C45.24 37.023 44.7469 37.5163 44.1366 37.5163Z" fill="#BDC3C7"/>
<path d="M8.82719 50.7572H6.62038C6.01014 50.7572 5.51691 50.264 5.51691 49.6538C5.51691 49.0435 6.01014 48.5503 6.62038 48.5503H8.82719C9.43743 48.5503 9.93066 49.0435 9.93066 49.6538C9.93066 50.264 9.43743 50.7572 8.82719 50.7572Z" fill="#BDC3C7"/>
<path d="M19.8614 55.1708C18.0363 55.1708 16.5511 53.6856 16.5511 51.8605C16.5511 51.2503 17.0444 50.757 17.6546 50.757C18.2648 50.757 18.7581 51.2503 18.7581 51.8605C18.7581 52.4696 19.2524 52.964 19.8615 52.964C20.4706 52.964 20.965 52.4696 20.965 51.8605C20.965 51.2514 20.4706 50.757 19.8615 50.757C18.0365 50.757 16.5512 49.2718 16.5512 47.4468C16.5512 45.6217 18.0365 44.1365 19.8615 44.1365C21.6866 44.1365 23.1718 45.6217 23.1718 47.4468C23.1718 48.057 22.6786 48.5502 22.0683 48.5502C21.4581 48.5502 20.9649 48.057 20.9649 47.4468C20.9649 46.8377 20.4705 46.3433 19.8614 46.3433C19.2523 46.3433 18.7579 46.8377 18.7579 47.4468C18.7579 48.0559 19.2523 48.5502 19.8614 48.5502C21.6865 48.5502 23.1717 50.0354 23.1717 51.8605C23.1717 53.6856 21.6865 55.1708 19.8614 55.1708Z" fill="#26B99A"/>
<path d="M19.8614 56.2743C19.2512 56.2743 18.7579 55.781 18.7579 55.1708V54.0673C18.7579 53.4571 19.2512 52.9639 19.8614 52.9639C20.4716 52.9639 20.9649 53.4571 20.9649 54.0673V55.1708C20.9649 55.781 20.4716 56.2743 19.8614 56.2743Z" fill="#26B99A"/>
<path d="M19.8614 46.3436C19.2512 46.3436 18.7579 45.8504 18.7579 45.2401V44.1367C18.7579 43.5264 19.2512 43.0332 19.8614 43.0332C20.4716 43.0332 20.9649 43.5264 20.9649 44.1367V45.2401C20.9649 45.8504 20.4716 46.3436 19.8614 46.3436Z" fill="#26B99A"/>
<path d="M46.5816 53.4513L37.9992 55.7916L40.3395 47.2092L57.1148 30.4339C57.9699 29.5788 59.357 29.5788 60.2132 30.4339L63.3569 33.5776C64.212 34.4338 64.212 35.8198 63.3569 36.676L46.5816 53.4513Z" fill="#F0C419"/>
<path d="M58.6631 41.3685L52.4222 35.1276L53.9824 33.5674L60.2233 39.8083L58.6631 41.3685Z" fill="#FB7B76"/>
<path d="M37.2187 57.6753C36.9362 57.6753 36.6537 57.5672 36.4386 57.352C36.0071 56.9206 36.0071 56.2232 36.4386 55.7918L37.2187 55.0117C37.6502 54.5802 38.3475 54.5802 38.7789 55.0117C39.2104 55.4432 39.2104 56.1406 38.7789 56.5719L37.9988 57.352C37.7837 57.567 37.5012 57.6753 37.2187 57.6753Z" fill="black"/>
</svg>
