<svg width="64" height="58" fill="none" xmlns="http://www.w3.org/2000/svg"><path d="M63.227 36.597a2.125 2.125 0 00.381-2.867c-1.381-1.924-2.528-2.381-7.332.144l-9.573 5.85c-2.924 1.555-10.598 1.103-13.91 1.103 0 0 7.814.529 4.697-4.125-1.552-2.315-4.227-3.63-7.015-3.63h-4.303c-2.508 0-4.985-.745-6.987-2.256-4.674-3.524-13.668-3.23-13.668-3.23V54.07h15.449c2.203 0 4.403-.167 6.583-.498l14.382-2.187a6.54 6.54 0 001.429-.16l.023-.003c1.163-.164 2.227-.753 3.076-1.566l16.768-13.058z" fill="#FAC176"/><path d="M34.207 41.93H23.484a1.103 1.103 0 110-2.206h10.723a1.103 1.103 0 110 2.207z" fill="#F18D46"/><path d="M0 57.38h5.517V24.275H0v33.103z" fill="#4482C3"/><path d="M19.07 45.241c-.61 0-1.103-.494-1.103-1.103 0-2.765 2.062-4.414 5.517-4.414a1.103 1.103 0 110 2.207c-3.31 0-3.31 1.66-3.31 2.207 0 .609-.494 1.103-1.104 1.103z" fill="#F18D46"/><path d="M57.38 24.276H19.861a2.208 2.208 0 01-2.207-2.207V2.207c0-1.218.99-2.207 2.207-2.207H57.38c1.218 0 2.207.989 2.207 2.207v19.862a2.208 2.208 0 01-2.207 2.207z" fill="#13A085"/><path d="M17.655 9.93h41.93V5.518h-41.93v4.414zm13.242 6.622h-6.62a1.103 1.103 0 110-2.207h6.62a1.103 1.103 0 110 2.207zm6.62 0H35.31a1.103 1.103 0 110-2.207h2.207a1.103 1.103 0 110 2.207zm16.552 3.31h-6.62a1.103 1.103 0 01-1.104-1.103v-2.207c0-.61.493-1.104 1.103-1.104h6.62c.611 0 1.104.495 1.104 1.104v2.207c0 .609-.493 1.103-1.103 1.103z" fill="#11705E"/></svg>