<svg width="21" height="21" fill="none" xmlns="http://www.w3.org/2000/svg"><path d="M20.46 15.489l-2.61-2.61a1.848 1.848 0 00-2.611 0l-1.187 1.186a1.4 1.4 0 01-1.978 0L6.931 8.917a1.398 1.398 0 010-1.977c.19-.192.74-.74 1.186-1.187a1.845 1.845 0 000-2.611L5.507.54A1.847 1.847 0 002.898.538l-.951.943a6.664 6.664 0 000 9.414l8.15 8.154a6.653 6.653 0 009.414 0l.95-.95c.719-.72.719-1.89 0-2.61zM3.766 1.41c.24-.24.63-.24.871 0l2.61 2.603c.24.24.24.63 0 .87l-.435.435-3.479-3.479.433-.429zm7.2 16.769l-8.15-8.154a5.41 5.41 0 01-.339-7.301l3.47 3.468a2.626 2.626 0 00.113 3.595l5.144 5.148a2.627 2.627 0 003.595.115l3.47 3.468a5.4 5.4 0 01-7.302-.34zm8.624-.95l-.435.435-3.481-3.48.435-.436c.24-.24.63-.24.87 0l2.61 2.611c.24.24.24.63.001.87z" fill="#fff"/></svg>