<svg width="62" height="64" fill="none" xmlns="http://www.w3.org/2000/svg"><path d="M58.483 28.69c-.441 0-.859-.267-1.028-.704l-6.696-17.218-6.696 17.218a1.104 1.104 0 11-2.057-.8L49.73 7.324a1.104 1.104 0 012.057 0l7.724 19.862a1.105 1.105 0 01-1.028 1.504zm-39.724 0c-.442 0-.859-.267-1.029-.704l-6.696-17.218L4.34 27.986a1.103 1.103 0 11-2.057-.8l7.724-19.862a1.104 1.104 0 012.057 0l7.724 19.862a1.105 1.105 0 01-1.028 1.504z" fill="#BA9317"/><path d="M60.69 8.828H34.207a1.103 1.103 0 110-2.207H60.69a1.103 1.103 0 110 2.207zm-33.104 0H1.104a1.103 1.103 0 110-2.207h26.482a1.103 1.103 0 110 2.207z" fill="#F0C419"/><path d="M34.207 7.724a3.31 3.31 0 11-6.62 0 3.31 3.31 0 016.62 0z" fill="#BA9317"/><path d="M30.897 4.414c.85 0 1.62.33 2.207.858V0H28.69v5.272a3.29 3.29 0 012.207-.858zm0 6.62a3.29 3.29 0 01-2.207-.858v49.41h4.414v-49.41a3.29 3.29 0 01-2.207.858zm19.862 22.069c-4.95 0-8.828-2.423-8.828-5.517 0-.609.493-1.103 1.104-1.103h15.448c.61 0 1.103.494 1.103 1.103 0 3.094-3.877 5.517-8.827 5.517zm-39.725 0c-4.95 0-8.827-2.423-8.827-5.517 0-.609.493-1.103 1.103-1.103h15.45c.61 0 1.103.494 1.103 1.103 0 3.094-3.877 5.517-8.827 5.517z" fill="#F0C419"/><path d="M43.035 64H18.759a4.414 4.414 0 014.413-4.414h15.449A4.414 4.414 0 0143.034 64z" fill="#BA9317"/></svg>