<svg width="44" height="45" fill="none" xmlns="http://www.w3.org/2000/svg"><circle cx="22" cy="22" r="22" fill="#26B99A"/><path d="M19.66 27.296c0-1.224.144-2.232.432-3.024.288-.816.636-1.5 1.044-2.052a7.891 7.891 0 011.368-1.44c.504-.384.96-.756 1.368-1.116a5.905 5.905 0 001.08-1.26c.288-.48.432-1.068.432-1.764 0-.96-.3-1.716-.9-2.268-.576-.576-1.404-.864-2.484-.864-1.128 0-2.016.312-2.664.936-.624.624-.984 1.476-1.08 2.556H13.72c.048-1.104.264-2.112.648-3.024a7.555 7.555 0 011.656-2.376 7.52 7.52 0 012.52-1.548c.984-.384 2.076-.576 3.276-.576 1.32 0 2.484.168 3.492.504 1.008.336 1.848.804 2.52 1.404.696.6 1.212 1.32 1.548 2.16.36.816.54 1.728.54 2.736 0 1.032-.144 1.896-.432 2.592a6.707 6.707 0 01-1.116 1.836c-.432.504-.912.96-1.44 1.368-.504.408-.984.852-1.44 1.332a6.814 6.814 0 00-1.08 1.62c-.288.6-.432 1.356-.432 2.268h-4.32zm2.16 8.028c-.84 0-1.536-.276-2.088-.828a2.934 2.934 0 01-.792-2.052c0-.792.264-1.464.792-2.016.552-.576 1.248-.864 2.088-.864.84 0 1.524.288 2.052.864.552.552.828 1.224.828 2.016s-.276 1.476-.828 2.052c-.528.552-1.212.828-2.052.828z" fill="#fff"/></svg>