<svg width="58" height="64" fill="none" xmlns="http://www.w3.org/2000/svg"><path d="M41.867 64h15.449V0H41.867v64z" fill="#8697CB"/><path d="M49.592 50.759a2.21 2.21 0 00-2.207 2.206 2.21 2.21 0 002.207 2.207 2.21 2.21 0 002.207-2.206 2.21 2.21 0 00-2.207-2.207zm0 6.62a4.418 4.418 0 01-4.414-4.413 4.418 4.418 0 014.414-4.414 4.418 4.418 0 014.414 4.413 4.418 4.418 0 01-4.414 4.414zm3.31-35.31h-6.62a1.103 1.103 0 110-2.207h6.62a1.103 1.103 0 110 2.207zm0-4.414h-6.62a1.103 1.103 0 110-2.207h6.62a1.103 1.103 0 110 2.207zm0-4.414h-6.62a1.103 1.103 0 110-2.207h6.62a1.103 1.103 0 110 2.207zm0-4.413h-6.62a1.103 1.103 0 110-2.207h6.62a1.103 1.103 0 110 2.207zM26.42 64h15.447V0H26.42v64z" fill="#556080"/><path d="M34.144 50.759a2.21 2.21 0 00-2.207 2.206c0 1.218.99 2.207 2.207 2.207a2.21 2.21 0 002.207-2.206 2.21 2.21 0 00-2.207-2.207zm0 6.62a4.418 4.418 0 01-4.414-4.413 4.418 4.418 0 014.414-4.414 4.418 4.418 0 014.413 4.413 4.418 4.418 0 01-4.413 4.414zm3.31-35.31h-6.62a1.103 1.103 0 110-2.207h6.62a1.103 1.103 0 110 2.207zm0-4.414h-6.62a1.103 1.103 0 110-2.207h6.62a1.103 1.103 0 110 2.207zm0-4.414h-6.62a1.103 1.103 0 110-2.207h6.62a1.103 1.103 0 110 2.207zm0-4.413h-6.62a1.103 1.103 0 110-2.207h6.62a1.103 1.103 0 110 2.207zM15.194 64L0 61.214 11.224.004 26.42 2.791 15.194 64z" fill="#8697CB"/><path d="M9.583 49.545c-.444 0-.876.134-1.25.39a2.21 2.21 0 00.855 3.989 2.187 2.187 0 001.653-.354 2.21 2.21 0 00-1.258-4.024zm.013 6.623a4.42 4.42 0 01-4.35-5.212 4.381 4.381 0 011.834-2.835 4.39 4.39 0 013.304-.71 4.42 4.42 0 013.544 5.139 4.377 4.377 0 01-1.834 2.836 4.375 4.375 0 01-2.498.782zm8.623-32.018a.979.979 0 01-.201-.02l-6.512-1.194a1.103 1.103 0 11.399-2.17l6.512 1.196c.6.109.996.685.885 1.284-.097.532-.56.904-1.083.904zm.796-4.342a.981.981 0 01-.2-.019l-6.512-1.193a1.103 1.103 0 11.398-2.17l6.511 1.194a1.102 1.102 0 01-.197 2.188zm.796-4.342c-.066 0-.132-.005-.2-.018L13.1 14.254a1.103 1.103 0 01.397-2.17l6.513 1.194a1.102 1.102 0 01-.198 2.188zm.796-4.341a.981.981 0 01-.2-.019l-6.512-1.194a1.103 1.103 0 11.398-2.17l6.512 1.195a1.102 1.102 0 01-.198 2.188zm28.985 33.013c-.61 0-1.103-.494-1.103-1.104V27.586a1.103 1.103 0 112.207 0v15.448c0 .61-.495 1.104-1.104 1.104z" fill="#556080"/><path d="M34.144 44.138c-.61 0-1.104-.493-1.104-1.104V27.586a1.103 1.103 0 112.207 0v15.449c0 .61-.494 1.103-1.103 1.103z" fill="#8697CB"/><path d="M10.838 44.837a1.102 1.102 0 01-1.086-1.303l2.786-15.194a1.104 1.104 0 012.17.398l-2.787 15.196c-.097.531-.56.903-1.083.903z" fill="#556080"/></svg>