<svg width="64" height="64" fill="none" xmlns="http://www.w3.org/2000/svg"><path d="M46.582 53.452l-8.583 2.34 2.34-8.582 10.419-10.42V13.242h-13.24V.002H0V64h50.757V49.277l-4.175 4.175z" fill="#ECF0F1"/><path d="M14.344 49.654a1.102 1.102 0 11-2.207 0 1.102 1.102 0 112.207 0zm36.413-36.413h-13.24V0l13.24 13.241zm-19.861-2.207H6.62a1.102 1.102 0 110-2.207h24.276a1.102 1.102 0 110 2.207zm4.414 8.828H6.62a1.102 1.102 0 110-2.207h28.69a1.102 1.102 0 110 2.207zm8.827 8.827H6.62a1.102 1.102 0 110-2.207h37.517a1.102 1.102 0 110 2.207zm0 8.827H6.62a1.102 1.102 0 110-2.207h37.517a1.102 1.102 0 110 2.207zM8.827 50.757H6.62a1.102 1.102 0 110-2.207h2.207a1.102 1.102 0 110 2.207z" fill="#BDC3C7"/><path d="M19.861 55.17a3.314 3.314 0 01-3.31-3.31 1.103 1.103 0 112.207 0 1.104 1.104 0 101.104-1.103 3.314 3.314 0 01-3.31-3.31 3.314 3.314 0 013.31-3.31 3.314 3.314 0 013.31 3.31 1.102 1.102 0 11-2.207 0 1.104 1.104 0 10-1.104 1.103 3.314 3.314 0 013.31 3.31 3.314 3.314 0 01-3.31 3.31z" fill="#26B99A"/><path d="M19.861 56.274c-.61 0-1.103-.493-1.103-1.103v-1.104a1.102 1.102 0 112.207 0v1.104c0 .61-.493 1.103-1.104 1.103zm0-9.93c-.61 0-1.103-.494-1.103-1.104v-1.103a1.102 1.102 0 112.207 0v1.103c0 .61-.493 1.104-1.104 1.104z" fill="#26B99A"/><path d="M46.582 53.451l-8.583 2.34 2.34-8.582 16.776-16.775a2.192 2.192 0 013.098 0l3.144 3.144a2.192 2.192 0 010 3.098L46.582 53.451z" fill="#F0C419"/><path d="M58.663 41.368l-6.24-6.24 1.56-1.56 6.24 6.24-1.56 1.56z" fill="#FB7B76"/><path d="M37.219 57.675a1.102 1.102 0 01-.78-1.883l.78-.78a1.102 1.102 0 111.56 1.56l-.78.78a1.1 1.1 0 01-.78.323z" fill="#000"/></svg>