<svg width="24" height="24" fill="none" xmlns="http://www.w3.org/2000/svg"><circle cx="12" cy="12" r="11.5" stroke="#26B99A"/><path d="M19.614 15.063L17.749 13.2a1.32 1.32 0 00-1.865 0l-.847.847a1 1 0 01-1.413 0L9.95 10.37a.998.998 0 010-1.413l.848-.848a1.318 1.318 0 000-1.865L8.932 4.386a1.32 1.32 0 00-1.863-.002l-.68.674a4.76 4.76 0 000 6.724l5.821 5.824a4.752 4.752 0 006.725 0l.678-.678a1.32 1.32 0 000-1.865zM7.69 5.008a.44.44 0 01.622 0l1.864 1.86a.44.44 0 010 .62l-.31.311L7.38 5.314l.31-.307zm5.143 11.978L7.012 11.16a3.864 3.864 0 01-.242-5.215l2.477 2.477a1.876 1.876 0 00.082 2.568l3.673 3.677c.705.705 1.83.734 2.568.082l2.478 2.477a3.857 3.857 0 01-5.215-.242zm6.16-.678l-.312.31-2.486-2.486.31-.31a.44.44 0 01.623 0l1.864 1.864a.44.44 0 010 .622z" fill="#26B99A"/></svg>