<svg width="24" height="24" fill="none" xmlns="http://www.w3.org/2000/svg"><circle cx="12" cy="12" r="11.5" stroke="#fff"/><path d="M11.977 4a5.28 5.28 0 00-5.274 5.273c0 .983.272 1.942.787 2.773l4.186 6.746a.44.44 0 00.374.208h.003a.44.44 0 00.374-.214l4.08-6.81a5.267 5.267 0 00.743-2.703A5.28 5.28 0 0011.977 4zm3.775 7.524l-3.709 6.192-3.806-6.133a4.39 4.39 0 01-.66-2.31 4.41 4.41 0 014.4-4.4 4.407 4.407 0 014.397 4.4 4.39 4.39 0 01-.622 2.251z" fill="#fff"/><path d="M11.977 6.637A2.64 2.64 0 009.34 9.273a2.633 2.633 0 002.637 2.637 2.632 2.632 0 002.636-2.637 2.64 2.64 0 00-2.636-2.636zm0 4.4a1.765 1.765 0 01-1.764-1.764 1.77 1.77 0 011.764-1.763c.969 0 1.76.794 1.76 1.763a1.76 1.76 0 01-1.76 1.764z" fill="#fff"/></svg>