<svg width="44" height="60" fill="none" xmlns="http://www.w3.org/2000/svg"><path fill-rule="evenodd" clip-rule="evenodd" d="M21.46 46.812l13.324-9.783v-3.886L21.46 42.927 8.136 33.143v3.886l13.324 9.783z" fill="#fff"/><path fill-rule="evenodd" clip-rule="evenodd" d="M21.46 54.044l17.698-12.995v-5.162L21.46 48.883 3.762 35.887v5.162L21.46 54.044z" fill="#fff"/><path fill-rule="evenodd" clip-rule="evenodd" d="M21.46 60l13.324-9.783V46.33L21.46 56.115 8.136 46.33v3.886L21.46 60zm-.689-42.984c1.032.094 2.073.156 3.05.072.171-.003.622 1.72.624 1.794-.719.002-3.674-1.357-3.674-1.866zm-1.334 6.173v.057c1.207.48 2.954 1.98 4.561-.207.372-.507.807-.951.966-.955 0 .896-1.094 2.53-1.887 3.125v.076c.378-.008 1.389-1.156 1.581-1.391-.041.261-.514 1.271-.685 1.467.192-.004.412-.593.61-.61 0 2.335-.125 4.625-.185 6.916-.058 2.16.414 4.194.414 6.27.118.031.04.186.019.267h-.076v.038c-.17 0-.32.038-.496.038-.053-.132-.803-.007-.904-.33-.114-.37-.242-2.172-.259-2.605-.098-.035-.54-5.112-.61-5.83-.074-.706-.266-1.442-.228-2.153h-.038c-.023-.247-.04-.855-.181-1.053l-.023.005c.129 3.205.375 6.38.375 9.565 0 .417.057.736.057 1.143-.83-.1-.959-.19-1.349-.887l-.019.01-.024-.132H21a.614.614 0 00-.225-.408c-.047.127-.368.198-.518.198-.31 0-.511-.226-.648-.229-.032-.137-.34-.34-.458-.42-.422-.128-.209.11-.866-.266a3.158 3.158 0 01-.01.02v-.077h-.096l-.29-.337-.014.013v-.133l-.076.023c0-.49.056-.955.061-1.452.034-3.243-.595-6.377-.694-9.544-.04-1.275-.024-2.533.49-3.707.143-.327.32-.535.504-.277.628.574 1.945 1.931 3.469 1.848 1.295-.071.616.438.043.532-.375.062-.593-.074-.792-.09 1.15.936 1.977-.373 2.306-.344-.31 1.115-1.999 1.519-3 1.033l-.019.023c1.347 1.635 3.052-.107 3.863-1.04 0 .38-.091.984-.426 1.46-1.235 1.753-2.462.902-4.167.35zm4.498-9.584h.038c0-.097-.017-.157-.038-.248-.385.009-.705 2.24-.705 2.401.25-.066.365-1.111.533-1.2l.172-.953zm-3.564 3.982c0-.062-.134-.225-.27-.353a21.278 21.278 0 01-1.193-1.247c-.978-1.136-1.358-2.489-1.32-4.306l-.018-.016c-.43.48-.285 1.802-.286 2.417-.192 0-1.3-.748-1.487-.934 0-.099.005-.256.133-.267l-.001-.065-.227.046c-.145.433.167.759.435 1.053l-.016.014c.13.003.869.83 1.086.934.254.181.027 1.92-.076 1.962.018.684-.511 1.155-.707 1.6-.166-.016-.584-.13-.589-.342-.505-.473.115-3.306.115-4.078-.114.041-.274.898-.29 1.028l-.053.001-.216.985.025.007-.056.022c-.012.652-.078 1.307-.119 1.957l.023.002a1.393 1.393 0 01-.31.356c-.49.357-1.087 1.277-1.498 2.057-.186.354-.436.646-.441.902.13-.011 1.603-2.363 2.09-2.664.312-.194.592-.208.597.034 1.146 0-1.351 2.936-1.944 3.03-.009.08-.107.127-.19.133v.058c-.121 0-.457.247-.958.247l-.015-.59c-.069-.047-.126-.038-.21-.038 0-.796.21-.124.21-.591 0-.08-.116-.302-.21-.324-.042-.16-.395-.265-.552-.229-.012.113-.514.46-.286.8.153 0 .229-.028.229.115.11.04.114.266.114.362-.267.03.093.51.153.533v.096h.057c0 .136-.082.152-.21.152l.008.02c-.932.345.113.363.316.476 0 .255-.155.192-.705.149v-.302h-.076c-.103.194-.076.194-.076.476-.032.103-.13.32.038.381 0 .12-.038.231-.038.363l.044.003c.03.106.07.21.07.32.599.343 1.404-.264 1.486-.419.384-.008.61-.679.757-.978.011-.023 2.887-3.629 2.903-3.633 0 .466-.153.852-.153 1.315 0 .456-.076.957-.076 1.41v1.467c0 3.148 1.51 7.528.861 10.73-.028.14-.06.417-.06.53l-.076.022c0 .1.012.113.037.207l.162.056-.01.02c.512.012.344.366.344 1.24h.02c-.11 2.138-.188 3.62-.192 5.753.434.101.233-.1.4.648l.305.6-.019.01h.058l.046.13a.21.21 0 01.144.194c.146.034.2.133.362.133.248 0 .307-.133.458-.133.026-.105.133-.147.152-.248l.095-.057c0-.108.064-.367.185-.439l.025-.304c.102.008.057.029.114.114.21 0 .486.525 2.133.286l.04.271c.987.116 1.053-.445 1.467-.233.575.294.537.61.782.61v.057c.33.083 1.639.366 1.639-.229 0-.442-.523-.647-.705-.99l-.013.022c-.123-.072-.274-.194-.407-.194v-.076c-.353-.094-.238-.862-.228-1.086l.221-2.573c.127-.063.429-.091.446-.247l.077-.016c-.283-2.287-.554-4.309-.427-6.63.072-1.322.2-2.656.312-4.062h.057c0-1.15.168-2.986.4-4.001.684-2.986-.278-5.473-1.124-6.67-.17-.239.8-2.175 1.143-2.686.88 0 1.525-.748 1.525-1.6.166-.06.02-.718.294-.74l.144-.099c0-.079 1.19-.941 1.982-1.564.765-.603.617-.682 1.018-1.504.386-.79.759-1.496.887-2.047.637-.02 1.068-.174 1.068-.81-.203-.047-.243-.022-.282-.102-.269-.561-.477-1.236-.677-1.828a9.293 9.293 0 01-.325-1.17c-.15-.775-.168-1.144-.861-1.79-.237-.22-.502-.423-.76-.628-.13-.103-.298-.2-.405-.28-.253-.19-.502-.041-.73.076-.328.167-.379.473-.064.68-.16.287-.22.397 0 .525-.013.115.07.244.254.287 0 .554-.336.533-.03 1.273l-2.638-.042c-.019.093-.02.152.096.179 0 .307-.254.858-.499 1.43-.21.488-.398 1.01-.569 1.179l-.114-.018a3.008 3.008 0 00-.015.318c.027.918 2.638.84 2.622.055-.002-.1-.015-.2-.015-.259 0-.094-.072-.04-.153-.038-.098-.26-.16-.552-.305-.885-.25-.573-.582-1.216-.567-1.658.322.165 1.907.423 2.306.476.336.044.779-.22 1.158-.22.029-.106.153-.117.153.153-.065.026-.156.51-.187.616l-.023-.006c0 .804-.753 2.113-.607 3.753-1.182 1.085-2.175.976-3.08 1.572-.323.212-.433 3.362-.24 3.821.08.19.257.105.382.095v-.02c.273-.063.606-.615.63-.895h.056c0 .523-.348 1.194-.83 1.409a.075.075 0 01.01.02c-.706 0-.811-.47-1.111-.946-.072-.113-.203-.379-.203-.483-.11-.04-.438-.984-.438-1.143-.063-.022-.134-.245-.134-.343h-.038c0-.168-.19-.616-.19-.82h-.096c-.142.57-.198.78-.087 1.422.142.826.429 2.745.259 3.552h-.038c-.146.764-.387.737-.458.933-.088 0-.446.302-.743.305-.146.002.028-.825.108-1.74.087-1.005.088-2.112.082-2.261h-.038c-.017.759-.312 3.479-.857 4.036-.057.058-.226.068-.724.015.324-.87.8-1.963.8-2.908h-.076c0 .557-.881 3.03-1.544 3.03-.146 0-.276-1.246-.4-1.296-.063-.436-.236-2.553-.515-2.953.076 1.025.45 3.806.267 3.81l-.226-.43-.022.011c0-.111-.032-.199-.114-.228-.128-.38-.4-1.23-.4-1.6h-.038c0-.35-.4-1.67-.4-2.764h-.039c-.002-.268-.006-.533.02-.8.122 0 .175-.087.304-.057 0 1.348 4.193 1.662 4.193.076.106-.088.208-.112.31-.207l.014.017c.2-.859-.165-.533-.172-.857-.008-.32-.057-.146-.152-.296-.898.022-.067-.12-.74-.622-.005-.61-.156-.315-.156-.55l.144-.088c.03-.158.1-.205.116-.446l.14-.023c.08-.21.248-.141.248-.567.126-.046.393-.561.153-.648 0-.1.007-.219.114-.248.039-.532-.076-.469-.076-.686 0-.38.166-.62-.189-.86-.002-.486-.327-.645-.745-.645-.545-.813-1.154-.071-1.181-.4-.386-.027-.699-.107-.98.224-.44.01-.496.075-.717.405-.31.039-.397.188-.513.466a3.463 3.463 0 00-.02-.009v.4c-.417.151-.19.834-.19 1.067-.162.059.01.37.018.457h.057c.003.133.064.128.164.147l.084-.127.172-.02v-.057h-.039v-.247c-.402-.094-.21-.632-.21-.782.284-.15-.151-.609.744-.933l.02-.134c.12-.01.19-.172.454-.17l.022.037h.114c.02-.25.385-.42.629-.42.173 0 .191.077.286.077.108 0 .223-.038.343-.038.243 0 .335.163.523.216l.068.123c.604.084.656.633.625 1.128h.06c.019.079.292.723 0 .8 0-.313.136-.827-.361-.838 0 0-.124-.132-.244-.58-.037.013-.365.07-.34.01-.25-.12-.585-.27-.655-.573-.296.081-.368.476-.858.476-.21.344-.151.395-.8.476-.068.129-.156.56-.305.572 0 .323.097.196.058.807l.415-.046.022-.056c.148 0 .684-.115.744-.229-.309 0-.559.172-.839.172v-.057c.19 0 .664-.305 1.677-.305.249 0 1.42.312 1.449.667-.15 0-.276-.262-.496-.267-.058-.079-.182-.076-.286-.076v.057c-.2 0-.383-.21-.552-.21l-.018-.057c-.128 0-.196-.038-.326-.038v.038c-.12 0-.291.028-.362.134-.186 0-.428.19-.705.19v.038c-.11 0-.373.076-.495.076-.03.085-.166.058-.248.058v.038c2.11-.059 1.278-.85 2.706 0 .104.065.309.015.381.114-.305 0-.497-.114-.667-.114-.094-.26-.81-.42-.934-.115-.079 0-.21.005-.247.096-.043 0-1.346.327-1.633.125-.17.278-.082.572.24.599l.059.362h.057c.011.138.154.114.248.114l-.008.021c.068.027.522.379.522.38 0 .33-.61.25-.61.628 0 .164.038.273.038.438-.244.02-.228.314-.228.477.374.15-.43.481-1.032.673-.418.133-.882.183-1.23.47-.483.396-.647 1.295-.827 1.86.066.016.38-.78.84-1.312.334-.389.748-.55 1.2-.586.015.66.046 1.306.096 1.963.028.38.1.717.195 1.03.183.598.768 2.157 1.508 3.233.646.938 2.947 2.881 4.243 2.881l.047.111c-.454.072-2.17.47-3.798.107-.768-.171-2.79-1.048-2.824-1.952-.366-.577.39-.533.676-.388.878.445 1.715 1.326 2.925 1.07-.315.153-3.611-2.043-3.677-2.282-.07-.25.12-.348.37-.25.652.258 1.357.888 1.942 1.267.214.138.388.234.451.221zm8.534-16.466c-.043.107-.087.22-.163.31-.23.271-.207-.109-.115-.258.127-.206.21-.377.408-.52.104-.077.183-.157.008-.157-.016.044-.124.091-.208.193-.105.127-.191.313-.235.383a.95.95 0 00-.106.218c-.02.056-.132-.083-.074-.245.103-.29.387-.598.508-.644.027-.095.02-.076-.076-.076-.114.114-.226.102-.269.2-.016.037.016.069-.006.112-.043.082-.149.148-.223-.021-.123-.28.585-.555.812-.369.449.368.94.773 1.343 1.19.369.381.421 1.014.401 1.517l-1.979-.025c-.377-.004.037-.289-.08-1.06.114.009.25.02.287-.134.197.004.387.495.82.495.17 0 .44-.056.476-.19-.585 0-.748-.238-1.104-.673l.008-.028c-.181.087-.278.284-.314.327-.13.158-.189.068-.18-.093a.7.7 0 01.129-.332 1.2 1.2 0 01.208-.247c.05-.045.345-.126.14-.198-.127-.045-.383.207-.416.325zm-5.008 41.846c-.094-.14-.266-.172-.375-.276-.026.076-.051.066-.12.066.044-.107.071-.168.163-.239l-.012.106h.096l.017-.134a15.59 15.59 0 00-.073.022l-.001-.098h.076a.457.457 0 01.305-.305v-.057c.102-.008.206-.016.313-.01.213.24 1.048.962 1.193 1.02 0 .169.114.247.114.458-.162.043.072.076-.553.076-.047-.133-.704-.087-.724-.324-.12-.01-.24-.148-.305-.172v-.076c-.06 0-.072-.015-.114-.057zm-.477-.667l-.12.341-.051.002c0-.066.013-.117-.038-.152-.064-1.408-.095-2.403-.038-3.773h.038c0-.084 0-.169.019-.248.191 0 .306.115.457.115.037.102.395.095.534.095l.02 2.782c.001.192-.027.154-.23.171-.19.066-.307.284-.457.324v.093l-.057.021a1.087 1.087 0 01-.077.23zM11.51 23.97c-.182-.377.244-.301.78-.228l.02.19h-.058a.143.143 0 01-.019.077c-.13 0-.486-.048-.514.057.247 0 .533-.117.533.19-.167.132-.762.157-.686-.171.15-.004.124-.076-.038-.076l-.019-.039zm10.215-12.172l.017.014c-.04.043-.167.226-.215.192-.222 1.338-.431 2.583-.558 3.905l.033.007c.22-.771.375-1.495.53-2.269a1.7 1.7 0 00-.02-.007c.22-.571.149-.713.208-1.1.063-.41.298-.791.005-.742zm-3.203 9.734h.037c.347 3.904 1.115 13.39.55 13.474l-.218-1.45-.025-.002c0-4.217-.544-8.476-.498-12.785l.093-.063.004.102h.058c0 .243.015.481.035.724h-.035zm-4.38 4.451c-.193-1.02.093-1.309.245-1.022.1 0 .743.24.743-.228h.038c0-.406-.227-.352-.286-.515-.438 0-1.55-.065-1.958-.189-.032.272-.83.532-1.034.532-.047.13-.934.176-.934.686 0 .131.063.12.077.286.043 0 .59.293.61.057.27 0 .741-.787.838-.42l4.65 17.625c.175.093.205.074.174-.089l-3.163-16.723zM29.328 8.137c.01-.11.038-.09.038-.19h.058c.031-.377.387-2.072.457-2.097 0-.056.345-1.646.383-2.454l.055-.023v-.019c.165-.104.491-.136.668-.095 0 .143.023.477-.037.665-.221.683-.532 1.294-.764 1.907l-.21.02c.002.519.212.8.839.8 0 .787-.431 1.862-.883 2.547-.808 1.228-2.02 1.641-3.03 2.397-.739.326-.623-1.04-.623-1.515.012-.004.225-.14.286-.17.988-.503 2.102-.821 2.763-1.773zM21.477 6.86l-.458.02c0 .259.61.186.61 0 0-.147-.114-.368-.114-.515h.076l.076.114c.09.002.21.114.743.114 0 .501-.393 1.62-.781 1.62h-.667c-.238 0-.425-.305-.61-.305.002.106.203.373.305.381.07.3 1.046.284 1.296.305.012.08.07.102.095.172 0 .338-.038.541.076.78v.077c.314.205.57.173.632.321.025.06.237.268.321.27l.023.055.092.002v.095c-.225.345-.486.587-1.072.68-1.117.177-2.752-.14-2.89-.867.142-.065.628-.19.646-.346.53 0 .334-2.8.095-2.897 0-.244.007-.375.703-.382.058-.103.198-.047.23-.17.08 0 .141.02.157-.068a.59.59 0 01.318-.064c.085.189.078.403.098.608zm-1.563 29.305c.214.186.809-.038.667-.038-.073 0 .811 6.165 1.105 6.263l-.019.005h.038c-.011.18-.185.153-.325.152l-.018.056c-.532.066-1.177.033-1.639-.189 0-2.128-.057-4.215-.056-6.328l.247.079zm1.639-28.619c-.128.03-.491.117-.496-.095.133 0 .492-.08.496.095zm-.61-.21c-.123.05-.166.065-.218.188.172.004.216.06.35.156a.716.716 0 01-.015.012c.508.174.527-.094.67-.14.11-.034.154.054.166-.082-.202-.047-.465-.342-.534-.153-.373 0 .112-.104-.42.02zm-8.767 15.968c.098 0 .151.304.038.304-.614 0-.781.156-.781-.305h.743zm.743-.382c-.114.077-.375.191-.38-.057.297 0 .198-.037.404-.075l-.024.132zM19.304 43.1c-.865.994-1.287-.096-1.2-1.01.296 0 .477-.433 1.471.268-.037.292-.168.48-.271.742zm-6.232-18.024c-.883 0 .172-.3.58-.22a.881.881 0 01-.197.184l-.001-.002c-.003.016-.064.047-.078.057l2.347 11.107-2.651-11.126zM31.52 4.02c.072.353.276.837.444 1.27.083.212.176.406.204.578-.77 0-.51.034-.667-1.657-.007-.07-.045-.144.02-.19zm-7.68 38.927l-.014.096c.063.035.235.211.242.304-.16-.004-.124-.158-.247-.172-.011-.128-.175-.095-.21-.228h.229zm3.392-37.212a6.25 6.25 0 01-.915-.038l.016-2.344h.041c.093.533.403 1.064.627 1.598.11.26.198.521.231.784zm-3.907 13.928c-.844-.192-1.976-.383-2.98-.717-.424-.142-2.092-.888-2.48-1.114l.01-.017h-.096c0 .385 3.764 2.65 5.546 1.848zM26.18 3.64l.005 2.096c-.963 0-1.14.13-.87-.318.237-.395.868-2.1.892-2.102l-.027.324zm-.414 5.602c-.526.473-1.292.705-1.944.705.036.435 1.847.108 2.012-.236.058-.119.472-.435.484-.47h.21c-.008-.349-.636-.19-.705 0h-.057zM17.95 36.436l1.505 3.501c.034.725.113 1.405.14 2.126-.234-.282-.343-.351-.73-.43-1.055-.215-.839.52-.839-1.372 0-.826-.066-3.212-.076-3.825zm1.505 3.501l-1.505-3.501.019-1.033c.722.36.377.2 1.071.245.131 1.477.301 2.806.415 4.29zM21.23 4.536h.076c.023.278.493.355.705.4.005.2.08.204.133.305.12.029.25.167.36.232l.023.301c-.142 0-.185-.057-.363-.057-.085-.21-1.595-.122-1.94-.053-.178.035-.349.186-.462.186 0-.107-.013-.326.076-.362v-.114c.157-.036.58-.094.63-.305.104-.002.111-.032.114-.133.447-.104.494.018.648-.4zm1.677 38.24c-.035.098-.612.134-.743.134-.515 0-1.045-5.087-.915-5.869.202 0 .306.318.491.366.064.017.152.046.176.11.049 0 .755.075.781.096 0 .878-.032 2.708.21 3.677.057.231.365 1.354 0 1.486zM20.295 25.38c-.146 2.949.005 5.617.21 8.498h.038c.016.186.1 1.445.266 1.506 0-1.027-.03-6-.156-6.799-.083-.525-.132-3.478-.162-4.253-.042-.009-.066.017-.1.039l-.096 1.01zm10.73-21.435c.117.081.034 1.58.019 1.905-.243.057-.515.01-.763 0 .146-.457.623-1.41.744-1.905z" fill="#fff"/><path d="M6.589 11.563a2.01 2.01 0 00.516-.29c.21-.174.393-.37.559-.584.136-.185.225-.402.323-.605.09-.182.146-.384.251-.555.091-.146.301-.23.372-.373-.182-.006-.355-.028-.516-.003-.202.027-.416.063-.603.156-.2.096-.383.237-.545.38a5.833 5.833 0 00-.606.644 5.046 5.046 0 00-.481.707c-.125.238-.194.504-.296.752.119 0 .236.027.342.002a3.22 3.22 0 00.684-.23zm-.333 25.052c.263.14.555.224.843.295.253.066.515.087.778.109.212.013.422.018.635.004.205-.015.403-.062.605-.089.197-.024.405-.06.607-.06.174.002.35.01.516.067.21.062.396.199.592.292.116.05.224.128.354.146.05.003.087-.048.112-.09.031-.041.075-.094.076-.15a.296.296 0 00-.08-.155.702.702 0 00-.215-.123c-.148-.063-.323-.07-.451-.165a.33.33 0 01-.127-.241c-.029-.154.023-.32.015-.47-.01-.276-.013-.554-.056-.823a5.585 5.585 0 00-.238-.92 6.499 6.499 0 00-.426-1.005 4.137 4.137 0 00-.57-.82 1.662 1.662 0 00-.514-.38c-.188-.088-.401-.107-.603-.164.074.164.187.318.23.497.048.175.016.364.024.55.02.317.024.628.056.942.025.223.071.449.131.672.063.236.139.468.233.69.05.12.13.227.188.324-.195-.058-.38-.132-.571-.15-.18-.02-.362.002-.539.023a8.031 8.031 0 00-.817.137c-.28.053-.545.136-.825.195-.14.026-.276.066-.416.064-.156-.012-.31-.074-.454-.095.139.177.257.35.404.504.153.145.314.294.503.389zm-.853-3.963a8.86 8.86 0 00-.82.006c-.291.006-.568.044-.857.057-.137.011-.279.03-.417 0-.155-.033-.294-.118-.43-.169.108.197.196.392.32.565.125.172.256.343.432.469.236.173.512.31.783.427.239.097.498.161.757.225.2.05.412.092.618.112.205.015.41-.006.614.001.203.008.404.002.607.037.174.029.351.072.501.146.198.1.355.265.536.382.108.073.206.167.328.208.044.012.088-.04.128-.072.04-.037.086-.082.094-.134.008-.057-.02-.12-.052-.168a.688.688 0 00-.191-.156c-.139-.086-.308-.124-.424-.235-.064-.061-.089-.168-.09-.257.005-.161.074-.31.1-.47.032-.272.074-.538.07-.817a6.432 6.432 0 00-.348-2 4.025 4.025 0 00-.428-.902 1.655 1.655 0 00-.45-.458c-.173-.118-.38-.167-.568-.255.047.17.136.344.15.522.01.185-.045.366-.064.55-.031.308-.082.627-.093.935a4.62 4.62 0 00.016.686c.028.237.064.48.12.717.03.125.093.242.133.352-.182-.09-.35-.19-.538-.243a2.531 2.531 0 00-.537-.061zm-4.377-3.345c.093.187.2.377.341.531.394.43 1.006.835 1.533 1.093.646.315 1.215.368 1.912.46.095.014.19.005.282.04.045.016.066.074.096.115.134.15.255.31.393.45.078.094.15.195.26.247.062.026.15.012.194-.033.045-.046.048-.123.045-.192a.38.38 0 00-.074-.198c-.144-.196-.347-.343-.485-.547a.581.581 0 01-.091-.27c-.017-.212.18-.566.239-.782.143-.542.263-1.128.248-1.689-.018-.552-.09-1.266-.366-1.758-.17-.301-.418-.444-.687-.61.031.132.075.26.08.399.003.187-.008.378-.064.558-.064.224-.199.422-.295.634-.1.225-.213.454-.29.688a3.746 3.746 0 00-.145.682c-.016.143-.01.288.008.423.023.12.083.23.116.341-.177-.132-.325-.285-.508-.388a2.316 2.316 0 00-.551-.239 6.721 6.721 0 00-.835-.2c-.256-.05-.522-.057-.78-.122-.171-.043-.338-.129-.496-.21-.106-.064-.202-.146-.28-.212.066.25.097.562.2.789zm-.302-3.398c.226.275.447.564.717.793.245.213.535.375.815.53.21.124.438.204.647.322.08.044.167.092.226.162.037.04.051.098.064.151.045.165.065.334.117.496.057.181.12.361.204.537.029.063.068.144.14.154.075.018.153-.03.203-.082a.266.266 0 00.082-.215c-.02-.148-.121-.277-.162-.421-.071-.213-.157-.43-.195-.65-.017-.1 0-.203.033-.3.147-.439.672-.87.903-1.28.34-.623.68-1.714.598-2.419-.045-.393-.298-.73-.502-1.064-.002.11.016.246-.017.372a1.233 1.233 0 01-.19.373c-.125.182-.299.328-.433.499-.154.203-.306.413-.45.629-.122.188-.253.373-.344.576-.068.155-.095.336-.133.504-.032.127-.05.256-.08.395-.118-.119-.23-.266-.35-.397-.13-.13-.246-.27-.383-.376a4.292 4.292 0 00-.518-.338c-.237-.146-.49-.274-.731-.412-.194-.114-.41-.203-.59-.348-.137-.107-.224-.268-.33-.395-.013.246-.088.487-.058.73.03.278.116.551.236.793.121.251.304.466.481.68zm.122-3.399c.184.27.395.519.624.75.132.145.3.237.453.354.076.058.176.097.23.175.05.071.046.17.072.248.06.194.113.391.173.585.03.098.042.207.096.29a.232.232 0 00.162.096c.058.007.13-.01.168-.055a.31.31 0 00.078-.206c-.015-.177-.115-.335-.134-.505a.779.779 0 01.033-.363c.018-.066.093-.105.15-.154.152-.126.313-.24.456-.372.225-.199.457-.394.646-.626a5.19 5.19 0 00.645-.925c.147-.293.238-.614.301-.935.043-.261.035-.531.002-.787-.02-.17-.111-.322-.171-.49a4.04 4.04 0 00-.173.418 2.43 2.43 0 01-.418.412c-.251.233-.54.426-.792.66a4.5 4.5 0 00-.486.534c-.129.162-.224.345-.339.51.012-.183.043-.379.034-.564-.004-.167-.07-.325-.08-.49-.006-.2-.026-.404.027-.59a.518.518 0 01.212-.281c.139-.089.32-.09.47-.16.17-.081.32-.18.468-.291.231-.167.458-.331.662-.527.264-.242.517-.497.735-.779.18-.244.346-.513.46-.798.073-.191.084-.41.083-.619-.002-.159-.06-.313-.088-.487-.067.1-.112.229-.208.328a1.293 1.293 0 01-.351.278c-.172.097-.37.143-.546.226a6.526 6.526 0 00-.56.313 4.472 4.472 0 00-.594.406c-.195.171-.354.382-.54.573-.061-.173-.118-.355-.187-.527-.054-.14-.108-.28-.18-.416-.154-.264-.309-.534-.48-.786-.145-.202-.332-.374-.47-.578a2.418 2.418 0 01-.233-.453c-.042-.088-.065-.186-.095-.284-.072.135-.16.267-.217.406-.087.195-.19.38-.21.586-.028.293.014.589.067.876.056.293.145.585.253.866.146.348.316.684.5 1.017.107.19.256.35.376.531.072.101.163.191.205.307.051.161.055.328.054.495-.006.155-.046.31-.072.463-.009.051.013.144-.041.149-.067.015-.121-.069-.18-.111-.15-.104-.301-.214-.446-.326-.162-.122-.311-.254-.474-.383-.096-.081-.19-.157-.28-.24-.088-.083-.184-.165-.257-.266-.064-.096-.09-.209-.136-.31-.043.17-.11.333-.132.499a2.814 2.814 0 00-.034.773c.026.225.106.449.205.662.143.308.314.616.504.898zm2.039-4.814c.08-.046.112-.145.166-.213.058-.077.125-.148.173-.236.05-.11.086-.229.115-.34.026-.097.032-.189.056-.292.211-.05.412-.084.608-.137a4.8 4.8 0 00.657-.225 7.18 7.18 0 00.764-.424 7.3 7.3 0 00.722-.512c.158-.128.318-.27.431-.444.098-.148.13-.33.182-.495a1.65 1.65 0 00.066-.315c.017-.101.015-.199.025-.333-.047.039-.089.125-.158.183a.842.842 0 01-.263.16c-.12.049-.25.059-.375.088-.178.043-.355.092-.532.14-.176.049-.359.099-.534.154-.22.074-.433.172-.648.237.021-.179.03-.342.048-.506.014-.143-.008-.297.054-.423.031-.07.133-.08.208-.09.073-.012.147.033.216.031.18 0 .367-.01.547-.046a4.42 4.42 0 00.765-.18c.225-.075.444-.182.655-.294.216-.114.433-.228.617-.39.133-.115.233-.278.307-.442.068-.155.075-.33.11-.507-.096.065-.169.166-.275.219a.916.916 0 01-.347.096c-.161.024-.32 0-.487.003-.167-.002-.338-.017-.506.008-.162.025-.314.089-.462.138-.13.037-.26.082-.38.132-.11.038-.21.084-.299.091.056-.118.13-.184.152-.273.023-.075.01-.162 0-.236-.007-.118-.027-.23-.047-.345-.085-.418-.181-.827-.253-1.249-.022-.12-.05-.239-.044-.359.003-.077.041-.149.058-.229-.114.076-.245.141-.34.24a2.795 2.795 0 00-.347.451c-.086.132-.197.256-.23.41-.07.289-.09.592-.09.884 0 .328.07.652.09.975.008.207.007.41-.014.616a6.412 6.412 0 01-.138.8c-.015.086-.065.167-.102.246-.022-.064-.038-.13-.054-.196-.037-.13-.062-.264-.105-.386a6.506 6.506 0 00-.252-.595c-.104-.205-.263-.377-.354-.585a1.344 1.344 0 01-.1-.428c-.011-.103.026-.21.037-.31-.09.091-.187.177-.275.28-.097.116-.208.239-.28.374a1.91 1.91 0 00-.171.514 2.717 2.717 0 00-.043.616c.01.304.025.607.076.908.051.337.137.672.248.993.05.156.165.289.229.44.048.115.098.235.113.357.019.142.005.285-.027.418-.04.155-.119.292-.181.439-.026.07-.082.13-.077.207-.004.07.016.156.073.19.065.042.16.033.222-.003zm34.013-6.133a2.056 2.056 0 01-.517-.29 3.781 3.781 0 01-.559-.584c-.136-.185-.224-.402-.322-.605-.09-.182-.147-.384-.252-.555-.091-.146-.301-.23-.372-.373.182-.006.355-.028.516-.003.203.027.417.063.603.156.2.096.384.237.545.38.218.197.418.412.606.644.178.224.345.458.482.707.124.238.193.504.295.752-.118 0-.236.027-.342.002a3.174 3.174 0 01-.683-.23zm.332 25.052c-.263.14-.555.224-.843.295-.252.066-.515.087-.777.109a4.965 4.965 0 01-.635.004c-.206-.015-.403-.062-.606-.089-.196-.024-.404-.06-.606-.06a1.64 1.64 0 00-.517.067c-.21.062-.396.199-.592.292-.116.05-.224.128-.354.146-.05.003-.087-.048-.111-.09-.032-.041-.076-.094-.077-.15a.297.297 0 01.08-.155.703.703 0 01.216-.123c.147-.063.323-.07.45-.165a.33.33 0 00.127-.241c.029-.154-.022-.32-.014-.47.01-.276.012-.554.055-.823.054-.315.133-.623.238-.92.117-.347.253-.684.426-1.005.158-.29.344-.574.57-.82.142-.161.324-.285.514-.38.188-.088.402-.107.604-.164-.075.164-.188.318-.23.497-.049.175-.017.364-.025.55-.019.317-.023.628-.056.942a4.684 4.684 0 01-.13.672 5.15 5.15 0 01-.234.69c-.05.12-.13.227-.188.324.195-.058.38-.132.572-.15.179-.02.362.002.538.023.272.03.545.08.818.137.28.053.545.136.824.195.14.026.276.066.416.064.156-.012.31-.074.454-.095-.138.177-.257.35-.404.504-.153.145-.314.294-.503.389zm.854-3.963a8.86 8.86 0 01.82.006c.29.006.567.044.856.057.137.011.279.03.418 0 .155-.033.294-.118.43-.169-.109.197-.197.392-.321.565-.124.172-.256.343-.431.469-.237.173-.512.31-.784.427-.239.097-.498.161-.757.225-.2.05-.411.092-.618.112-.205.015-.409-.006-.613.001-.204.008-.404.002-.608.037a1.804 1.804 0 00-.5.146c-.199.1-.356.265-.537.382-.107.073-.206.167-.328.208-.044.012-.088-.04-.128-.072-.04-.037-.086-.082-.094-.134-.008-.057.02-.12.053-.168a.688.688 0 01.19-.156c.139-.086.308-.124.425-.235.063-.061.088-.168.089-.257-.004-.161-.074-.31-.099-.47-.032-.272-.074-.538-.07-.817a6.447 6.447 0 01.348-2c.109-.316.244-.625.427-.902.113-.182.274-.331.45-.458.174-.118.38-.167.569-.255-.047.17-.136.344-.151.522-.01.185.046.366.064.55.032.308.082.627.093.935.016.227.003.46-.016.686-.028.237-.064.48-.12.717-.03.125-.093.242-.132.352.181-.09.35-.19.537-.243a2.53 2.53 0 01.538-.061zm4.377-3.345a2.328 2.328 0 01-.342.531c-.394.43-1.006.835-1.533 1.093-.646.315-1.215.368-1.912.46-.095.014-.19.005-.282.04-.045.016-.066.074-.096.115-.133.15-.255.31-.392.45-.078.094-.15.195-.26.247a.193.193 0 01-.195-.033c-.045-.046-.047-.123-.045-.192a.38.38 0 01.075-.198c.143-.196.346-.343.484-.547a.581.581 0 00.092-.27c.016-.212-.18-.566-.24-.782-.143-.542-.263-1.128-.248-1.689.018-.552.09-1.266.367-1.758.169-.301.417-.444.687-.61-.032.132-.076.26-.08.399-.004.187.007.378.063.558.065.224.2.422.295.634.1.225.214.454.29.688.073.225.116.452.146.682.015.143.009.288-.01.423-.021.12-.082.23-.115.341.177-.132.325-.285.509-.388.172-.106.357-.18.55-.239a6.72 6.72 0 01.835-.2c.256-.05.522-.057.78-.122.172-.043.338-.129.497-.21.106-.064.201-.146.28-.212-.066.25-.098.562-.2.789zm.3-3.398c-.225.275-.445.564-.715.793-.245.213-.535.375-.815.53-.211.124-.439.204-.648.322a.779.779 0 00-.226.162.326.326 0 00-.063.151c-.046.165-.065.334-.117.496a4.18 4.18 0 01-.204.537c-.03.063-.069.144-.14.154-.075.018-.154-.03-.204-.082a.265.265 0 01-.082-.215c.02-.148.121-.277.162-.421.071-.213.158-.43.195-.65.017-.1 0-.203-.033-.3-.147-.439-.672-.87-.902-1.28-.34-.623-.681-1.714-.599-2.419.045-.393.298-.73.503-1.064.001.11-.016.246.016.372.038.134.112.264.191.373.125.182.298.328.432.499.154.203.306.413.45.629.123.188.254.373.345.576.067.155.094.336.132.504.032.127.05.256.08.395.118-.119.23-.266.351-.397.129-.13.245-.27.382-.376.163-.13.34-.234.518-.338.237-.146.49-.274.731-.412.195-.114.41-.203.591-.348.137-.107.224-.268.33-.395.012.246.087.487.058.73a2.43 2.43 0 01-.236.793c-.122.251-.305.466-.482.68zm-.121-3.399c-.183.27-.395.519-.624.75-.131.145-.3.237-.453.354-.076.058-.176.097-.229.175-.051.071-.047.17-.073.248-.06.194-.112.391-.172.585-.031.098-.042.207-.097.29a.232.232 0 01-.162.096c-.058.007-.13-.01-.168-.055a.31.31 0 01-.078-.206c.015-.177.116-.335.134-.505a.778.778 0 00-.032-.363c-.019-.066-.093-.105-.151-.154-.151-.126-.313-.24-.456-.372-.224-.199-.457-.394-.646-.626a5.192 5.192 0 01-.644-.925 3.647 3.647 0 01-.302-.935 2.743 2.743 0 01-.002-.787c.02-.17.112-.322.172-.49.066.134.122.28.172.418.117.159.267.285.419.412.25.233.54.426.791.66.177.16.335.344.486.534.13.162.225.345.34.51-.013-.183-.043-.379-.035-.564.005-.167.07-.325.08-.49.006-.2.027-.404-.026-.59a.517.517 0 00-.213-.281c-.138-.089-.32-.09-.47-.16a2.69 2.69 0 01-.467-.291 5.98 5.98 0 01-.663-.527 6.474 6.474 0 01-.735-.779 3.696 3.696 0 01-.46-.798c-.072-.191-.084-.41-.082-.619.002-.159.06-.313.087-.487.067.1.112.229.208.328.098.114.223.206.352.278.172.097.37.143.545.226.194.095.378.201.56.313.207.126.414.252.594.406.196.171.354.382.54.573.062-.173.119-.355.187-.527.054-.14.108-.28.181-.416.154-.264.308-.534.48-.786.145-.202.332-.374.47-.578.095-.138.168-.295.233-.453.041-.088.064-.186.094-.284.073.135.16.267.217.406.087.195.19.38.21.586.029.293-.013.589-.067.876a5.044 5.044 0 01-.253.866 10.52 10.52 0 01-.5 1.017c-.107.19-.256.35-.375.531-.073.101-.163.191-.205.307a1.56 1.56 0 00-.055.495c.006.155.046.31.073.463.008.051-.014.144.04.149.067.015.122-.069.18-.111.15-.104.302-.214.447-.326.161-.122.31-.254.473-.383.096-.081.19-.157.28-.24.089-.083.185-.165.257-.266.065-.096.091-.209.136-.31.044.17.11.333.133.499.038.253.066.516.033.773a2.189 2.189 0 01-.205.662 6.476 6.476 0 01-.504.898zm-2.038-4.814c-.08-.046-.113-.145-.166-.213-.06-.077-.126-.148-.174-.236a2.045 2.045 0 01-.114-.34c-.027-.097-.033-.189-.056-.292-.212-.05-.413-.084-.609-.137a4.805 4.805 0 01-.657-.225 7.169 7.169 0 01-.764-.424 7.387 7.387 0 01-.721-.512 2.01 2.01 0 01-.432-.444c-.097-.148-.13-.33-.182-.495a1.671 1.671 0 01-.066-.315c-.017-.101-.014-.199-.024-.333.046.039.088.125.157.183a.84.84 0 00.263.16c.12.049.25.059.376.088.177.043.354.092.53.14.178.049.36.099.535.154.22.074.433.172.648.237-.02-.179-.03-.342-.047-.506-.015-.143.007-.297-.054-.423-.032-.07-.134-.08-.208-.09-.074-.012-.148.033-.217.031a2.95 2.95 0 01-.547-.046 4.407 4.407 0 01-.764-.18 4.231 4.231 0 01-.656-.294c-.216-.114-.433-.228-.617-.39a1.272 1.272 0 01-.307-.442c-.068-.155-.075-.33-.11-.507.096.065.17.166.276.219.104.06.23.083.346.096.162.024.32 0 .487.003.167-.002.338-.017.506.008.162.025.314.089.463.138.13.037.258.082.379.132.11.038.21.084.3.091-.057-.118-.131-.184-.153-.273-.023-.075-.01-.162 0-.236.007-.118.027-.23.047-.345.085-.418.182-.827.253-1.249.022-.12.05-.239.044-.359-.003-.077-.041-.149-.057-.229.114.076.245.141.34.24.135.136.244.295.346.451.087.132.197.256.23.41.071.289.09.592.09.884 0 .328-.07.652-.09.975-.008.207-.007.41.014.616.028.265.076.534.139.8.014.086.064.167.102.246a2.01 2.01 0 00.053-.196c.037-.13.062-.264.105-.386a6.5 6.5 0 01.252-.595c.104-.205.263-.377.354-.585a1.35 1.35 0 00.101-.428c.01-.103-.026-.21-.038-.31.09.091.188.177.275.28.097.116.209.239.28.374.08.166.143.34.172.514.042.205.048.416.043.616-.01.304-.026.607-.076.908a5.686 5.686 0 01-.249.993c-.05.156-.165.289-.229.44a1.358 1.358 0 00-.112.357c-.02.142-.005.285.027.418.04.155.118.292.18.439.027.07.082.13.078.207.004.07-.017.156-.073.19-.066.042-.161.033-.222-.003z" fill="#fff"/></svg>