<svg xmlns="http://www.w3.org/2000/svg" xmlns:xlink="http://www.w3.org/1999/xlink"><symbol id="logo" viewBox="0 0 44 60">
<path fill-rule="evenodd" clip-rule="evenodd" d="M21.46 46.8119L34.7838 37.0285V33.1429L21.46 42.9266L8.13606 33.1429V37.0285L21.46 46.8119Z" fill="white"/>
<path fill-rule="evenodd" clip-rule="evenodd" d="M21.4598 54.0437L39.1576 41.0487V35.8874L21.4598 48.8829L3.76205 35.8874V41.0487L21.4598 54.0437Z" fill="white"/>
<path fill-rule="evenodd" clip-rule="evenodd" d="M21.46 60L34.7838 50.2166V46.3309L21.46 56.1147L8.13606 46.3309V50.2166L21.46 60Z" fill="white"/>
<path fill-rule="evenodd" clip-rule="evenodd" d="M20.7713 17.0158C21.8028 17.1095 22.8437 17.1721 23.8202 17.0882C23.992 17.0849 24.4429 18.8089 24.4449 18.8825C23.7264 18.8845 20.7713 17.5254 20.7713 17.0158ZM19.4372 23.1892C19.4372 23.2082 19.4372 23.2273 19.4372 23.2463C20.6437 23.7261 22.3909 25.2258 23.998 23.0389C24.3702 22.5323 24.8051 22.0876 24.9641 22.0841C24.9641 22.9797 23.8698 24.6146 23.0774 25.2089C23.0774 25.2343 23.0774 25.2597 23.0774 25.2851C23.4553 25.2767 24.466 24.1286 24.6583 23.894C24.6168 24.1551 24.1441 25.165 23.9731 25.3613C24.1647 25.357 24.3853 24.768 24.5829 24.7516C24.5829 27.086 24.4581 29.3759 24.3976 31.6666C24.3405 33.8271 24.8116 35.8611 24.8116 37.9368C24.9301 37.9684 24.8522 38.123 24.8307 38.2035C24.8053 38.2035 24.7798 38.2035 24.7545 38.2035C24.7545 38.2162 24.7545 38.2289 24.7545 38.2416C24.5846 38.2416 24.4348 38.2797 24.2589 38.2797C24.2059 38.1483 23.4559 38.2733 23.3554 37.9491C23.2411 37.58 23.1127 35.7775 23.0964 35.3455C22.998 35.3098 22.5561 30.2331 22.4865 29.515C22.4118 28.8086 22.2196 28.0726 22.2579 27.362C22.2451 27.362 22.2324 27.362 22.2197 27.362C22.1974 27.1154 22.1805 26.5067 22.0388 26.3085C22.0313 26.3105 22.0236 26.3125 22.0159 26.3145C22.145 29.5191 22.3912 32.6949 22.3912 35.8789C22.3912 36.2956 22.4484 36.6146 22.4484 37.0222C21.6188 36.9226 21.4895 36.8323 21.0994 36.1352C21.0931 36.1384 21.0867 36.1417 21.0804 36.1449C21.0721 36.1008 21.0638 36.0567 21.0555 36.0126C21.037 36.0125 21.0185 36.0124 21 36.0123C21 35.8844 20.8804 35.6709 20.7746 35.6046C20.7279 35.7316 20.407 35.8027 20.2567 35.8027C19.9463 35.8027 19.7457 35.5771 19.6088 35.5741C19.5768 35.4371 19.2683 35.2331 19.1514 35.1549C18.7287 35.0265 18.9425 35.2642 18.2849 34.8885C18.2815 34.8948 18.2781 34.901 18.2747 34.9072C18.2747 34.8818 18.2747 34.8564 18.2747 34.831C18.243 34.831 18.2112 34.831 18.1794 34.831C18.0826 34.7185 17.9859 34.606 17.8891 34.4936C17.8843 34.498 17.8794 34.5026 17.8745 34.5071C17.8745 34.4626 17.8745 34.4182 17.8745 34.3737C17.8494 34.3814 17.8244 34.3892 17.7993 34.3969C17.7982 33.9061 17.8551 33.4424 17.8602 32.9448C17.8942 29.7018 17.2655 26.5679 17.1661 23.4005C17.1261 22.1259 17.1418 20.8676 17.6559 19.6943C17.7992 19.3673 17.9762 19.1588 18.1603 19.4166C18.7885 19.9913 20.1049 21.3484 21.6289 21.2647C22.9244 21.1936 22.245 21.7025 21.6723 21.7969C21.2965 21.859 21.0791 21.7227 20.8796 21.7066C22.0306 22.6431 22.8569 21.3343 23.1856 21.3629C22.8757 22.4776 21.1874 22.8818 20.1864 22.3958C20.1799 22.4036 20.1735 22.4113 20.167 22.4191C21.5143 24.0541 23.2192 22.312 24.0302 21.3791C24.0302 21.7581 23.9387 22.3633 23.6041 22.8381C22.3687 24.5916 21.1424 23.7407 19.4372 23.1892ZM23.935 13.6052C23.9477 13.6052 23.9603 13.6052 23.9731 13.6052C23.9731 13.5084 23.9561 13.4482 23.935 13.3575C23.5503 13.366 23.2298 15.5961 23.2298 15.7583C23.4794 15.6916 23.5949 14.647 23.7634 14.5579C23.8206 14.2403 23.8778 13.9228 23.935 13.6052ZM20.3711 17.5874C20.3711 17.5251 20.2367 17.362 20.1003 17.2342C19.6435 16.8062 19.0404 16.14 18.9084 15.9867C17.93 14.8507 17.5504 13.4984 17.5886 11.6808C17.5823 11.6754 17.576 11.6701 17.5698 11.6647C17.1402 12.1452 17.2845 13.4674 17.2837 14.0816C17.0919 14.0816 15.9837 13.3344 15.7972 13.1479C15.7972 13.0492 15.8023 12.8918 15.9305 12.8811C15.93 12.8596 15.9295 12.838 15.9289 12.8165C15.8534 12.8317 15.7779 12.847 15.7024 12.8623C15.5566 13.295 15.8691 13.6207 16.1368 13.9148C16.1316 13.9196 16.1264 13.9243 16.1211 13.9291C16.2518 13.932 16.9895 14.7599 17.2074 14.8627C17.4612 15.0442 17.2337 16.7839 17.1312 16.8253C17.1493 17.5094 16.6197 17.9795 16.4237 18.425C16.2575 18.4088 15.84 18.2953 15.8353 18.0828C15.3305 17.6099 15.9496 14.7767 15.9496 14.0053C15.8359 14.0464 15.6763 14.903 15.6593 15.0335C15.6417 15.0338 15.6241 15.034 15.6066 15.0342C15.5348 15.3626 15.463 15.6909 15.3912 16.0193C15.3996 16.0215 15.408 16.0238 15.4164 16.026C15.3977 16.0332 15.3789 16.0404 15.3602 16.0476C15.3479 16.6995 15.2818 17.3545 15.2411 18.0054C15.2486 18.0058 15.2561 18.0062 15.2635 18.0066C15.1726 18.1423 15.0772 18.2729 14.9531 18.3634C14.4637 18.7203 13.8668 19.6402 13.4562 20.4199C13.2695 20.7743 13.0204 21.0661 13.0146 21.3219C13.1455 21.311 14.6178 18.959 15.1042 18.6581C15.4173 18.4645 15.6966 18.4497 15.7018 18.6925C16.8482 18.6925 14.3507 21.6284 13.7579 21.7221C13.7493 21.8013 13.6507 21.8485 13.5673 21.8554C13.5673 21.8745 13.5673 21.8935 13.5673 21.9126C13.4467 21.9126 13.1105 22.1601 12.6098 22.1605C12.605 21.9635 12.6002 21.7666 12.5954 21.5696C12.5263 21.5233 12.469 21.5315 12.3858 21.5315C12.3858 20.7362 12.5954 21.4081 12.5954 20.9408C12.5954 20.8609 12.4795 20.6388 12.3858 20.617C12.3431 20.4572 11.9896 20.3519 11.8331 20.3883C11.8207 20.5011 11.3192 20.848 11.5472 21.1886C11.7 21.1886 11.7759 21.1604 11.7759 21.3029C11.8859 21.3427 11.8902 21.5693 11.8902 21.6649C11.623 21.6941 11.9829 22.1742 12.0427 22.1984C12.0427 22.2301 12.0427 22.2619 12.0427 22.2937C12.0618 22.2937 12.0809 22.2937 12.0999 22.2937C12.0999 22.4305 12.0181 22.4461 11.8902 22.4461C11.8928 22.4527 11.8953 22.4592 11.8978 22.4657C10.9655 22.8115 12.0113 22.8288 12.2142 22.9415C12.2142 23.1965 12.059 23.1336 11.5094 23.0907C11.5093 22.9902 11.5092 22.8896 11.5091 22.7891C11.4836 22.7891 11.4583 22.7891 11.4328 22.7891C11.33 22.9833 11.3566 22.9833 11.3566 23.2654C11.3253 23.3683 11.2271 23.5858 11.3947 23.6465C11.3947 23.7658 11.3566 23.8771 11.3566 24.0085C11.3713 24.0096 11.3861 24.0107 11.4008 24.0119C11.4314 24.1184 11.471 24.2212 11.471 24.3324C12.0699 24.6747 12.8753 24.0684 12.9575 23.9133C13.3413 23.9047 13.5668 23.234 13.7136 22.9352C13.7251 22.9119 16.6014 19.3063 16.6167 19.3022C16.6167 19.7677 16.464 20.1535 16.4642 20.617C16.4644 21.0731 16.388 21.5742 16.388 22.0269C16.388 22.516 16.388 23.005 16.388 23.494C16.388 26.6425 17.8971 31.0217 17.249 34.2247C17.2209 34.3633 17.1884 34.6405 17.1884 34.7548C17.1632 34.7619 17.1381 34.769 17.1129 34.7762C17.1122 34.8756 17.125 34.8886 17.1503 34.9834C17.2042 35.002 17.2582 35.0205 17.3121 35.0391C17.309 35.046 17.3058 35.0528 17.3027 35.0596C17.814 35.071 17.6458 35.4254 17.6458 36.2982C17.6523 36.2984 17.6588 36.2988 17.6654 36.2991C17.5561 38.4372 17.4785 39.9198 17.4743 42.0523C17.9083 42.1534 17.7071 41.9524 17.8745 42.7002C17.9759 42.9004 18.0773 43.1006 18.1788 43.3009C18.1726 43.3039 18.1665 43.3069 18.1603 43.3099C18.1794 43.3099 18.1985 43.3099 18.2175 43.3099C18.2331 43.3535 18.2486 43.397 18.2642 43.4406C18.3352 43.4645 18.4059 43.5325 18.4081 43.6338C18.554 43.6678 18.6086 43.7672 18.7702 43.7672C19.0185 43.7672 19.077 43.6338 19.2276 43.6338C19.2539 43.5285 19.3615 43.4871 19.3801 43.3861C19.4119 43.3671 19.4436 43.348 19.4753 43.3289C19.4753 43.2207 19.5388 42.9616 19.6603 42.8903C19.6685 42.7888 19.6768 42.6873 19.685 42.5858C19.7869 42.5943 19.742 42.6146 19.7993 42.7002C20.0093 42.7002 20.2845 43.2255 21.9319 42.9862C21.9451 43.0765 21.9582 43.1669 21.9713 43.2571C22.9594 43.3733 23.0255 42.8124 23.4394 43.0241C24.0139 43.3179 23.9764 43.6338 24.2208 43.6338C24.2208 43.6528 24.2208 43.6719 24.2208 43.6909C24.5518 43.7737 25.8598 44.0575 25.8598 43.4623C25.8598 43.0205 25.3365 42.8151 25.1547 42.4715C25.1506 42.479 25.1465 42.4866 25.1424 42.4941C25.0191 42.4224 24.8676 42.3001 24.7354 42.3001C24.7354 42.2746 24.7354 42.2492 24.7354 42.2238C24.3824 42.1297 24.4971 41.3621 24.5067 41.1378C24.5806 40.2801 24.6545 39.4225 24.7285 38.565C24.8552 38.5021 25.1567 38.4736 25.1737 38.3178C25.1995 38.3126 25.2251 38.3073 25.2508 38.3021C24.968 36.0149 24.6974 33.9935 24.8243 31.6716C24.8965 30.3503 25.0234 29.0162 25.1356 27.6096C25.1547 27.6096 25.1737 27.6096 25.1928 27.6096C25.1928 26.4607 25.3609 24.6241 25.5935 23.6088C26.2775 20.6227 25.3146 18.1362 24.4686 16.9396C24.2994 16.7003 25.2698 14.7637 25.6121 14.253C26.4914 14.253 27.1367 13.5048 27.1367 12.6525C27.3031 12.5923 27.1563 11.9348 27.4314 11.9138C27.4792 11.8806 27.5271 11.8473 27.575 11.8141C27.575 11.7352 28.7656 10.873 29.557 10.2498C30.3221 9.6473 30.1737 9.56767 30.5751 8.74613C30.9611 7.95625 31.3338 7.25024 31.4625 6.69851C32.0988 6.67806 32.5302 6.52458 32.5302 5.88846C32.327 5.84208 32.2868 5.86683 32.2485 5.78697C31.9794 5.22555 31.7714 4.55053 31.5711 3.95887C31.4383 3.56673 31.3175 3.15868 31.2457 2.78812C31.0956 2.01409 31.0775 1.64529 30.3846 0.999144C30.1477 0.778213 29.8835 0.575631 29.6252 0.37084C29.4958 0.268275 29.3267 0.170807 29.2195 0.0904992C28.9668 -0.099 28.7177 0.0499489 28.4892 0.166729C28.1615 0.334198 28.1111 0.639968 28.4255 0.846627C28.2658 1.13376 28.2069 1.24369 28.4265 1.37237C28.4132 1.48722 28.4967 1.61584 28.6804 1.65854C28.6804 2.21271 28.3437 2.19153 28.6501 2.93168C27.7708 2.91792 26.8916 2.90416 26.0124 2.89045C25.993 2.98322 25.992 3.04156 26.1076 3.06851C26.1076 3.37564 25.8539 3.92732 25.6091 4.49831C25.3999 4.9865 25.2107 5.50941 25.0405 5.67795C25.0023 5.67189 24.9641 5.66583 24.926 5.65983C24.9127 5.8188 24.909 5.91378 24.9109 5.9784C24.938 6.89627 27.5487 6.8188 27.5334 6.03265C27.5314 5.93315 27.5176 5.83251 27.5178 5.77412C27.5183 5.67988 27.4457 5.73425 27.3654 5.736C27.2671 5.47633 27.205 5.1841 27.0597 4.85148C26.8092 4.27823 26.4783 3.63514 26.4928 3.19334C26.8152 3.35814 28.4002 3.61606 28.7989 3.66895C29.1346 3.71341 29.5775 3.44955 29.9573 3.44955C29.9859 3.34263 30.1098 3.33164 30.1098 3.60201C30.0449 3.62823 29.9543 4.11206 29.9228 4.21842C29.9152 4.21621 29.9077 4.21395 29.9001 4.21168C29.9001 5.0155 29.147 6.3246 29.2933 7.96497C28.1112 9.0502 27.118 8.9414 26.2121 9.53692C25.89 9.74862 25.7798 12.8991 25.9731 13.3585C26.0528 13.5478 26.2298 13.4632 26.3553 13.4527C26.3553 13.4464 26.3553 13.4401 26.3553 13.4337C26.6275 13.3703 26.961 12.8176 26.9842 12.5382C27.0033 12.5382 27.0224 12.5382 27.0414 12.5382C27.0414 13.0609 26.6935 13.7322 26.2117 13.9465C26.2151 13.9534 26.2185 13.9603 26.2219 13.9672C25.5149 13.9672 25.4098 13.4974 25.1096 13.0215C25.0378 12.9076 24.9069 12.642 24.9069 12.5382C24.7965 12.4982 24.4686 11.5539 24.4686 11.3949C24.4065 11.3725 24.3352 11.15 24.3352 11.052C24.3225 11.052 24.3098 11.052 24.297 11.052C24.297 10.884 24.1065 10.4364 24.1065 10.2327C24.0747 10.2327 24.0429 10.2327 24.0112 10.2327C23.8689 10.8015 23.8129 11.0121 23.9237 11.6539C24.0663 12.4796 24.3528 14.3993 24.1827 15.2057C24.17 15.2057 24.1573 15.2057 24.1446 15.2057C23.9991 15.9701 23.7584 15.9425 23.6872 16.1393C23.599 16.1393 23.2415 16.4409 22.9439 16.4442C22.7979 16.4458 22.9724 15.6188 23.0519 14.704C23.1393 13.6992 23.1401 12.592 23.1345 12.4429C23.1218 12.4429 23.1091 12.4429 23.0964 12.4429C23.0795 13.202 22.7844 15.9218 22.2391 16.4788C22.1819 16.5371 22.0135 16.547 21.5155 16.4942C21.8394 15.6235 22.315 14.5312 22.315 13.5861C22.2896 13.5861 22.2642 13.5861 22.2388 13.5861C22.2388 14.1429 21.3577 16.6157 20.6951 16.6157C20.5489 16.6157 20.4195 15.3703 20.2948 15.32C20.2324 14.8838 20.0586 12.7671 19.7803 12.3667C19.856 13.3923 20.2299 16.1734 20.0471 16.1774C19.9717 16.0339 19.8963 15.8905 19.8209 15.747C19.8137 15.7507 19.8065 15.7545 19.7993 15.7583C19.7993 15.6467 19.7671 15.5593 19.685 15.5296C19.5566 15.15 19.2848 14.2992 19.2848 13.9291C19.2721 13.9291 19.2593 13.9291 19.2467 13.9291C19.2467 13.5798 18.8464 12.2601 18.8464 11.1663C18.8337 11.1663 18.821 11.1663 18.8083 11.1663C18.8062 10.8977 18.802 10.6334 18.8274 10.366C18.9497 10.366 19.003 10.2788 19.1323 10.3089C19.1323 11.6568 23.3251 11.9707 23.3251 10.3851C23.4312 10.2967 23.5328 10.2725 23.6342 10.1785C23.6392 10.1839 23.6441 10.1892 23.6491 10.1946C23.8491 9.33649 23.4842 9.66202 23.4767 9.33802C23.4693 9.01792 23.4196 9.19241 23.325 9.04153C22.4267 9.06356 23.2575 8.92113 22.5841 8.4198C22.5798 7.8107 22.4293 8.10531 22.4293 7.86999C22.4773 7.84071 22.5252 7.81143 22.5732 7.78209C22.6032 7.62431 22.6723 7.57696 22.6891 7.33604C22.7357 7.32823 22.7822 7.32041 22.8288 7.31259C22.909 7.10361 23.0774 7.17191 23.0774 6.74585C23.2028 6.70043 23.4703 6.185 23.2298 6.09801C23.2298 5.99765 23.2369 5.879 23.3442 5.85035C23.3828 5.31826 23.2679 5.38113 23.2679 5.16439C23.2679 4.78471 23.4342 4.54424 23.0793 4.30439C23.0772 3.81773 22.7517 3.65916 22.3341 3.65916C21.7894 2.846 21.1798 3.58751 21.1525 3.25903C20.7671 3.23151 20.4542 3.15205 20.1738 3.48348C19.7327 3.49265 19.6774 3.55767 19.4563 3.88779C19.1454 3.92664 19.0589 4.07587 18.9429 4.35355C18.9362 4.35072 18.9294 4.34789 18.9227 4.34511C18.9227 4.47849 18.9227 4.61186 18.9227 4.74524C18.5056 4.89611 18.7321 5.57941 18.7321 5.81223C18.5708 5.87062 18.7438 6.18126 18.7512 6.2695C18.7702 6.2695 18.7893 6.2695 18.8083 6.2695C18.8113 6.40248 18.872 6.39681 18.9719 6.4159C19 6.37348 19.028 6.331 19.0561 6.28858C19.1133 6.28224 19.1704 6.2759 19.2276 6.2695C19.2276 6.25047 19.2276 6.23144 19.2276 6.21235C19.2149 6.21235 19.2022 6.21235 19.1895 6.21235C19.1895 6.12978 19.1895 6.04721 19.1895 5.96463C18.7869 5.87085 18.9798 5.33327 18.9798 5.18347C19.2633 5.03345 18.8276 4.57397 19.7231 4.2498C19.7295 4.20534 19.7358 4.16088 19.7421 4.11642C19.8628 4.1064 19.9327 3.94397 20.1967 3.9459C20.204 3.9583 20.2113 3.9707 20.2186 3.98311C20.2567 3.98311 20.2948 3.98311 20.333 3.98311C20.3537 3.73391 20.7177 3.5639 20.9619 3.5639C21.1347 3.5639 21.1533 3.64013 21.2478 3.64013C21.3565 3.64013 21.4705 3.60201 21.5908 3.60201C21.8336 3.60201 21.9259 3.76535 22.1138 3.81773C22.1366 3.85902 22.1593 3.90025 22.1821 3.94148C22.7861 4.02451 22.838 4.57375 22.807 5.06885C22.8273 5.06896 22.8475 5.06907 22.8677 5.06913C22.886 5.14762 23.1589 5.79167 22.8677 5.86938C22.8677 5.55641 23.0027 5.04206 22.5056 5.03101C22.5053 5.03005 22.382 4.89928 22.2616 4.45108C22.2249 4.46376 21.897 4.52051 21.9224 4.46053C21.6712 4.34053 21.3375 4.19107 21.2668 3.88779C20.9711 3.96934 20.8986 4.36414 20.4092 4.36414C20.1995 4.70791 20.258 4.75934 19.6088 4.8405C19.5409 4.96872 19.4529 5.39971 19.3039 5.41211C19.3039 5.73464 19.4007 5.60767 19.3617 6.21887C19.5001 6.20352 19.6384 6.18823 19.7768 6.17288C19.7843 6.1543 19.7918 6.13567 19.7993 6.1171C19.9465 6.1171 20.4825 6.00201 20.5426 5.88846C20.2342 5.88846 19.984 6.05989 19.704 6.05989C19.704 6.04086 19.704 6.02184 19.704 6.00275C19.8944 6.00275 20.3683 5.69789 21.3812 5.69789C21.6297 5.69789 22.8001 6.01034 22.8296 6.36476C22.6796 6.36476 22.5536 6.10294 22.3341 6.09801C22.2764 6.0194 22.1518 6.02184 22.0482 6.02184C22.0482 6.04086 22.0482 6.05995 22.0482 6.07898C21.8472 6.07898 21.6649 5.86938 21.4955 5.86938C21.4895 5.85018 21.4835 5.83103 21.4775 5.81183C21.3504 5.81223 21.2818 5.77412 21.1525 5.77412C21.1525 5.7868 21.1525 5.79955 21.1525 5.81223C21.0321 5.81223 20.861 5.8401 20.7903 5.94561C20.6038 5.94561 20.3624 6.13612 20.0852 6.13612C20.0852 6.14881 20.0852 6.16155 20.0852 6.17424C19.975 6.17424 19.7121 6.25047 19.5897 6.25047C19.5593 6.33457 19.4241 6.30761 19.342 6.30761C19.342 6.3203 19.342 6.33304 19.342 6.34573C21.4528 6.287 20.6196 5.49683 22.0482 6.34573C22.1517 6.41137 22.357 6.36125 22.4293 6.46007C22.1236 6.46007 21.9324 6.34573 21.7624 6.34573C21.6681 6.08572 20.9517 5.92624 20.8285 6.23138C20.7493 6.23138 20.6172 6.23648 20.5807 6.3267C20.5378 6.3267 19.2345 6.65427 18.948 6.45181C18.7778 6.7296 18.8665 7.02364 19.1884 7.05089C19.2078 7.17146 19.2272 7.29209 19.2467 7.41272C19.2657 7.41272 19.2848 7.41272 19.3039 7.41272C19.3154 7.55114 19.4584 7.52707 19.5516 7.52707C19.5492 7.5342 19.5469 7.54134 19.5445 7.54848C19.6123 7.57487 20.0662 7.92691 20.0662 7.92719C20.0662 8.25873 19.4563 8.17712 19.4563 8.55595C19.4563 8.71979 19.4944 8.82853 19.4944 8.99419C19.2499 9.01452 19.2657 9.30777 19.2657 9.47054C19.6403 9.62181 18.8369 9.95233 18.2337 10.1442C17.8161 10.277 17.3525 10.3272 17.0046 10.6131C16.5215 11.01 16.3571 11.9087 16.1775 12.4747C16.2434 12.4901 16.5566 11.6949 17.0161 11.1622C17.3514 10.7735 17.7648 10.6117 18.2168 10.5757C18.2317 11.236 18.2633 11.8817 18.3125 12.5385C18.3411 12.9198 18.4125 13.2561 18.508 13.5683C18.6914 14.1672 19.2758 15.7257 20.0162 16.8017C20.6621 17.7404 22.963 19.6833 24.2589 19.6833C24.2748 19.7203 24.2906 19.7572 24.3064 19.7942C23.8517 19.8663 22.1351 20.2634 20.5078 19.9009C19.7401 19.7299 17.7188 18.8526 17.6839 17.9494C17.3176 17.3722 18.0748 17.416 18.3599 17.5607C19.2376 18.006 20.075 18.8865 21.285 18.6311C20.9699 18.7843 17.6737 16.5884 17.6076 16.3489C17.5386 16.0987 17.7271 16.0007 17.9781 16.0997C18.6297 16.3566 19.3347 16.9871 19.9202 17.3658C20.1343 17.5043 20.308 17.6003 20.3711 17.5874ZM28.9049 1.12096C28.862 1.22829 28.8181 1.34144 28.7419 1.43127C28.512 1.70238 28.5345 1.32219 28.6267 1.17273C28.7537 0.966976 28.8367 0.796279 29.0345 0.652201C29.1394 0.575801 29.2183 0.496229 29.0425 0.496229C29.0266 0.540234 28.9188 0.587298 28.8348 0.68907C28.7302 0.815875 28.6437 1.00175 28.5999 1.07175C28.5471 1.15625 28.5244 1.20422 28.4941 1.28962C28.4741 1.34586 28.3618 1.20745 28.4198 1.04524C28.5232 0.755559 28.8073 0.446844 28.9282 0.40097C28.9552 0.305767 28.9479 0.325476 28.8519 0.324796C28.7377 0.438519 28.6256 0.426625 28.583 0.524546C28.5667 0.562039 28.5988 0.593867 28.5766 0.636739C28.5342 0.71869 28.4282 0.785122 28.3541 0.615615C28.2314 0.33533 28.9393 0.0614457 29.1659 0.24715C29.615 0.615218 30.1059 1.01993 30.5085 1.43648C30.8776 1.81842 30.93 2.45069 30.9102 2.95417L28.9311 2.92942C28.5538 2.92472 28.9677 2.64002 28.8519 1.86814C28.9654 1.87755 29.1019 1.88893 29.1378 1.73471C29.3353 1.73913 29.5251 2.23015 29.9573 2.23015C30.1281 2.23015 30.3978 2.17414 30.4338 2.03958C29.8495 2.03958 29.6863 1.8016 29.3303 1.36682C29.3329 1.35758 29.3355 1.34835 29.3381 1.33912C29.1569 1.42628 29.0599 1.62303 29.0242 1.6663C28.8946 1.82363 28.8351 1.73364 28.8432 1.57342C28.8493 1.45171 28.9079 1.34394 28.9726 1.24126C29.025 1.15783 29.1019 1.06393 29.181 0.994103C29.2319 0.949249 29.5257 0.867978 29.3217 0.796222C29.1941 0.751368 28.9385 1.00317 28.9049 1.12096ZM23.8969 42.9669C23.803 42.8267 23.6306 42.7952 23.5223 42.6912C23.4956 42.7675 23.4707 42.7573 23.4013 42.7573C23.446 42.6499 23.4731 42.5893 23.5654 42.5183C23.5613 42.5534 23.5572 42.5886 23.5531 42.6238C23.5851 42.6238 23.6171 42.6239 23.6491 42.624C23.6546 42.5794 23.6602 42.5348 23.6658 42.4902C23.6414 42.4974 23.617 42.5047 23.5927 42.512C23.5924 42.4794 23.5922 42.4469 23.5919 42.4143C23.6173 42.4143 23.6427 42.4143 23.6681 42.4143C23.7046 42.2777 23.8377 42.141 23.9731 42.1095C23.9731 42.0905 23.9731 42.0714 23.9731 42.0523C24.0754 42.0438 24.1792 42.0364 24.2864 42.0411C24.4988 42.2824 25.334 43.0043 25.4787 43.0622C25.4787 43.2308 25.593 43.3089 25.593 43.5195C25.4314 43.5626 25.6647 43.5957 25.0403 43.5957C24.9925 43.4634 24.3358 43.5085 24.3161 43.2718C24.1958 43.2618 24.0762 43.1238 24.0112 43.1003C24.0112 43.0749 24.0112 43.0495 24.0112 43.0241C23.9517 43.0241 23.9393 43.0094 23.8969 42.9669ZM23.4204 42.3001C23.3802 42.4138 23.3401 42.5276 23.3 42.6413C23.2829 42.6419 23.2659 42.6424 23.2488 42.643C23.2488 42.5774 23.2615 42.5258 23.2107 42.4906C23.1473 41.0834 23.1155 40.0882 23.1726 38.7179C23.1854 38.7179 23.198 38.7179 23.2107 38.7179C23.2107 38.6341 23.2115 38.549 23.2298 38.4703C23.421 38.4703 23.5357 38.5846 23.6872 38.5846C23.7244 38.6872 24.0822 38.6798 24.2208 38.6798C24.2273 39.6072 24.2337 40.5345 24.2401 41.4619C24.2423 41.6544 24.2144 41.6163 24.0112 41.6331C23.8214 41.6993 23.7036 41.9171 23.5538 41.9571C23.5536 41.9879 23.5534 42.0188 23.5533 42.0496C23.5344 42.0569 23.5155 42.0641 23.4966 42.0714C23.4791 42.1538 23.4549 42.2232 23.4204 42.3001ZM11.5091 23.9704C11.328 23.5931 11.7536 23.6685 12.2905 23.7418C12.2968 23.8053 12.3031 23.8687 12.3095 23.9323C12.2905 23.9323 12.2714 23.9323 12.2523 23.9323C12.2523 23.9642 12.2476 23.9798 12.2333 24.0085C12.1031 24.0085 11.7467 23.9609 11.7187 24.0657C11.9659 24.0657 12.2523 23.9492 12.2523 24.2562C12.0848 24.388 11.4899 24.4126 11.5663 24.0847C11.7151 24.0814 11.6904 24.0085 11.5282 24.0085C11.5218 23.9958 11.5154 23.9831 11.5091 23.9704ZM21.7248 11.7983C21.7305 11.8028 21.7364 11.8072 21.7421 11.8116C21.7024 11.8546 21.5753 12.0376 21.5268 12.0035C21.3051 13.3423 21.0957 14.5866 20.9691 15.9094C20.9801 15.9118 20.9909 15.9142 21.0019 15.9165C21.2213 15.1449 21.3774 14.4215 21.5323 13.6471C21.5253 13.6448 21.5183 13.6426 21.5113 13.6404C21.7317 13.0686 21.661 12.9265 21.7202 12.5407C21.7833 12.13 22.0179 11.7489 21.7248 11.7983ZM18.5225 21.5315C18.5346 21.5315 18.5468 21.5315 18.5589 21.5315C18.9061 25.4364 19.6738 34.9213 19.109 35.006C19.0363 34.5228 18.9635 34.0395 18.8908 33.5563C18.8824 33.5557 18.8739 33.555 18.8655 33.5544C18.8655 29.3371 18.3219 25.0779 18.3679 20.7694C18.3989 20.7483 18.4299 20.7274 18.461 20.7064C18.4624 20.7401 18.4639 20.7738 18.4653 20.8075C18.4844 20.8075 18.5034 20.8075 18.5225 20.8075C18.5225 21.0506 18.5383 21.2892 18.558 21.5315C18.5461 21.5315 18.5343 21.5315 18.5225 21.5315ZM14.1416 25.9832C13.9487 24.9634 14.2351 24.6744 14.3868 24.9612C14.4871 24.9612 15.1301 25.2014 15.1301 24.7325C15.1428 24.7325 15.1555 24.7325 15.1682 24.7325C15.1682 24.327 14.9412 24.3807 14.8823 24.2181C14.4441 24.2181 13.3325 24.1533 12.9243 24.0294C12.8924 24.3013 12.0937 24.561 11.8902 24.561C11.843 24.6914 10.9564 24.7374 10.9564 25.247C10.9564 25.3781 11.0187 25.3662 11.0326 25.5328C11.0759 25.5337 11.6229 25.8263 11.6424 25.59C11.9134 25.59 12.3841 24.8034 12.481 25.1708L17.1312 42.7954C17.3065 42.8882 17.3362 42.8691 17.3054 42.7061L14.1416 25.9832ZM29.3284 8.1368C29.3375 8.02687 29.3665 8.04765 29.3665 7.94622C29.3855 7.94622 29.4046 7.94622 29.4237 7.94622C29.455 7.57039 29.8115 5.87549 29.8811 5.85035C29.8811 5.79371 30.2259 4.20398 30.2636 3.39597C30.2822 3.38844 30.3008 3.38091 30.3194 3.37338C30.3194 3.36703 30.3194 3.36069 30.3194 3.35429C30.4835 3.24997 30.8102 3.21797 30.9865 3.25903C30.9865 3.4022 31.0103 3.73624 30.9496 3.92375C30.7285 4.60688 30.4184 5.21785 30.186 5.83126C30.1161 5.83766 30.0462 5.844 29.9764 5.85035C29.9784 6.36952 30.1883 6.65059 30.8149 6.65059C30.8149 7.43849 30.3836 8.51325 29.9324 9.1979C29.1235 10.4256 27.912 10.8395 26.9014 11.5948C26.1634 11.9206 26.2791 10.5557 26.2791 10.0803C26.2908 10.076 26.5042 9.94004 26.5653 9.90906C27.5535 9.40734 28.6669 9.08854 29.3284 8.1368ZM21.4765 6.8602C21.324 6.86654 21.1715 6.87288 21.0191 6.87923C21.0191 7.13856 21.6289 7.06572 21.6289 6.87923C21.6289 6.73322 21.5146 6.51195 21.5146 6.36476C21.54 6.36476 21.5654 6.36476 21.5908 6.36476C21.6162 6.40287 21.6416 6.44099 21.667 6.4791C21.7572 6.48114 21.8765 6.59345 22.4103 6.59345C22.4103 7.09415 22.0175 8.21297 21.6289 8.21297C21.4066 8.21297 21.1842 8.21297 20.9619 8.21297C20.7235 8.21297 20.5374 7.90811 20.352 7.90811C20.3544 8.01424 20.5546 8.28071 20.657 8.2892C20.7267 8.58868 21.7029 8.57328 21.9529 8.59406C21.9647 8.67454 22.0233 8.69635 22.0482 8.76555C22.0482 9.10434 22.0095 9.30732 22.1244 9.54677C22.1244 9.57214 22.1244 9.59757 22.1244 9.62294C22.4381 9.82847 22.6943 9.79579 22.7558 9.94446C22.7806 10.0044 22.9928 10.2118 23.0774 10.2136C23.0849 10.2322 23.0924 10.2509 23.1 10.2694C23.1305 10.2699 23.1611 10.2703 23.1917 10.2708C23.1917 10.3026 23.1917 10.3343 23.1917 10.366C22.9669 10.7108 22.7056 10.9525 22.1205 11.0457C21.0035 11.2234 19.3676 10.9068 19.2291 10.1785C19.3716 10.1142 19.8585 9.98841 19.8756 9.83255C20.4052 9.83255 20.2105 7.0331 19.9709 6.93637C19.9709 6.69199 19.9781 6.5606 20.6744 6.55431C20.732 6.45101 20.8717 6.50731 20.9047 6.38384C20.9839 6.38384 21.0451 6.40355 21.0608 6.31628C21.176 6.25783 21.25 6.25081 21.3789 6.2516C21.464 6.44054 21.4573 6.6549 21.4765 6.8602ZM19.9137 36.1648C20.1276 36.3506 20.7229 36.1267 20.5807 36.1267C20.5077 36.1267 21.3925 42.2916 21.6858 42.3901C21.6796 42.3918 21.6733 42.3936 21.667 42.3953C21.6797 42.3953 21.6925 42.3953 21.7052 42.3953C21.6939 42.5754 21.52 42.5476 21.3801 42.5473C21.374 42.5657 21.3679 42.5842 21.3618 42.6026C20.83 42.6689 20.1845 42.6357 19.7231 42.4143C19.7231 40.2857 19.6657 38.1994 19.6667 36.0863C19.7491 36.1125 19.8313 36.1386 19.9137 36.1648ZM21.5527 7.5461C21.4252 7.57577 21.0619 7.6635 21.0571 7.45084C21.1901 7.45084 21.5487 7.37013 21.5527 7.5461ZM20.9429 7.33655C20.8201 7.38684 20.7766 7.40145 20.7247 7.52441C20.8969 7.52764 20.9413 7.58308 21.0746 7.67976C21.0697 7.68378 21.0647 7.6878 21.0596 7.69176C21.5681 7.86597 21.5869 7.59775 21.7307 7.55261C21.8398 7.5184 21.8845 7.60551 21.8957 7.46992C21.6943 7.42297 21.4308 7.12763 21.3621 7.31746C20.9892 7.31746 21.4744 7.21269 20.9429 7.33655ZM12.1761 23.3035C12.2744 23.3035 12.327 23.6084 12.2142 23.6084C11.6003 23.6084 11.4328 23.7639 11.4328 23.3035C11.6806 23.3035 11.9283 23.3035 12.1761 23.3035ZM12.9194 22.9224C12.8045 22.9993 12.5437 23.1134 12.5382 22.8653C12.8358 22.8653 12.737 22.8277 12.9425 22.7898C12.9348 22.834 12.9271 22.8782 12.9194 22.9224ZM19.3039 43.1003C18.4393 44.0944 18.0166 43.004 18.1031 42.0905C18.4003 42.0905 18.5805 41.6571 19.575 42.3577C19.538 42.6496 19.4073 42.8381 19.3039 43.1003ZM13.0718 25.0755C12.1887 25.0755 13.2444 24.7754 13.6523 24.8553C13.5912 24.9314 13.5351 24.9837 13.455 25.0396C13.4546 25.0389 13.4541 25.0382 13.4537 25.0376C13.4506 25.0537 13.3901 25.0849 13.376 25.0947L15.7229 36.2022L13.0718 25.0755ZM31.5201 4.02116C31.5921 4.37371 31.7957 4.85754 31.9643 5.29131C32.0466 5.50312 32.1399 5.69658 32.1681 5.86938C31.3988 5.86938 31.6588 5.90262 31.501 4.21168C31.4944 4.14123 31.4563 4.06789 31.5201 4.02116ZM23.8397 42.9478C23.835 42.98 23.8304 43.012 23.8257 43.0441C23.8892 43.0794 24.0606 43.2551 24.0683 43.348C23.9077 43.3444 23.9442 43.19 23.8206 43.1765C23.8099 43.0479 23.6465 43.0809 23.611 42.9478C23.6872 42.9478 23.7634 42.9478 23.8397 42.9478ZM27.232 5.736C26.9215 5.739 26.6245 5.73957 26.3172 5.69789C26.3226 4.91667 26.328 4.13551 26.3333 3.35424C26.347 3.35429 26.3607 3.35429 26.3744 3.35429C26.4668 3.887 26.7773 4.41789 27.0012 4.95161C27.1106 5.21219 27.1994 5.4735 27.232 5.736ZM23.3251 19.6642C22.481 19.4717 21.3487 19.2812 20.345 18.9466C19.9212 18.8054 18.2534 18.0594 17.8648 17.8325C17.868 17.827 17.8712 17.8215 17.8745 17.816C17.8427 17.816 17.811 17.816 17.7792 17.816C17.7792 18.2005 21.5426 20.4665 23.3251 19.6642ZM26.1793 3.63973C26.1808 4.33849 26.1823 5.03724 26.1838 5.736C25.2215 5.736 25.0438 5.86569 25.3133 5.41828C25.5513 5.02309 26.1819 3.31788 26.2062 3.31646C26.1973 3.42424 26.1883 3.53201 26.1793 3.63973ZM25.7646 9.24191C25.2386 9.71509 24.4726 9.94689 23.8206 9.94689C23.8568 10.3817 25.6679 10.0552 25.8334 9.7109C25.8906 9.59202 26.3049 9.27589 26.3172 9.24191C26.3871 9.24191 26.457 9.24191 26.5269 9.24191C26.5191 8.89247 25.8911 9.05014 25.8217 9.24191C25.8026 9.24191 25.7836 9.24191 25.7646 9.24191ZM17.9507 36.4357L19.4563 39.9374C19.4904 40.6619 19.5685 41.342 19.5969 42.063C19.3618 41.7806 19.2525 41.712 18.8655 41.6331C17.8109 41.4184 18.027 42.1529 18.027 40.2613C18.027 39.4349 17.9613 37.0494 17.9507 36.4357ZM19.4563 39.9374L17.9507 36.4357C17.9571 36.0913 17.9634 35.7469 17.9698 35.4026C18.6915 35.7634 18.3465 35.6039 19.041 35.6483C19.1725 37.1252 19.3421 38.4537 19.4563 39.9374ZM21.2287 4.53563C21.2541 4.53563 21.2796 4.53563 21.3049 4.53563C21.3281 4.81427 21.7981 4.89101 22.0101 4.93576C22.0146 5.13551 22.0902 5.13975 22.1435 5.24062C22.263 5.26984 22.3926 5.40797 22.5038 5.47254C22.5114 5.57306 22.5189 5.67359 22.5264 5.77406C22.3838 5.77412 22.3414 5.71697 22.1625 5.71697C22.0778 5.50697 20.5683 5.59453 20.2224 5.66362C20.0448 5.69908 19.8744 5.85035 19.7612 5.85035C19.7612 5.7428 19.7482 5.52436 19.8375 5.48834C19.8375 5.45022 19.8375 5.41211 19.8375 5.37399C19.994 5.33752 20.4173 5.27953 20.4664 5.06913C20.5709 5.06681 20.5785 5.03713 20.5807 4.93576C21.0283 4.83155 21.0748 4.9536 21.2287 4.53563ZM22.9058 42.7764C22.8705 42.874 22.2935 42.9097 22.1625 42.9097C21.6483 42.9097 21.1184 37.8225 21.2478 37.0412C21.4496 37.0412 21.5536 37.3589 21.7395 37.4071C21.8031 37.4235 21.8914 37.453 21.9148 37.5176C21.9639 37.5176 22.67 37.5915 22.6962 37.6128C22.6962 38.4909 22.6644 40.3207 22.9058 41.2902C22.9634 41.5211 23.271 42.6442 22.9058 42.7764ZM20.2948 25.3804C20.1488 28.329 20.3001 30.997 20.5047 33.8783C20.5173 33.8783 20.5299 33.8783 20.5426 33.8783C20.5593 34.064 20.6422 35.3231 20.8094 35.3836C20.8094 34.3568 20.7786 29.3846 20.6529 28.5854C20.5703 28.0599 20.5212 25.1067 20.4906 24.3316C20.4494 24.3232 20.4252 24.3489 20.3903 24.3708C20.3585 24.7073 20.3267 25.0438 20.2948 25.3804ZM31.0245 3.94499C31.1418 4.02649 31.0586 5.5243 31.0436 5.85035C30.8013 5.90675 30.5285 5.86026 30.2813 5.85035C30.4271 5.39336 30.9044 4.43918 31.0245 3.94499Z" fill="white"/>
<path d="M6.58858 11.5632C6.77168 11.4846 6.95421 11.4 7.10548 11.2737C7.31469 11.099 7.49773 10.9024 7.66384 10.6893C7.80016 10.5036 7.88857 10.2873 7.98672 10.0837C8.07625 9.90237 8.13323 9.70047 8.23846 9.52932C8.32947 9.38286 8.53936 9.29831 8.61026 9.15621C8.42835 9.15043 8.25545 9.1284 8.0941 9.15281C7.8918 9.17977 7.67755 9.21619 7.49082 9.30912C7.29068 9.40512 7.10786 9.54642 6.9464 9.68846C6.72852 9.88623 6.52883 10.101 6.33995 10.3334C6.16201 10.5567 5.99533 10.7907 5.8585 11.0395C5.7343 11.2775 5.66493 11.5439 5.56332 11.7915C5.68163 11.7914 5.79938 11.8192 5.90523 11.7942C6.144 11.7451 6.36827 11.6639 6.58858 11.5632ZM6.25636 36.6147C6.51937 36.7549 6.8111 36.8387 7.09897 36.91C7.35162 36.9759 7.61412 36.9972 7.87668 37.019C8.08917 37.0316 8.29911 37.0373 8.51166 37.0228C8.71679 37.0082 8.91473 36.9614 9.11748 36.934C9.31366 36.9095 9.52157 36.8742 9.72353 36.8743C9.89802 36.8756 10.0734 36.8834 10.2401 36.9409C10.4504 37.0026 10.636 37.1396 10.8322 37.2328C10.948 37.2821 11.0565 37.3609 11.1864 37.3786C11.2358 37.3815 11.273 37.3313 11.2977 37.2895C11.3295 37.2476 11.3732 37.1952 11.374 37.1399C11.368 37.085 11.3327 37.0239 11.2947 36.9839C11.2339 36.9287 11.1552 36.8917 11.0787 36.8615C10.931 36.7979 10.7556 36.7912 10.628 36.6957C10.5533 36.644 10.51 36.5504 10.501 36.4545C10.4724 36.3013 10.5235 36.1357 10.5157 35.9852C10.506 35.7086 10.5034 35.4309 10.4605 35.1619C10.4068 34.8466 10.3271 34.5391 10.2225 34.2424C10.1049 33.895 9.96949 33.5579 9.79642 33.2367C9.6379 32.9467 9.45236 32.6626 9.22616 32.4166C9.08486 32.2556 8.90233 32.1317 8.71192 32.0372C8.52384 31.9488 8.31072 31.9299 8.10871 31.8734C8.18279 32.0367 8.29622 32.1912 8.33847 32.37C8.3869 32.5454 8.3549 32.7343 8.36311 32.9201C8.38225 33.2368 8.38684 33.5483 8.41912 33.8617C8.44404 34.085 8.49048 34.3109 8.55006 34.5336C8.61287 34.7697 8.68876 35.0022 8.78294 35.2238C8.83267 35.3446 8.91326 35.4513 8.97108 35.5484C8.77614 35.49 8.59089 35.416 8.39958 35.3983C8.22056 35.3777 8.03774 35.4 7.86116 35.4214C7.58971 35.4502 7.31633 35.5004 7.04381 35.5583C6.76426 35.6107 6.49864 35.6937 6.21921 35.7532C6.07983 35.7794 5.94283 35.8185 5.80289 35.8173C5.64731 35.805 5.49344 35.743 5.34925 35.7223C5.4876 35.8991 5.60614 36.0728 5.75322 36.2261C5.90608 36.3705 6.06714 36.5202 6.25636 36.6147ZM5.40288 32.652C5.12865 32.6408 4.85097 32.6435 4.58241 32.6576C4.29199 32.6642 4.01522 32.7024 3.72627 32.715C3.58933 32.7261 3.44746 32.7448 3.30859 32.7158C3.15386 32.6825 3.01488 32.597 2.87811 32.546C2.98696 32.7428 3.07537 32.9375 3.19957 33.1105C3.32365 33.2834 3.45499 33.4544 3.6309 33.5796C3.86701 33.7534 4.14259 33.8895 4.41443 34.0071C4.65304 34.1042 4.91186 34.168 5.17107 34.2321C5.37088 34.2827 5.58258 34.3239 5.7889 34.3439C5.99437 34.3586 6.1982 34.338 6.40253 34.3453C6.60625 34.3529 6.80657 34.3471 7.00983 34.382C7.18375 34.4106 7.36119 34.454 7.51116 34.5284C7.70915 34.6282 7.86591 34.7932 8.04737 34.91C8.15469 34.9825 8.25346 35.0774 8.37483 35.1182C8.41901 35.1297 8.4629 35.0772 8.50345 35.046C8.54366 35.0088 8.58942 34.9636 8.59724 34.9124C8.60534 34.8545 8.57719 34.7918 8.54451 34.7444C8.49433 34.6794 8.42739 34.6334 8.35365 34.5876C8.21529 34.5019 8.04618 34.4643 7.92969 34.3534C7.86614 34.2919 7.841 34.1855 7.84037 34.0957C7.84473 33.9347 7.91422 33.7858 7.93909 33.6269C7.97182 33.3542 8.01356 33.0875 8.01022 32.8094C8.00609 32.496 7.97913 32.1759 7.92668 31.8671C7.86252 31.5068 7.78555 31.1494 7.66265 30.8088C7.55261 30.4932 7.41748 30.1841 7.23382 29.9068C7.12083 29.7249 6.95988 29.5755 6.78442 29.4493C6.61072 29.3307 6.40361 29.282 6.21553 29.1937C6.26276 29.364 6.35168 29.5377 6.36651 29.7158C6.37575 29.901 6.3207 30.0816 6.30206 30.2668C6.27075 30.5736 6.22045 30.8926 6.20947 31.201C6.19372 31.4277 6.20641 31.6609 6.22504 31.8872C6.25342 32.1236 6.28932 32.3665 6.34539 32.6037C6.37507 32.729 6.43827 32.8465 6.47758 32.9555C6.29634 32.8663 6.12712 32.7667 5.94028 32.7128C5.76998 32.67 5.5853 32.6573 5.40288 32.652ZM1.02554 29.3067C1.11904 29.4936 1.22648 29.6841 1.36738 29.8382C1.76128 30.2684 2.37299 30.6731 2.90003 30.9312C3.54628 31.2462 4.11501 31.2992 4.81246 31.3913C4.90699 31.4045 5.00219 31.3962 5.09416 31.4301C5.13902 31.4471 5.1598 31.5054 5.19016 31.5458C5.32359 31.6962 5.44535 31.8565 5.58275 31.9969C5.66074 32.09 5.73306 32.1909 5.84248 32.2425C5.90466 32.2687 5.99216 32.2547 6.03735 32.2102C6.08193 32.1642 6.0847 32.0875 6.08221 32.0181C6.07955 31.9491 6.04947 31.8796 6.00751 31.8199C5.864 31.6242 5.66147 31.4768 5.52306 31.2731C5.47005 31.1947 5.44014 31.098 5.43153 31.0025C5.41539 30.7907 5.61124 30.4368 5.67099 30.2209C5.81416 29.6786 5.93388 29.0935 5.91938 28.5324C5.90115 27.9804 5.82854 27.2657 5.55273 26.774C5.38374 26.4726 5.13494 26.3298 4.86576 26.1636C4.89702 26.2957 4.94148 26.4246 4.94584 26.5626C4.94923 26.7498 4.93802 26.9405 4.88218 27.1206C4.81767 27.3447 4.68317 27.5431 4.58689 27.7545C4.48653 27.9795 4.3736 28.2089 4.2972 28.4432C4.22414 28.6682 4.18144 28.8951 4.15165 29.125C4.1363 29.2676 4.14265 29.4126 4.16043 29.5478C4.18257 29.6682 4.24306 29.7781 4.2763 29.8893C4.09926 29.7566 3.95139 29.6038 3.76756 29.5013C3.59567 29.3954 3.41064 29.3211 3.21656 29.2624C2.94454 29.1735 2.65944 29.1153 2.38205 29.0627C2.12589 29.0115 1.85999 29.0049 1.60157 28.9405C1.43087 28.8975 1.26425 28.8115 1.10556 28.7306C0.999655 28.6657 0.903943 28.5836 0.825674 28.5176C0.891653 28.7672 0.923312 29.0804 1.02554 29.3067ZM0.724411 25.9087C0.94993 26.1838 1.17058 26.4726 1.44055 26.7015C1.68578 26.9153 1.97558 27.0766 2.2557 27.2329C2.46655 27.3564 2.69399 27.4359 2.90297 27.5535C2.98266 27.5977 3.07038 27.6459 3.12917 27.7163C3.16627 27.7557 3.18014 27.8145 3.19271 27.8675C3.23848 28.0317 3.25762 28.2011 3.30978 28.3629C3.36664 28.5441 3.43069 28.7243 3.51361 28.8996C3.54255 28.963 3.58196 29.044 3.65417 29.0536C3.72859 29.0724 3.80686 29.0244 3.85738 28.9717C3.91441 28.9157 3.94981 28.8311 3.93927 28.757C3.91877 28.6089 3.81802 28.4798 3.7773 28.3358C3.70605 28.1226 3.61951 27.9065 3.58191 27.686C3.56509 27.5851 3.58253 27.4835 3.61504 27.3852C3.76195 26.9472 4.28729 26.5165 4.51762 26.1063C4.85783 25.4829 5.19865 24.392 5.11585 23.687C5.07145 23.2941 4.8183 22.9574 4.61351 22.6226C4.61215 22.7335 4.62965 22.869 4.59714 22.9953C4.55891 23.1295 4.48528 23.2586 4.40628 23.3678C4.28174 23.5504 4.10804 23.696 3.97433 23.8666C3.82045 24.0701 3.66833 24.2801 3.52369 24.4958C3.4017 24.6842 3.27064 24.8687 3.17963 25.072C3.11178 25.2269 3.08517 25.4078 3.0475 25.5762C3.01528 25.7025 2.99676 25.8319 2.96793 25.9711C2.84906 25.8524 2.7372 25.7049 2.61612 25.5743C2.48739 25.4432 2.37129 25.3045 2.2344 25.1981C2.07141 25.0686 1.89414 24.9642 1.71608 24.8604C1.47924 24.7143 1.22614 24.5862 0.98493 24.4485C0.790673 24.3339 0.574669 24.245 0.394118 24.1C0.257686 23.9932 0.170582 23.8321 0.0643354 23.7053C0.0524421 23.951 -0.0226553 24.1919 0.00679466 24.4356C0.0375472 24.713 0.122895 24.986 0.242621 25.2284C0.364272 25.4791 0.547428 25.6942 0.724411 25.9087ZM0.846458 22.5102C1.02956 22.78 1.24103 23.0288 1.47 23.2606C1.60174 23.4046 1.76983 23.4968 1.92291 23.6138C1.9992 23.6715 2.09933 23.7109 2.15222 23.7886C2.20337 23.86 2.19889 23.9592 2.22483 24.0367C2.28464 24.2308 2.3377 24.4283 2.39779 24.6223C2.42832 24.7196 2.43987 24.8286 2.49424 24.9127C2.52816 24.9676 2.59811 24.9998 2.65633 25.0076C2.71398 25.0148 2.78568 24.9979 2.82425 24.9533C2.87437 24.9001 2.90348 24.8159 2.90178 24.7471C2.88706 24.5696 2.78659 24.4123 2.76779 24.242C2.75357 24.12 2.7577 23.994 2.80075 23.879C2.81893 23.8127 2.89368 23.7738 2.95162 23.7253C3.10272 23.5987 3.26379 23.4846 3.40742 23.3532C3.63175 23.1542 3.86446 22.959 4.05333 22.7266C4.29205 22.4412 4.52595 22.1342 4.69772 21.8017C4.84452 21.5091 4.93632 21.1879 4.99919 20.8668C5.04223 20.6059 5.03385 20.3359 5.00117 20.0797C4.98157 19.9099 4.8896 19.7576 4.82985 19.5908C4.76359 19.7243 4.70724 19.87 4.6574 20.0078C4.54079 20.1668 4.3902 20.2928 4.23875 20.4195C3.98769 20.6527 3.69886 20.8464 3.44723 21.0798C3.27053 21.2403 3.11178 21.4244 2.96085 21.6136C2.83207 21.7761 2.73669 21.9591 2.62206 22.1249C2.63401 21.9413 2.6646 21.7452 2.65627 21.56C2.65168 21.3932 2.58644 21.2352 2.5754 21.0705C2.5699 20.8694 2.54969 20.6657 2.60281 20.4794C2.6313 20.3682 2.71885 20.2633 2.81502 20.1988C2.95377 20.1104 3.13517 20.1092 3.28531 20.0396C3.45454 19.9577 3.60541 19.8591 3.75255 19.7477C3.98435 19.5814 4.21095 19.417 4.41523 19.2215C4.67858 18.9788 4.93162 18.7237 5.15029 18.442C5.32908 18.198 5.4957 17.9288 5.60942 17.6441C5.68265 17.4527 5.69438 17.2346 5.69273 17.0254C5.69052 16.8662 5.63327 16.7122 5.60512 16.5381C5.53835 16.6374 5.49298 16.7668 5.39699 16.8655C5.2989 16.9796 5.17447 17.072 5.04574 17.1438C4.87363 17.2405 4.67541 17.2874 4.4999 17.3701C4.30615 17.4646 4.12237 17.5714 3.94023 17.6835C3.73346 17.809 3.52658 17.9346 3.34648 18.0886C3.15058 18.2604 2.9924 18.4714 2.80647 18.6621C2.74457 18.4888 2.68776 18.3072 2.61946 18.135C2.56532 17.9945 2.51134 17.8544 2.43812 17.7188C2.28464 17.4552 2.13002 17.1853 1.95927 16.9333C1.81366 16.731 1.62677 16.5591 1.48835 16.3553C1.39327 16.217 1.32077 16.0602 1.25587 15.9022C1.21407 15.8135 1.19085 15.7155 1.16084 15.6178C1.08857 15.753 1.00118 15.8854 0.943983 16.0241C0.856936 16.2193 0.754144 16.4034 0.733586 16.6098C0.705722 16.903 0.747744 17.1987 0.801094 17.4859C0.856653 17.7785 0.946475 18.0714 1.05448 18.3516C1.19997 18.7004 1.3701 19.036 1.5536 19.3689C1.66086 19.559 1.81004 19.7199 1.92959 19.9003C2.00197 20.0013 2.09253 20.091 2.13467 20.2067C2.18649 20.3682 2.19034 20.5345 2.18915 20.7023C2.18326 20.8569 2.14294 21.0127 2.11677 21.1648C2.10799 21.216 2.12991 21.3089 2.0756 21.3136C2.00945 21.3292 1.95474 21.2452 1.89618 21.2028C1.7461 21.0995 1.59466 20.9891 1.4495 20.8771C1.28826 20.755 1.13898 20.6228 0.976265 20.4944C0.880326 20.4127 0.786539 20.3373 0.696887 20.254C0.607574 20.1707 0.511578 20.0889 0.438973 19.988C0.374693 19.8915 0.348244 19.7795 0.303446 19.6787C0.259838 19.8489 0.193519 20.0114 0.170752 20.1767C0.13241 20.4295 0.104206 20.6933 0.137111 20.9502C0.162596 21.1746 0.243187 21.399 0.342354 21.6122C0.484677 21.9198 0.6556 22.2279 0.846458 22.5102ZM2.88468 17.6965C2.96442 17.6497 2.99693 17.5515 3.05073 17.4832C3.10946 17.4062 3.17584 17.3348 3.22443 17.247C3.27495 17.1378 3.30989 17.0181 3.33883 16.9073C3.36511 16.8098 3.37134 16.7181 3.39473 16.6147C3.60609 16.5647 3.8072 16.5312 4.00332 16.4784C4.22562 16.4183 4.45238 16.3439 4.66046 16.2532C4.92369 16.1277 5.18212 15.9833 5.42446 15.8288C5.67268 15.672 5.9182 15.5028 6.1457 15.3174C6.30405 15.1891 6.46444 15.0467 6.57737 14.8734C6.67489 14.7247 6.70757 14.5428 6.75945 14.378C6.79003 14.273 6.815 14.1696 6.82491 14.063C6.84213 13.9617 6.83975 13.8645 6.84966 13.7299C6.80345 13.7686 6.76126 13.8552 6.69188 13.9128C6.61667 13.9803 6.52549 14.0366 6.42927 14.0727C6.30977 14.1218 6.17951 14.1318 6.05355 14.1615C5.876 14.2035 5.69902 14.2529 5.52243 14.3012C5.34579 14.3496 5.16297 14.3998 4.98809 14.4554C4.76891 14.5286 4.55506 14.6273 4.34047 14.6918C4.36103 14.5134 4.37083 14.3502 4.38793 14.1864C4.40249 14.0434 4.38045 13.8886 4.44162 13.763C4.47334 13.6922 4.57516 13.6822 4.64969 13.6721C4.72343 13.6613 4.797 13.7059 4.86587 13.7042C5.0467 13.7031 5.23263 13.6938 5.41296 13.6585C5.66787 13.6188 5.92675 13.5646 6.17753 13.4778C6.40338 13.4035 6.62205 13.2961 6.83296 13.1839C7.04924 13.0701 7.2661 12.9561 7.45033 12.7938C7.58331 12.6789 7.68349 12.5159 7.75712 12.3522C7.82519 12.1968 7.83227 12.0216 7.86744 11.8452C7.77139 11.9103 7.69799 12.011 7.59152 12.0639C7.48748 12.1234 7.36045 12.1471 7.24486 12.1604C7.08356 12.184 6.9251 12.1591 6.75826 12.1634C6.5913 12.1614 6.41992 12.1461 6.2524 12.1715C6.09042 12.196 5.93841 12.26 5.78969 12.3088C5.6596 12.3464 5.53082 12.3909 5.4103 12.4406C5.30077 12.4794 5.2003 12.5247 5.11121 12.5321C5.16722 12.4142 5.24187 12.3484 5.26327 12.2594C5.28621 12.1837 5.27268 12.0967 5.26276 12.0227C5.25648 11.9054 5.23615 11.7925 5.21604 11.678C5.1312 11.2598 5.03453 10.8508 4.96294 10.429C4.94148 10.3087 4.9135 10.1903 4.91933 10.0701C4.92233 9.9931 4.96039 9.92112 4.97659 9.84098C4.8627 9.91664 4.73187 9.98206 4.63661 10.0812C4.50109 10.2175 4.39257 10.3758 4.29029 10.5323C4.20364 10.6642 4.0932 10.7878 4.05979 10.9422C3.98934 11.2308 3.97019 11.5342 3.96991 11.8265C3.97036 12.1537 4.04008 12.4783 4.06047 12.8011C4.06828 13.0085 4.06732 13.2107 4.0462 13.4174C4.01816 13.6818 3.97053 13.9507 3.90761 14.2161C3.89311 14.3034 3.84294 14.3845 3.80584 14.4632C3.78358 14.3985 3.76812 14.3329 3.75243 14.2666C3.71505 14.1368 3.69019 14.0033 3.64749 13.8805C3.57132 13.6759 3.48999 13.4793 3.39524 13.2857C3.29092 13.0805 3.13206 12.9092 3.04133 12.7008C2.98141 12.569 2.95298 12.4155 2.94012 12.2726C2.92959 12.1703 2.96669 12.0637 2.97796 11.9638C2.88853 12.0544 2.79067 12.1401 2.70345 12.2439C2.60587 12.3586 2.49475 12.4819 2.42288 12.6174C2.34325 12.7826 2.27988 12.9576 2.25162 13.1314C2.2092 13.3362 2.20359 13.5471 2.20852 13.7473C2.2186 14.0511 2.23417 14.3542 2.28452 14.6554C2.33623 14.9921 2.42169 15.3267 2.53315 15.6484C2.58389 15.8041 2.6983 15.9369 2.76195 16.0887C2.81049 16.2029 2.85976 16.323 2.87477 16.4454C2.8938 16.5875 2.87953 16.7305 2.84781 16.8628C2.80817 17.0181 2.72922 17.1554 2.66658 17.302C2.64053 17.3711 2.58514 17.4327 2.58984 17.5088C2.58582 17.5791 2.60615 17.6649 2.66284 17.6996C2.72791 17.7408 2.82374 17.7321 2.88468 17.6965Z" fill="white"/>
<path d="M36.8978 11.5632C36.7147 11.4846 36.5321 11.4 36.3809 11.2737C36.1716 11.099 35.9886 10.9024 35.8225 10.6893C35.6862 10.5036 35.5978 10.2873 35.4996 10.0837C35.4101 9.90237 35.3531 9.70047 35.2479 9.52932C35.1569 9.38286 34.947 9.29831 34.8761 9.15621C35.058 9.15043 35.2309 9.1284 35.3922 9.15281C35.5946 9.17977 35.8088 9.21619 35.9955 9.30912C36.1957 9.40512 36.3785 9.54642 36.5399 9.68846C36.7578 9.88623 36.9575 10.101 37.1464 10.3334C37.3243 10.5567 37.491 10.7907 37.6278 11.0395C37.752 11.2775 37.8214 11.5439 37.923 11.7915C37.8047 11.7914 37.687 11.8192 37.5811 11.7942C37.3423 11.7451 37.1181 11.6639 36.8978 11.5632ZM37.23 36.6147C36.967 36.7549 36.6752 36.8387 36.3874 36.91C36.1347 36.9759 35.8723 36.9972 35.6097 37.019C35.3972 37.0316 35.1872 37.0373 34.9747 37.0228C34.7695 37.0082 34.5716 36.9614 34.3689 36.934C34.1727 36.9095 33.9648 36.8742 33.7628 36.8743C33.5883 36.8756 33.413 36.8834 33.2462 36.9409C33.036 37.0026 32.8504 37.1396 32.6542 37.2328C32.5384 37.2821 32.4298 37.3609 32.2999 37.3786C32.2505 37.3815 32.2133 37.3313 32.1886 37.2895C32.1568 37.2476 32.1132 37.1952 32.1123 37.1399C32.1184 37.085 32.1536 37.0239 32.1916 36.9839C32.2525 36.9287 32.3311 36.8917 32.4077 36.8615C32.5553 36.7979 32.7308 36.7912 32.8584 36.6957C32.933 36.644 32.9763 36.5504 32.9853 36.4545C33.014 36.3013 32.9628 36.1357 32.9706 35.9852C32.9803 35.7086 32.9829 35.4309 33.0259 35.1619C33.0796 34.8466 33.1593 34.5391 33.2639 34.2424C33.3814 33.895 33.5168 33.5579 33.6899 33.2367C33.8484 32.9467 34.034 32.6626 34.2602 32.4166C34.4015 32.2556 34.584 32.1317 34.7744 32.0372C34.9625 31.9488 35.1756 31.9299 35.3776 31.8734C35.3035 32.0367 35.1901 32.1912 35.1479 32.37C35.0994 32.5454 35.1314 32.7343 35.1232 32.9201C35.1041 33.2368 35.0995 33.5483 35.0672 33.8617C35.0423 34.085 34.9959 34.3109 34.9363 34.5336C34.8735 34.7697 34.7976 35.0022 34.7034 35.2238C34.6537 35.3446 34.5731 35.4513 34.5153 35.5484C34.7102 35.49 34.8954 35.416 35.0868 35.3983C35.2658 35.3777 35.4486 35.4 35.6252 35.4214C35.8966 35.4502 36.17 35.5004 36.4425 35.5583C36.7221 35.6107 36.9877 35.6937 37.2671 35.7532C37.4065 35.7794 37.5435 35.8185 37.6834 35.8173C37.839 35.805 37.9929 35.743 38.1371 35.7223C37.9987 35.8991 37.8802 36.0728 37.7331 36.2261C37.5803 36.3705 37.4192 36.5202 37.23 36.6147ZM38.0835 32.652C38.3577 32.6408 38.6354 32.6435 38.9039 32.6576C39.1943 32.6642 39.4711 32.7024 39.7601 32.715C39.897 32.7261 40.0389 32.7448 40.1777 32.7158C40.3325 32.6825 40.4715 32.597 40.6082 32.546C40.4994 32.7428 40.411 32.9375 40.2868 33.1105C40.1627 33.2834 40.0313 33.4544 39.8555 33.5796C39.6193 33.7534 39.3437 33.8895 39.0719 34.0071C38.8334 34.1042 38.5745 34.168 38.3153 34.2321C38.1155 34.2827 37.9038 34.3239 37.6974 34.3439C37.492 34.3586 37.2882 34.338 37.0839 34.3453C36.8801 34.3529 36.6798 34.3471 36.4765 34.382C36.3026 34.4106 36.1252 34.454 35.9752 34.5284C35.7772 34.6282 35.6204 34.7932 35.439 34.91C35.3316 34.9825 35.2329 35.0774 35.1115 35.1182C35.0673 35.1297 35.0234 35.0772 34.9829 35.046C34.9427 35.0088 34.8969 34.9636 34.8892 34.9124C34.8811 34.8545 34.9091 34.7918 34.9418 34.7444C34.992 34.6794 35.0589 34.6334 35.1327 34.5876C35.271 34.5019 35.4402 34.4643 35.5566 34.3534C35.6202 34.2919 35.6453 34.1855 35.646 34.0957C35.6416 33.9347 35.5721 33.7858 35.5472 33.6269C35.5146 33.3542 35.4728 33.0875 35.4761 32.8094C35.4802 32.496 35.5072 32.1759 35.5596 31.8671C35.6239 31.5068 35.7008 31.1494 35.8237 30.8088C35.9337 30.4932 36.0689 30.1841 36.2525 29.9068C36.3655 29.7249 36.5265 29.5755 36.7019 29.4493C36.8756 29.3307 37.0827 29.282 37.2708 29.1937C37.2236 29.364 37.1347 29.5377 37.1199 29.7158C37.1106 29.901 37.1657 30.0816 37.1843 30.2668C37.2156 30.5736 37.2659 30.8926 37.2769 31.201C37.2927 31.4277 37.2799 31.6609 37.2613 31.8872C37.2329 32.1236 37.197 32.3665 37.1409 32.6037C37.1113 32.729 37.0481 32.8465 37.0088 32.9555C37.19 32.8663 37.3592 32.7667 37.5461 32.7128C37.7164 32.67 37.901 32.6573 38.0835 32.652ZM42.4608 29.3067C42.3673 29.4936 42.2599 29.6841 42.1189 29.8382C41.7251 30.2684 41.1133 30.6731 40.5863 30.9312C39.9401 31.2462 39.3713 31.2992 38.6739 31.3913C38.5793 31.4045 38.4841 31.3962 38.3922 31.4301C38.3473 31.4471 38.3265 31.5054 38.2962 31.5458C38.1627 31.6962 38.041 31.8565 37.9036 31.9969C37.8257 32.09 37.7533 32.1909 37.6439 32.2425C37.5817 32.2687 37.4942 32.2547 37.449 32.2102C37.4044 32.1642 37.4017 32.0875 37.4042 32.0181C37.4068 31.9491 37.4369 31.8796 37.4788 31.8199C37.6223 31.6242 37.8249 31.4768 37.9633 31.2731C38.0163 31.1947 38.0462 31.098 38.0548 31.0025C38.0709 30.7907 37.8751 30.4368 37.8153 30.2209C37.6722 29.6786 37.5524 29.0935 37.5669 28.5324C37.5852 27.9804 37.6578 27.2657 37.9336 26.774C38.1026 26.4726 38.3514 26.3298 38.6206 26.1636C38.5893 26.2957 38.5449 26.4246 38.5405 26.5626C38.5371 26.7498 38.5483 26.9405 38.6042 27.1206C38.6687 27.3447 38.8032 27.5431 38.8994 27.7545C38.9999 27.9795 39.1127 28.2089 39.1891 28.4432C39.2622 28.6682 39.3049 28.8951 39.3347 29.125C39.3501 29.2676 39.3437 29.4126 39.3259 29.5478C39.3038 29.6682 39.2433 29.7781 39.2101 29.8893C39.3871 29.7566 39.5349 29.6038 39.7188 29.5013C39.8907 29.3954 40.0757 29.3211 40.2698 29.2624C40.5418 29.1735 40.8269 29.1153 41.1043 29.0627C41.3604 29.0115 41.6263 29.0049 41.8848 28.9405C42.0555 28.8975 42.2221 28.8115 42.3808 28.7306C42.4867 28.6657 42.5824 28.5836 42.6607 28.5176C42.5947 28.7672 42.5631 29.0804 42.4608 29.3067ZM42.7619 25.9087C42.5364 26.1838 42.3158 26.4726 42.0458 26.7015C41.8006 26.9153 41.5108 27.0766 41.2306 27.2329C41.0198 27.3564 40.7923 27.4359 40.5834 27.5535C40.5037 27.5977 40.416 27.6459 40.3572 27.7163C40.3201 27.7557 40.3062 27.8145 40.2937 27.8675C40.2479 28.0317 40.2287 28.2011 40.1766 28.3629C40.1197 28.5441 40.0556 28.7243 39.9728 28.8996C39.9438 28.963 39.9044 29.044 39.8322 29.0536C39.7577 29.0724 39.6795 29.0244 39.629 28.9717C39.5719 28.9157 39.5365 28.8311 39.5471 28.757C39.5676 28.6089 39.6683 28.4798 39.709 28.3358C39.7803 28.1226 39.8668 27.9065 39.9044 27.686C39.9212 27.5851 39.9038 27.4835 39.8713 27.3852C39.7244 26.9472 39.199 26.5165 38.9687 26.1063C38.6285 25.4829 38.2877 24.392 38.3705 23.687C38.4149 23.2941 38.668 22.9574 38.8728 22.6226C38.8742 22.7335 38.8567 22.869 38.8892 22.9953C38.9274 23.1295 39.001 23.2586 39.0801 23.3678C39.2046 23.5504 39.3783 23.696 39.5121 23.8666C39.6659 24.0701 39.818 24.2801 39.9626 24.4958C40.0846 24.6842 40.2157 24.8687 40.3067 25.072C40.3745 25.2269 40.4012 25.4078 40.4389 25.5762C40.4711 25.7025 40.4896 25.8319 40.5184 25.9711C40.6373 25.8524 40.7491 25.7049 40.8702 25.5743C40.9989 25.4432 41.115 25.3045 41.2519 25.1981C41.4149 25.0686 41.5922 24.9642 41.7703 24.8604C42.0071 24.7143 42.2602 24.5862 42.5015 24.4485C42.6957 24.3339 42.9117 24.245 43.0923 24.1C43.2286 23.9932 43.3158 23.8321 43.4221 23.7053C43.4339 23.951 43.509 24.1919 43.4795 24.4356C43.4488 24.713 43.3634 24.986 43.2437 25.2284C43.1221 25.4791 42.939 25.6942 42.7619 25.9087ZM42.6399 22.5102C42.4568 22.78 42.2453 23.0288 42.0164 23.2606C41.8846 23.4046 41.7165 23.4968 41.5634 23.6138C41.4871 23.6715 41.387 23.7109 41.3341 23.7886C41.283 23.86 41.2874 23.9592 41.2615 24.0367C41.2017 24.2308 41.1487 24.4283 41.0885 24.6223C41.058 24.7196 41.0465 24.8286 40.9921 24.9127C40.9582 24.9676 40.8882 24.9998 40.83 25.0076C40.7724 25.0148 40.7007 24.9979 40.6621 24.9533C40.612 24.9001 40.5829 24.8159 40.5845 24.7471C40.5993 24.5696 40.6997 24.4123 40.7185 24.242C40.7328 24.12 40.7286 23.994 40.6856 23.879C40.6674 23.8127 40.5926 23.7738 40.5347 23.7253C40.3836 23.5987 40.2225 23.4846 40.0789 23.3532C39.8546 23.1542 39.6219 22.959 39.433 22.7266C39.1943 22.4412 38.9604 22.1342 38.7886 21.8017C38.6418 21.5091 38.55 21.1879 38.4871 20.8668C38.4441 20.6059 38.4525 20.3359 38.4852 20.0797C38.5048 19.9099 38.5967 19.7576 38.6565 19.5908C38.7227 19.7243 38.7791 19.87 38.8289 20.0078C38.9455 20.1668 39.0961 20.2928 39.2476 20.4195C39.4986 20.6527 39.7875 20.8464 40.0391 21.0798C40.2159 21.2403 40.3745 21.4244 40.5255 21.6136C40.6543 21.7761 40.7496 21.9591 40.8643 22.1249C40.8523 21.9413 40.8217 21.7452 40.8301 21.56C40.8346 21.3932 40.8999 21.2352 40.9109 21.0705C40.9164 20.8694 40.9366 20.6657 40.8835 20.4794C40.855 20.3682 40.7675 20.2633 40.6713 20.1988C40.5326 20.1104 40.3512 20.1092 40.201 20.0396C40.0318 19.9577 39.8809 19.8591 39.7338 19.7477C39.502 19.5814 39.2754 19.417 39.0711 19.2215C38.8078 18.9788 38.5547 18.7237 38.336 18.442C38.1572 18.198 37.9906 17.9288 37.8769 17.6441C37.8037 17.4527 37.792 17.2346 37.7936 17.0254C37.7958 16.8662 37.8531 16.7122 37.8813 16.5381C37.948 16.6374 37.9933 16.7668 38.0893 16.8655C38.1874 16.9796 38.3119 17.072 38.4406 17.1438C38.6128 17.2405 38.8109 17.2874 38.9864 17.3701C39.1802 17.4646 39.364 17.5714 39.5461 17.6835C39.7529 17.809 39.9598 17.9346 40.1399 18.0886C40.3358 18.2604 40.4939 18.4714 40.6799 18.6621C40.7418 18.4888 40.7986 18.3072 40.8669 18.135C40.921 17.9945 40.975 17.8544 41.0483 17.7188C41.2018 17.4552 41.3563 17.1853 41.5271 16.9333C41.6727 16.731 41.8596 16.5591 41.998 16.3553C42.0931 16.217 42.1656 16.0602 42.2305 15.9022C42.2723 15.8135 42.2955 15.7155 42.3255 15.6178C42.3978 15.753 42.4852 15.8854 42.5423 16.0241C42.6295 16.2193 42.7322 16.4034 42.7527 16.6098C42.7806 16.903 42.7386 17.1987 42.6852 17.4859C42.6297 17.7785 42.5399 18.0714 42.4319 18.3516C42.2864 18.7004 42.1162 19.036 41.9327 19.3689C41.8255 19.559 41.6763 19.7199 41.5567 19.9003C41.4844 20.0013 41.3938 20.091 41.3517 20.2067C41.2998 20.3682 41.296 20.5345 41.2972 20.7023C41.3031 20.8569 41.3434 21.0127 41.3696 21.1648C41.3783 21.216 41.3564 21.3089 41.4107 21.3136C41.4769 21.3292 41.5316 21.2452 41.5902 21.2028C41.7402 21.0995 41.8917 20.9891 42.0368 20.8771C42.1981 20.755 42.3474 20.6228 42.5101 20.4944C42.6061 20.4127 42.6998 20.3373 42.7894 20.254C42.8788 20.1707 42.9748 20.0889 43.0474 19.988C43.1116 19.8915 43.1381 19.7795 43.1829 19.6787C43.2265 19.8489 43.2928 20.0114 43.3156 20.1767C43.3539 20.4295 43.3821 20.6933 43.3492 20.9502C43.3237 21.1746 43.2431 21.399 43.144 21.6122C43.0017 21.9198 42.8307 22.2279 42.6399 22.5102ZM40.6017 17.6965C40.5219 17.6497 40.4894 17.5515 40.4356 17.4832C40.3769 17.4062 40.3105 17.3348 40.2619 17.247C40.2114 17.1378 40.1764 17.0181 40.1475 16.9073C40.1212 16.8098 40.115 16.7181 40.0916 16.6147C39.8802 16.5647 39.6791 16.5312 39.483 16.4784C39.2608 16.4183 39.034 16.3439 38.8259 16.2532C38.5626 16.1277 38.3042 15.9833 38.0619 15.8288C37.8137 15.672 37.5682 15.5028 37.3407 15.3174C37.1823 15.1891 37.0219 15.0467 36.909 14.8734C36.8115 14.7247 36.7788 14.5428 36.7269 14.378C36.6963 14.273 36.6713 14.1696 36.6615 14.063C36.6442 13.9617 36.6466 13.8645 36.6367 13.7299C36.6829 13.7686 36.7251 13.8552 36.7945 13.9128C36.8697 13.9803 36.9608 14.0366 37.0571 14.0727C37.1766 14.1218 37.3068 14.1318 37.4328 14.1615C37.6103 14.2035 37.7873 14.2529 37.9639 14.3012C38.1405 14.3496 38.3234 14.3998 38.4982 14.4554C38.7174 14.5286 38.9313 14.6273 39.1459 14.6918C39.1254 14.5134 39.1155 14.3502 39.0985 14.1864C39.0838 14.0434 39.1059 13.8886 39.0447 13.763C39.013 13.6922 38.9112 13.6822 38.8366 13.6721C38.7629 13.6613 38.6893 13.7059 38.6205 13.7042C38.4396 13.7031 38.2537 13.6938 38.0734 13.6585C37.8185 13.6188 37.5596 13.5646 37.3088 13.4778C37.0829 13.4035 36.8643 13.2961 36.6534 13.1839C36.4371 13.0701 36.2202 12.9561 36.036 12.7938C35.903 12.6789 35.8028 12.5159 35.7292 12.3522C35.6611 12.1968 35.6541 12.0216 35.6189 11.8452C35.7149 11.9103 35.7883 12.011 35.8948 12.0639C35.9989 12.1234 36.1259 12.1471 36.2415 12.1604C36.4028 12.184 36.5613 12.1591 36.7281 12.1634C36.895 12.1614 37.0664 12.1461 37.2339 12.1715C37.3959 12.196 37.5479 12.26 37.6966 12.3088C37.8267 12.3464 37.9555 12.3909 38.076 12.4406C38.1856 12.4794 38.286 12.5247 38.3751 12.5321C38.3191 12.4142 38.2445 12.3484 38.2231 12.2594C38.2001 12.1837 38.2137 12.0967 38.2236 12.0227C38.2299 11.9054 38.2502 11.7925 38.2703 11.678C38.3552 11.2598 38.4519 10.8508 38.5234 10.429C38.5449 10.3087 38.5729 10.1903 38.567 10.0701C38.564 9.9931 38.5259 9.92112 38.5097 9.84098C38.6236 9.91664 38.7545 9.98206 38.8497 10.0812C38.9852 10.2175 39.0938 10.3758 39.1961 10.5323C39.2827 10.6642 39.3931 10.7878 39.4265 10.9422C39.497 11.2308 39.5161 11.5342 39.5164 11.8265C39.516 12.1537 39.4463 12.4783 39.4259 12.8011C39.418 13.0085 39.4191 13.2107 39.4401 13.4174C39.4682 13.6818 39.5158 13.9507 39.5787 14.2161C39.5932 14.3034 39.6434 14.3845 39.6805 14.4632C39.7028 14.3985 39.7183 14.3329 39.7339 14.2666C39.7713 14.1368 39.7961 14.0033 39.8388 13.8805C39.915 13.6759 39.9963 13.4793 40.0911 13.2857C40.1954 13.0805 40.3543 12.9092 40.445 12.7008C40.5049 12.569 40.5334 12.4155 40.5462 12.2726C40.5567 12.1703 40.5196 12.0637 40.5084 11.9638C40.5978 12.0544 40.6957 12.1401 40.7829 12.2439C40.8805 12.3586 40.9916 12.4819 41.0635 12.6174C41.1431 12.7826 41.2065 12.9576 41.2347 13.1314C41.2771 13.3362 41.2827 13.5471 41.2778 13.7473C41.2677 14.0511 41.2522 14.3542 41.2018 14.6554C41.1501 14.9921 41.0646 15.3267 40.9532 15.6484C40.9024 15.8041 40.788 15.9369 40.7244 16.0887C40.6758 16.2029 40.6266 16.323 40.6116 16.4454C40.5925 16.5875 40.6068 16.7305 40.6386 16.8628C40.6782 17.0181 40.7571 17.1554 40.8198 17.302C40.8458 17.3711 40.9012 17.4327 40.8965 17.5088C40.9005 17.5791 40.8802 17.6649 40.8235 17.6996C40.7584 17.7408 40.6626 17.7321 40.6017 17.6965Z" fill="white"/>
</symbol><symbol id="icon-arrow-down" viewBox="0 0 12 8">
<rect x="9.89941" width="2" height="8" transform="rotate(45 9.89941 0)" fill="#26B99A"/>
<rect y="1.41418" width="2" height="8" transform="rotate(-45 0 1.41418)" fill="#26B99A"/>
</symbol><symbol id="icon-arrow-reviews" viewBox="0 0 17 30">
<rect x="17" y="27.8789" width="3" height="21" transform="rotate(135 17 27.8789)" fill="#E8E8E8"/>
<rect x="14.8787" y="0.301758" width="3" height="21" transform="rotate(45 14.8787 0.301758)" fill="#E8E8E8"/>
</symbol><symbol id="icon-books" viewBox="0 0 58 64">
<path d="M41.8675 64H57.3157V0H41.8675V64Z" fill="#8697CB"/>
<path d="M49.5919 50.7586C48.3748 50.7586 47.385 51.7484 47.385 52.9655C47.385 54.1826 48.3748 55.1724 49.5919 55.1724C50.809 55.1724 51.7988 54.1826 51.7988 52.9655C51.7988 51.7484 50.809 50.7586 49.5919 50.7586ZM49.5919 57.3793C47.1577 57.3793 45.1782 55.3996 45.1782 52.9655C45.1782 50.5313 47.1578 48.5518 49.5919 48.5518C52.0262 48.5518 54.0057 50.5314 54.0057 52.9655C54.0057 55.3998 52.0262 57.3793 49.5919 57.3793Z" fill="#556080"/>
<path d="M52.9022 22.0689H46.2815C45.6724 22.0689 45.178 21.5757 45.178 20.9654C45.178 20.3552 45.6724 19.8619 46.2815 19.8619H52.9022C53.5114 19.8619 54.0057 20.3552 54.0057 20.9654C54.0057 21.5757 53.5114 22.0689 52.9022 22.0689Z" fill="#556080"/>
<path d="M52.9022 17.6551H46.2815C45.6724 17.6551 45.178 17.1619 45.178 16.5516C45.178 15.9414 45.6724 15.4481 46.2815 15.4481H52.9022C53.5114 15.4481 54.0057 15.9414 54.0057 16.5516C54.0056 17.1619 53.5114 17.6551 52.9022 17.6551Z" fill="#556080"/>
<path d="M52.9022 13.2413H46.2815C45.6724 13.2413 45.178 12.7481 45.178 12.1378C45.178 11.5276 45.6724 11.0343 46.2815 11.0343H52.9022C53.5114 11.0343 54.0057 11.5276 54.0057 12.1378C54.0057 12.7481 53.5114 13.2413 52.9022 13.2413Z" fill="#556080"/>
<path d="M52.9022 8.82761H46.2815C45.6724 8.82761 45.178 8.33436 45.178 7.72411C45.178 7.11386 45.6724 6.62061 46.2815 6.62061H52.9022C53.5114 6.62061 54.0057 7.11386 54.0057 7.72411C54.0057 8.33436 53.5114 8.82761 52.9022 8.82761Z" fill="#556080"/>
<path d="M26.4193 64H41.8675V0H26.4193V64Z" fill="#556080"/>
<path d="M34.1437 50.7586C32.9266 50.7586 31.9369 51.7484 31.9369 52.9655C31.9369 54.1826 32.9266 55.1724 34.1437 55.1724C35.3609 55.1724 36.3506 54.1826 36.3506 52.9655C36.3506 51.7484 35.3609 50.7586 34.1437 50.7586ZM34.1437 57.3793C31.7095 57.3793 29.73 55.3996 29.73 52.9655C29.73 50.5313 31.7096 48.5518 34.1437 48.5518C36.5779 48.5518 38.5575 50.5314 38.5575 52.9655C38.5575 55.3998 36.5779 57.3793 34.1437 57.3793Z" fill="#8697CB"/>
<path d="M37.454 22.0689H30.8333C30.2242 22.0689 29.7298 21.5757 29.7298 20.9654C29.7298 20.3552 30.2242 19.8619 30.8333 19.8619H37.454C38.0632 19.8619 38.5575 20.3552 38.5575 20.9654C38.5575 21.5757 38.063 22.0689 37.454 22.0689Z" fill="#8697CB"/>
<path d="M37.454 17.6551H30.8333C30.2242 17.6551 29.7298 17.1619 29.7298 16.5516C29.7298 15.9414 30.2242 15.4481 30.8333 15.4481H37.454C38.0632 15.4481 38.5575 15.9414 38.5575 16.5516C38.5574 17.1619 38.063 17.6551 37.454 17.6551Z" fill="#8697CB"/>
<path d="M37.454 13.2413H30.8333C30.2242 13.2413 29.7298 12.7481 29.7298 12.1378C29.7298 11.5276 30.2242 11.0343 30.8333 11.0343H37.454C38.0632 11.0343 38.5575 11.5276 38.5575 12.1378C38.5575 12.7481 38.063 13.2413 37.454 13.2413Z" fill="#8697CB"/>
<path d="M37.454 8.82761H30.8333C30.2242 8.82761 29.7298 8.33436 29.7298 7.72411C29.7298 7.11386 30.2242 6.62061 30.8333 6.62061H37.454C38.0632 6.62061 38.5575 7.11386 38.5575 7.72411C38.5575 8.33436 38.063 8.82761 37.454 8.82761Z" fill="#8697CB"/>
<path d="M15.1944 64L0 61.2138L11.2242 0.00439453L26.4197 2.79064L15.1944 64Z" fill="#8697CB"/>
<path d="M9.58293 49.5452C9.1393 49.5452 8.7068 49.6787 8.3338 49.9358C7.8483 50.2713 7.5228 50.7745 7.4168 51.356C7.19718 52.5532 7.9928 53.7052 9.18893 53.9248C9.7693 54.0318 10.3564 53.905 10.8408 53.5696C11.3263 53.2352 11.6518 52.7321 11.7589 52.1506C11.9774 50.9533 11.1829 49.8013 9.98568 49.5817C9.85105 49.5573 9.71643 49.5452 9.58293 49.5452ZM9.59618 56.1681C9.32918 56.1681 9.05993 56.1438 8.7918 56.0952C6.3973 55.6561 4.8073 53.351 5.24643 50.9565C5.4583 49.7978 6.11043 48.7893 7.0803 48.1206C8.05018 47.4508 9.22543 47.1992 10.3841 47.4111C12.7774 47.8502 14.3676 50.1553 13.9283 52.5498C13.7164 53.7085 13.0654 54.717 12.0944 55.3857C11.3496 55.9011 10.4833 56.1681 9.59618 56.1681Z" fill="#556080"/>
<path d="M18.2186 24.1496C18.1524 24.1496 18.0851 24.1441 18.0177 24.1309L11.5062 22.9359C10.9071 22.8266 10.5099 22.2506 10.6201 21.6515C10.7305 21.0524 11.3054 20.6506 11.9045 20.7665L18.417 21.9615C19.0161 22.0708 19.4134 22.6468 19.302 23.2459C19.2051 23.7778 18.7416 24.1496 18.2186 24.1496Z" fill="#556080"/>
<path d="M19.015 19.8082C18.9487 19.8082 18.8826 19.8027 18.8152 19.7894L12.3027 18.5956C11.7036 18.4863 11.3075 17.9114 11.4166 17.3112C11.527 16.7121 12.1007 16.3103 12.701 16.4262L19.2125 17.6201C19.8127 17.7293 20.2088 18.3042 20.0986 18.9044C20.0015 19.4363 19.538 19.8082 19.015 19.8082Z" fill="#556080"/>
<path d="M19.8114 15.4665C19.7451 15.4665 19.679 15.461 19.6116 15.4478L13.0991 14.2539C12.5 14.1447 12.1028 13.5698 12.213 12.9695C12.3223 12.3714 12.8971 11.9698 13.4963 12.0845L20.0088 13.2784C20.609 13.3877 21.0051 13.9625 20.8949 14.5628C20.7979 15.0935 20.3344 15.4665 19.8114 15.4665Z" fill="#556080"/>
<path d="M20.6072 11.125C20.5409 11.125 20.4748 11.1195 20.4074 11.1062L13.8949 9.91233C13.2958 9.80308 12.8997 9.2282 13.0088 8.62795C13.1192 8.02883 13.6929 7.62933 14.2932 7.74295L20.8047 8.93683C21.4049 9.04608 21.801 9.62095 21.6908 10.2212C21.5937 10.7531 21.1303 11.125 20.6072 11.125Z" fill="#556080"/>
<path d="M49.592 44.1377C48.9828 44.1377 48.4885 43.6444 48.4885 43.0342V27.586C48.4885 26.9758 48.9828 26.4825 49.592 26.4825C50.2011 26.4825 50.6955 26.9758 50.6955 27.586V43.0343C50.6955 43.6445 50.2011 44.1377 49.592 44.1377Z" fill="#556080"/>
<path d="M34.1437 44.1379C33.5346 44.1379 33.0402 43.6447 33.0402 43.0344V27.5863C33.0402 26.976 33.5346 26.4828 34.1437 26.4828C34.7528 26.4828 35.2472 26.976 35.2472 27.5863V43.0345C35.2471 43.6448 34.7528 44.1379 34.1437 44.1379Z" fill="#8697CB"/>
<path d="M10.8376 44.8372C10.7714 44.8372 10.7053 44.8317 10.6379 44.8185C10.0376 44.7092 9.6415 44.1344 9.75175 43.5341L12.538 28.3396C12.6484 27.7405 13.2199 27.3399 13.8224 27.4535C14.4215 27.5639 14.8176 28.1376 14.7085 28.7379L11.9213 43.9335C11.8241 44.4654 11.3608 44.8372 10.8376 44.8372Z" fill="#556080"/>
</symbol><symbol id="icon-check" viewBox="0 0 14 10">
<rect y="3.53552" width="2" height="8" transform="rotate(-45 0 3.53552)" fill="#26B99A"/>
<rect x="12.021" width="2" height="11" transform="rotate(45 12.021 0)" fill="#26B99A"/>
</symbol><symbol id="icon-close" viewBox="0 0 17 17">
<rect y="1.41422" width="2" height="22" transform="rotate(-45 0 1.41422)" fill="#EFEFEF"/>
<rect x="15.5564" width="2" height="22" transform="rotate(45 15.5564 0)" fill="#EFEFEF"/>
</symbol><symbol id="icon-document" viewBox="0 0 64 64">
<path d="M46.5819 53.452L37.9995 55.7923L40.3398 47.2099L50.7573 36.7915V13.2424H37.5162V0.00134277H0V63.9996H50.7573V49.2766L46.5819 53.452Z" fill="#ECF0F1"/>
<path d="M14.3443 49.6538C14.3443 50.264 13.8511 50.7572 13.2408 50.7572C12.6306 50.7572 12.1374 50.264 12.1374 49.6538C12.1374 49.0435 12.6306 48.5503 13.2408 48.5503C13.8511 48.5503 14.3443 49.0437 14.3443 49.6538Z" fill="#BDC3C7"/>
<path d="M50.7571 13.241H37.5161V0L50.7571 13.241Z" fill="#BDC3C7"/>
<path d="M30.8956 11.0342H6.62038C6.01014 11.0342 5.51691 10.541 5.51691 9.93074C5.51691 9.32051 6.01014 8.82727 6.62038 8.82727H30.8956C31.5058 8.82727 31.9991 9.32051 31.9991 9.93074C31.999 10.541 31.5058 11.0342 30.8956 11.0342Z" fill="#BDC3C7"/>
<path d="M35.3092 19.8616H6.62038C6.01014 19.8616 5.51691 19.3684 5.51691 18.7581C5.51691 18.1479 6.01014 17.6547 6.62038 17.6547H35.3092C35.9195 17.6547 36.4127 18.1479 36.4127 18.7581C36.4127 19.3684 35.9195 19.8616 35.3092 19.8616Z" fill="#BDC3C7"/>
<path d="M44.1366 28.6889H6.62038C6.01014 28.6889 5.51691 28.1956 5.51691 27.5854C5.51691 26.9752 6.01014 26.4819 6.62038 26.4819H44.1366C44.7469 26.4819 45.2401 26.9752 45.2401 27.5854C45.2401 28.1956 44.7469 28.6889 44.1366 28.6889Z" fill="#BDC3C7"/>
<path d="M44.1366 37.5163H6.62038C6.01014 37.5163 5.51691 37.023 5.51691 36.4128C5.51691 35.8026 6.01014 35.3093 6.62038 35.3093H44.1366C44.7469 35.3093 45.2401 35.8026 45.2401 36.4128C45.24 37.023 44.7469 37.5163 44.1366 37.5163Z" fill="#BDC3C7"/>
<path d="M8.82719 50.7572H6.62038C6.01014 50.7572 5.51691 50.264 5.51691 49.6538C5.51691 49.0435 6.01014 48.5503 6.62038 48.5503H8.82719C9.43743 48.5503 9.93066 49.0435 9.93066 49.6538C9.93066 50.264 9.43743 50.7572 8.82719 50.7572Z" fill="#BDC3C7"/>
<path d="M19.8614 55.1708C18.0363 55.1708 16.5511 53.6856 16.5511 51.8605C16.5511 51.2503 17.0444 50.757 17.6546 50.757C18.2648 50.757 18.7581 51.2503 18.7581 51.8605C18.7581 52.4696 19.2524 52.964 19.8615 52.964C20.4706 52.964 20.965 52.4696 20.965 51.8605C20.965 51.2514 20.4706 50.757 19.8615 50.757C18.0365 50.757 16.5512 49.2718 16.5512 47.4468C16.5512 45.6217 18.0365 44.1365 19.8615 44.1365C21.6866 44.1365 23.1718 45.6217 23.1718 47.4468C23.1718 48.057 22.6786 48.5502 22.0683 48.5502C21.4581 48.5502 20.9649 48.057 20.9649 47.4468C20.9649 46.8377 20.4705 46.3433 19.8614 46.3433C19.2523 46.3433 18.7579 46.8377 18.7579 47.4468C18.7579 48.0559 19.2523 48.5502 19.8614 48.5502C21.6865 48.5502 23.1717 50.0354 23.1717 51.8605C23.1717 53.6856 21.6865 55.1708 19.8614 55.1708Z" fill="#26B99A"/>
<path d="M19.8614 56.2743C19.2512 56.2743 18.7579 55.781 18.7579 55.1708V54.0673C18.7579 53.4571 19.2512 52.9639 19.8614 52.9639C20.4716 52.9639 20.9649 53.4571 20.9649 54.0673V55.1708C20.9649 55.781 20.4716 56.2743 19.8614 56.2743Z" fill="#26B99A"/>
<path d="M19.8614 46.3436C19.2512 46.3436 18.7579 45.8504 18.7579 45.2401V44.1367C18.7579 43.5264 19.2512 43.0332 19.8614 43.0332C20.4716 43.0332 20.9649 43.5264 20.9649 44.1367V45.2401C20.9649 45.8504 20.4716 46.3436 19.8614 46.3436Z" fill="#26B99A"/>
<path d="M46.5816 53.4513L37.9992 55.7916L40.3395 47.2092L57.1148 30.4339C57.9699 29.5788 59.357 29.5788 60.2132 30.4339L63.3569 33.5776C64.212 34.4338 64.212 35.8198 63.3569 36.676L46.5816 53.4513Z" fill="#F0C419"/>
<path d="M58.6631 41.3685L52.4222 35.1276L53.9824 33.5674L60.2233 39.8083L58.6631 41.3685Z" fill="#FB7B76"/>
<path d="M37.2187 57.6753C36.9362 57.6753 36.6537 57.5672 36.4386 57.352C36.0071 56.9206 36.0071 56.2232 36.4386 55.7918L37.2187 55.0117C37.6502 54.5802 38.3475 54.5802 38.7789 55.0117C39.2104 55.4432 39.2104 56.1406 38.7789 56.5719L37.9988 57.352C37.7837 57.567 37.5012 57.6753 37.2187 57.6753Z" fill="black"/>
</symbol><symbol id="icon-hand" viewBox="0 0 64 58">
<path d="M63.2273 36.5967C64.0815 35.8883 64.2557 34.6326 63.6081 33.73C62.2266 31.8056 61.0801 31.3487 56.2758 33.8735L46.7034 39.7239C43.7793 41.2787 36.1049 40.8274 32.7924 40.8274C32.7924 40.8274 40.607 41.3559 37.4898 36.7017C35.9383 34.3867 33.2635 33.0725 30.4752 33.0725H26.1717C23.6636 33.0725 21.1875 32.3266 19.1847 30.816C14.5105 27.2916 5.51746 27.5862 5.51746 27.5862V54.0688H20.9656C23.1692 54.0688 25.3695 53.9022 27.5487 53.5712L41.931 51.3842C42.422 51.3842 42.8987 51.3268 43.36 51.2242L43.3831 51.2208C44.5461 51.0565 45.6098 50.4684 46.4595 49.6551L63.2273 36.5967Z" fill="#FAC176"/>
<path d="M34.207 41.9307H23.4839C22.8736 41.9307 22.3804 41.4364 22.3804 40.8272C22.3804 40.2181 22.8736 39.7238 23.4839 39.7238H34.207C34.8173 39.7238 35.3105 40.2181 35.3105 40.8272C35.3104 41.4365 34.8172 41.9307 34.207 41.9307Z" fill="#F18D46"/>
<path d="M0 57.3791H5.51722V24.2758H0V57.3791Z" fill="#4482C3"/>
<path d="M19.0703 45.241C18.46 45.241 17.9668 44.7466 17.9668 44.1375C17.9668 41.3734 20.0291 39.7238 23.484 39.7238C24.0942 39.7238 24.5875 40.2181 24.5875 40.8272C24.5875 41.4364 24.0942 41.9307 23.484 41.9307C20.1736 41.9307 20.1736 43.5915 20.1736 44.1376C20.1736 44.7466 19.6804 45.241 19.0703 45.241Z" fill="#F18D46"/>
<path d="M57.3793 24.2757H19.8623C18.644 24.2757 17.6554 23.287 17.6554 22.0689V2.20686C17.6554 0.988619 18.6441 0 19.8623 0H57.3793C58.5975 0 59.5861 0.988744 59.5861 2.20686V22.0689C59.5861 23.287 58.5975 24.2757 57.3793 24.2757Z" fill="#13A085"/>
<path d="M17.655 9.93093H59.5859V5.51721H17.655V9.93093Z" fill="#11705E"/>
<path d="M30.8967 16.5517H24.2761C23.6659 16.5517 23.1726 16.0573 23.1726 15.4482C23.1726 14.8391 23.6659 14.3447 24.2761 14.3447H30.8968C31.5071 14.3447 32.0003 14.8391 32.0003 15.4482C32.0002 16.0573 31.5069 16.5517 30.8967 16.5517Z" fill="#11705E"/>
<path d="M37.5174 16.5517H35.3105C34.7003 16.5517 34.207 16.0573 34.207 15.4482C34.207 14.8391 34.7003 14.3447 35.3105 14.3447H37.5174C38.1276 14.3447 38.6209 14.8391 38.6209 15.4482C38.6208 16.0573 38.1275 16.5517 37.5174 16.5517Z" fill="#11705E"/>
<path d="M54.0689 19.8621H47.4482C46.838 19.8621 46.3447 19.3677 46.3447 18.7586V16.5517C46.3447 15.9426 46.838 15.4482 47.4482 15.4482H54.0689C54.6792 15.4482 55.1724 15.9426 55.1724 16.5517V18.7586C55.1724 19.3677 54.6792 19.8621 54.0689 19.8621Z" fill="#11705E"/>
</symbol><symbol id="icon-map-menu" viewBox="0 0 24 24">
<circle cx="12" cy="12" r="11.5" stroke="#26B99A"/>
<path d="M11.9766 4C9.06879 4 6.70312 6.36566 6.70312 9.27344C6.70312 10.2559 6.97526 11.2146 7.4903 12.0464L11.6764 18.7923C11.7566 18.9215 11.8978 19 12.0498 19C12.0509 19 12.0521 19 12.0533 19C12.2065 18.9988 12.3481 18.9179 12.4268 18.7864L16.5062 11.9752C16.9928 11.161 17.25 10.2267 17.25 9.27344C17.25 6.36566 14.8843 4 11.9766 4ZM15.7519 11.524L12.0431 17.7164L8.23731 11.5834C7.80861 10.891 7.57617 10.0923 7.57617 9.27344C7.57617 6.85029 9.55342 4.87305 11.9766 4.87305C14.3997 4.87305 16.374 6.85029 16.374 9.27344C16.374 10.068 16.1569 10.8463 15.7519 11.524Z" fill="#26B99A"/>
<path d="M11.9766 6.63672C10.5227 6.63672 9.33984 7.81955 9.33984 9.27344C9.33984 10.718 10.5034 11.9102 11.9766 11.9102C13.4679 11.9102 14.6133 10.7022 14.6133 9.27344C14.6133 7.81955 13.4304 6.63672 11.9766 6.63672ZM11.9766 11.0371C11.0022 11.0371 10.2129 10.2451 10.2129 9.27344C10.2129 8.30418 11.0073 7.50977 11.9766 7.50977C12.9458 7.50977 13.7373 8.30418 13.7373 9.27344C13.7373 10.2309 12.9663 11.0371 11.9766 11.0371Z" fill="#26B99A"/>
</symbol><symbol id="icon-map" viewBox="0 0 24 24">
<circle cx="12" cy="12" r="11.5" stroke="white"/>
<path d="M11.9766 4C9.06879 4 6.70312 6.36566 6.70312 9.27344C6.70312 10.2559 6.97526 11.2146 7.4903 12.0464L11.6764 18.7923C11.7566 18.9215 11.8978 19 12.0498 19C12.0509 19 12.0521 19 12.0533 19C12.2065 18.9988 12.3481 18.9179 12.4268 18.7864L16.5062 11.9752C16.9928 11.161 17.25 10.2267 17.25 9.27344C17.25 6.36566 14.8843 4 11.9766 4ZM15.7519 11.524L12.0431 17.7164L8.23731 11.5834C7.80861 10.891 7.57617 10.0923 7.57617 9.27344C7.57617 6.85029 9.55342 4.87305 11.9766 4.87305C14.3997 4.87305 16.374 6.85029 16.374 9.27344C16.374 10.068 16.1569 10.8463 15.7519 11.524Z" fill="white"/>
<path d="M11.9766 6.63672C10.5227 6.63672 9.33984 7.81955 9.33984 9.27344C9.33984 10.718 10.5034 11.9102 11.9766 11.9102C13.4679 11.9102 14.6133 10.7022 14.6133 9.27344C14.6133 7.81955 13.4304 6.63672 11.9766 6.63672ZM11.9766 11.0371C11.0022 11.0371 10.2129 10.2451 10.2129 9.27344C10.2129 8.30418 11.0073 7.50977 11.9766 7.50977C12.9458 7.50977 13.7373 8.30418 13.7373 9.27344C13.7373 10.2309 12.9663 11.0371 11.9766 11.0371Z" fill="white"/>
</symbol><symbol id="icon-menu" viewBox="0 0 30 20">
<rect width="30" height="2" fill="white"/>
<rect y="9" width="30" height="2" fill="white"/>
<rect y="18" width="30" height="2" fill="white"/>
</symbol><symbol id="icon-phone-menu" viewBox="0 0 24 24">
<circle cx="12" cy="12" r="11.5" stroke="#26B99A"/>
<path d="M19.6138 15.0635L17.7491 13.1988C17.235 12.6847 16.3984 12.6847 15.8843 13.1988L15.0367 14.0463C14.6473 14.4358 14.0135 14.4357 13.6242 14.0465L9.95037 10.3695C9.55999 9.97914 9.55993 9.3473 9.95037 8.95686C10.0869 8.82034 10.4789 8.42831 10.798 8.10927C11.3098 7.59745 11.3169 6.76352 10.7975 6.24408L8.93324 4.38572C8.41913 3.87165 7.58262 3.87165 7.0699 4.38438C6.68622 4.76471 6.56247 4.8874 6.39044 5.05794C4.53653 6.91182 4.53653 9.92831 6.39035 11.7821L12.2114 17.6062C14.0697 19.4645 17.0773 19.4647 18.9357 17.6062L19.6138 16.9282C20.1279 16.4141 20.1279 15.5776 19.6138 15.0635ZM7.69011 5.00729C7.86147 4.83593 8.14026 4.8359 8.31217 5.00775L10.1764 6.86612C10.3482 7.03788 10.3482 7.31588 10.1764 7.48768L9.86558 7.79846L7.38091 5.31379L7.69011 5.00729ZM12.8331 16.9848L7.012 11.1606C5.57769 9.72628 5.49885 7.47408 6.76954 5.94558L9.24701 8.42304C8.59603 9.161 8.62316 10.2855 9.32866 10.991L13.0024 14.6678C13.0024 14.6678 13.0025 14.6679 13.0025 14.6679C13.7072 15.3727 14.8317 15.4016 15.5705 14.7497L18.0481 17.2272C16.5244 18.4957 14.2773 18.429 12.8331 16.9848ZM18.9922 16.3066L18.6814 16.6174L16.1951 14.1311L16.5059 13.8203C16.6773 13.649 16.9561 13.6489 17.1275 13.8203L18.9922 15.685C19.1636 15.8564 19.1636 16.1353 18.9922 16.3066Z" fill="#26B99A"/>
</symbol><symbol id="icon-phone-mobile" viewBox="0 0 21 21">
<path d="M20.4602 15.4889L17.8495 12.8783C17.1297 12.1586 15.9585 12.1586 15.2387 12.8783L14.0521 14.0649C13.5068 14.6101 12.6195 14.61 12.0744 14.0651L6.93081 8.91734C6.38426 8.3708 6.38417 7.48622 6.93081 6.9396C7.12195 6.74847 7.67081 6.19964 8.11749 5.75298C8.8341 5.03644 8.84411 3.86892 8.11679 3.14172L5.50677 0.540012C4.787 -0.179689 3.61583 -0.179689 2.89798 0.538126C2.36081 1.07059 2.18756 1.24236 1.9467 1.48112C-0.64888 4.07655 -0.64888 8.29964 1.94658 10.895L10.0964 19.0487C12.6981 21.6503 16.9089 21.6505 19.5108 19.0487L20.4602 18.0994C21.1799 17.3797 21.1799 16.2086 20.4602 15.4889ZM3.76632 1.4102C4.00623 1.1703 4.39655 1.17026 4.63724 1.41086L7.24726 4.01256C7.48775 4.25304 7.48775 4.64223 7.24726 4.88275L6.81211 5.31784L3.33342 1.83931L3.76632 1.4102ZM10.9668 18.1787L2.81693 10.0248C0.808797 8.0168 0.698419 4.86372 2.47747 2.72381L5.94607 6.19226C5.03466 7.2254 5.07264 8.7997 6.06038 9.7874L11.2038 14.9349C11.2038 14.9349 11.2039 14.935 11.204 14.9351C12.1906 15.9217 13.7649 15.9622 14.7994 15.0496L18.2681 18.5181C16.1349 20.294 12.9888 20.2005 10.9668 18.1787ZM19.59 17.2292L19.1548 17.6644L15.6739 14.1835L16.109 13.7484C16.3489 13.5085 16.7393 13.5085 16.9792 13.7484L19.5899 16.3591C19.8299 16.599 19.8299 16.9894 19.59 17.2292Z" fill="white"/>
</symbol><symbol id="icon-phone" viewBox="0 0 24 24">
<circle cx="12" cy="12" r="11.5" stroke="white"/>
<path d="M19.6138 15.0635L17.7491 13.1988C17.235 12.6847 16.3984 12.6847 15.8843 13.1988L15.0367 14.0463C14.6473 14.4358 14.0135 14.4357 13.6242 14.0465L9.95037 10.3695C9.55999 9.97914 9.55993 9.3473 9.95037 8.95686C10.0869 8.82034 10.4789 8.42831 10.798 8.10927C11.3098 7.59745 11.3169 6.76352 10.7975 6.24408L8.93324 4.38572C8.41913 3.87165 7.58262 3.87165 7.0699 4.38438C6.68622 4.76471 6.56247 4.8874 6.39044 5.05794C4.53653 6.91182 4.53653 9.92831 6.39035 11.7821L12.2114 17.6062C14.0697 19.4645 17.0773 19.4647 18.9357 17.6062L19.6138 16.9282C20.1279 16.4141 20.1279 15.5776 19.6138 15.0635ZM7.69011 5.00729C7.86147 4.83593 8.14026 4.8359 8.31217 5.00775L10.1764 6.86612C10.3482 7.03788 10.3482 7.31588 10.1764 7.48768L9.86558 7.79846L7.38091 5.31379L7.69011 5.00729ZM12.8331 16.9848L7.012 11.1606C5.57769 9.72628 5.49885 7.47408 6.76954 5.94558L9.24701 8.42304C8.59603 9.161 8.62316 10.2855 9.32866 10.991L13.0024 14.6678C13.0024 14.6678 13.0025 14.6679 13.0025 14.6679C13.7072 15.3727 14.8317 15.4016 15.5705 14.7497L18.0481 17.2272C16.5244 18.4957 14.2773 18.429 12.8331 16.9848ZM18.9922 16.3066L18.6814 16.6174L16.1951 14.1311L16.5059 13.8203C16.6773 13.649 16.9561 13.6489 17.1275 13.8203L18.9922 15.685C19.1636 15.8564 19.1636 16.1353 18.9922 16.3066Z" fill="#ffffff"/>
</symbol><symbol id="icon-question" viewBox="0 0 44 45">
<circle cx="22" cy="22" r="22" fill="#26B99A"/>
<path d="M19.66 27.296C19.66 26.072 19.804 25.064 20.092 24.272C20.38 23.456 20.728 22.772 21.136 22.22C21.568 21.644 22.024 21.164 22.504 20.78C23.008 20.396 23.464 20.024 23.872 19.664C24.304 19.28 24.664 18.86 24.952 18.404C25.24 17.924 25.384 17.336 25.384 16.64C25.384 15.68 25.084 14.924 24.484 14.372C23.908 13.796 23.08 13.508 22 13.508C20.872 13.508 19.984 13.82 19.336 14.444C18.712 15.068 18.352 15.92 18.256 17H13.72C13.768 15.896 13.984 14.888 14.368 13.976C14.776 13.064 15.328 12.272 16.024 11.6C16.744 10.928 17.584 10.412 18.544 10.052C19.528 9.668 20.62 9.476 21.82 9.476C23.14 9.476 24.304 9.644 25.312 9.98C26.32 10.316 27.16 10.784 27.832 11.384C28.528 11.984 29.044 12.704 29.38 13.544C29.74 14.36 29.92 15.272 29.92 16.28C29.92 17.312 29.776 18.176 29.488 18.872C29.2 19.568 28.828 20.18 28.372 20.708C27.94 21.212 27.46 21.668 26.932 22.076C26.428 22.484 25.948 22.928 25.492 23.408C25.06 23.888 24.7 24.428 24.412 25.028C24.124 25.628 23.98 26.384 23.98 27.296H19.66ZM21.82 35.324C20.98 35.324 20.284 35.048 19.732 34.496C19.204 33.92 18.94 33.236 18.94 32.444C18.94 31.652 19.204 30.98 19.732 30.428C20.284 29.852 20.98 29.564 21.82 29.564C22.66 29.564 23.344 29.852 23.872 30.428C24.424 30.98 24.7 31.652 24.7 32.444C24.7 33.236 24.424 33.92 23.872 34.496C23.344 35.048 22.66 35.324 21.82 35.324Z" fill="white"/>
</symbol><symbol id="icon-scales" viewBox="0 0 62 64">
<path d="M58.4828 28.6902C58.0415 28.6902 57.6243 28.4232 57.4545 27.9862L50.7587 10.768L44.063 27.9862C43.8412 28.5545 43.2001 28.837 42.6351 28.6152C42.0668 28.3935 41.7855 27.7545 42.0061 27.1862L49.7302 7.32409C49.8957 6.90034 50.304 6.62122 50.7586 6.62122C51.2132 6.62122 51.6215 6.90034 51.787 7.32409L59.5111 27.1862C59.7318 27.7545 59.4503 28.3933 58.8821 28.6152C58.751 28.6658 58.6163 28.6902 58.4828 28.6902Z" fill="#BA9317"/>
<path d="M18.7587 28.6902C18.3173 28.6902 17.9002 28.4232 17.7303 27.9862L11.0345 10.768L4.33885 27.9862C4.1181 28.5545 3.4771 28.837 2.91097 28.6152C2.34272 28.3935 2.06135 27.7545 2.28197 27.1862L10.0061 7.32409C10.1716 6.90034 10.5798 6.62122 11.0345 6.62122C11.4891 6.62122 11.8973 6.90034 12.0628 7.32409L19.787 27.1862C20.0077 27.7545 19.7262 28.3933 19.158 28.6152C19.0268 28.6658 18.8922 28.6902 18.7587 28.6902Z" fill="#BA9317"/>
<path d="M60.6898 8.82761H34.207C33.5968 8.82761 33.1035 8.33323 33.1035 7.72411C33.1035 7.11498 33.5968 6.62061 34.207 6.62061H60.6898C61.3 6.62061 61.7933 7.11498 61.7933 7.72411C61.7933 8.33323 61.2999 8.82761 60.6898 8.82761Z" fill="#F0C419"/>
<path d="M27.5863 8.82761H1.1035C0.49325 8.82761 0 8.33323 0 7.72411C0 7.11498 0.49325 6.62061 1.1035 6.62061H27.5863C28.1965 6.62061 28.6898 7.11498 28.6898 7.72411C28.6898 8.33323 28.1965 8.82761 27.5863 8.82761Z" fill="#F0C419"/>
<path d="M34.207 7.72407C34.207 9.55245 32.7251 11.0344 30.8966 11.0344C29.0681 11.0344 27.5863 9.55257 27.5863 7.72407C27.5863 5.89557 29.0683 4.4137 30.8966 4.4137C32.725 4.4137 34.207 5.8957 34.207 7.72407Z" fill="#BA9317"/>
<path d="M30.8967 4.41375C31.7474 4.41375 32.5177 4.74475 33.1036 5.27225V0H28.6898V5.27225C29.2757 4.74487 30.0459 4.41375 30.8967 4.41375Z" fill="#F0C419"/>
<path d="M30.8967 11.0344C30.0459 11.0344 29.2757 10.7034 28.6898 10.1759V59.5862H33.1036V10.1759C32.5177 10.7034 31.7474 11.0344 30.8967 11.0344Z" fill="#F0C419"/>
<path d="M50.7588 33.1035C45.8087 33.1035 41.9312 30.6804 41.9312 27.5863C41.9312 26.9772 42.4244 26.4828 43.0347 26.4828H58.4829C59.0932 26.4828 59.5864 26.9772 59.5864 27.5863C59.5863 30.6803 55.7088 33.1035 50.7588 33.1035Z" fill="#F0C419"/>
<path d="M11.0345 33.1035C6.08441 33.1035 2.20691 30.6804 2.20691 27.5863C2.20691 26.9772 2.70016 26.4828 3.31041 26.4828H18.7587C19.3689 26.4828 19.8622 26.9772 19.8622 27.5863C19.8622 30.6803 15.9847 33.1035 11.0345 33.1035Z" fill="#F0C419"/>
<path d="M43.0345 64.0001H18.7588C18.7588 61.5626 20.735 59.5863 23.1725 59.5863H38.6208C41.0583 59.5863 43.0345 61.5626 43.0345 64.0001Z" fill="#BA9317"/>
</symbol></svg>